<svg id="Layer_1" data-name="Layer 1" xmlns="http://www.w3.org/2000/svg" viewBox="0 0 16 16"><defs><style>.cls-1{fill:#f7feff;}.cls-2{fill:#231e2b;}.cls-3{fill:#c7936b;}.cls-4{fill:#a6644b;}</style></defs><title>arrow_6</title><rect class="cls-1" x="3" y="11" width="2" height="1"/><rect class="cls-1" x="5" y="10" width="10" height="1"/><rect class="cls-1" x="2" y="10" width="1" height="1"/><rect class="cls-2" x="2" y="9" width="1" height="1"/><rect class="cls-1" x="1" y="9" width="1" height="1"/><polygon class="cls-2" points="15 6 5 6 5 5 3 5 3 6 4 6 4 7 14 7 14 9 4 9 4 10 3 10 3 11 5 11 5 10 15 10 15 6"/><rect class="cls-2" x="1" y="7" width="1" height="2"/><rect class="cls-3" x="4" y="7" width="10" height="1"/><polygon class="cls-4" points="3 8 2 8 2 9 3 9 3 10 4 10 4 9 14 9 14 8 4 8 4 7 3 7 3 8"/><rect class="cls-3" x="2" y="7" width="1" height="1"/><rect class="cls-1" y="7" width="1" height="2"/><rect class="cls-1" x="15" y="6" width="1" height="4"/><rect class="cls-3" x="3" y="6" width="1" height="1"/><rect class="cls-2" x="2" y="6" width="1" height="1"/><rect class="cls-1" x="1" y="6" width="1" height="1"/><rect class="cls-1" x="5" y="5" width="10" height="1"/><rect class="cls-1" x="2" y="5" width="1" height="1"/><rect class="cls-1" x="3" y="4" width="2" height="1"/></svg>