<svg id="Layer_1" data-name="Layer 1" xmlns="http://www.w3.org/2000/svg" viewBox="0 0 16 16"><defs><style>.cls-1{fill:#f7feff;}.cls-2{fill:#231e2b;}.cls-3{fill:#cf8934;}.cls-4{fill:#e2b436;}</style></defs><title>banana</title><rect class="cls-1" x="5" y="14" width="5" height="1"/><rect class="cls-1" x="10" y="13" width="2" height="1"/><rect class="cls-2" x="5" y="13" width="5" height="1"/><rect class="cls-1" x="3" y="13" width="2" height="1"/><rect class="cls-1" x="12" y="12" width="1" height="1"/><rect class="cls-2" x="10" y="12" width="2" height="1"/><rect class="cls-3" x="5" y="12" width="5" height="1"/><rect class="cls-2" x="3" y="12" width="2" height="1"/><rect class="cls-1" x="2" y="12" width="1" height="1"/><rect class="cls-1" x="13" y="11" width="1" height="1"/><rect class="cls-2" x="12" y="11" width="1" height="1"/><rect class="cls-3" x="10" y="11" width="2" height="1"/><rect class="cls-3" x="3" y="11" width="2" height="1"/><rect class="cls-2" x="2" y="11" width="1" height="1"/><rect class="cls-1" x="1" y="11" width="1" height="1"/><rect class="cls-1" x="14" y="10" width="1" height="1"/><rect class="cls-2" x="13" y="10" width="1" height="1"/><rect class="cls-3" x="12" y="10" width="1" height="1"/><polygon class="cls-2" points="2 9 5 9 5 8 4 8 4 5 5 5 5 4 3 4 3 8 1 8 1 11 2 11 2 9"/><rect class="cls-3" x="13" y="9" width="1" height="1"/><polygon class="cls-3" points="9 10 9 9 6 9 6 8 5 8 5 9 2 9 2 11 3 11 3 10 9 10"/><rect class="cls-1" y="8" width="1" height="3"/><polygon class="cls-2" points="15 2 12 2 12 5 13 5 13 3 14 3 14 10 15 10 15 2"/><rect class="cls-3" x="9" y="8" width="2" height="1"/><polygon class="cls-4" points="13 8 11 8 11 9 9 9 9 10 3 10 3 11 5 11 5 12 10 12 10 11 12 11 12 10 13 10 13 9 14 9 14 7 13 7 13 8"/><rect class="cls-3" x="11" y="7" width="2" height="1"/><rect class="cls-3" x="4" y="7" width="1" height="1"/><polygon class="cls-1" points="3 8 3 4 2 4 2 7 1 7 1 8 3 8"/><rect class="cls-3" x="13" y="4" width="1" height="3"/><polygon class="cls-4" points="10 6 10 7 7 7 7 6 5 6 5 5 4 5 4 7 5 7 5 8 6 8 6 9 9 9 9 8 11 8 11 7 13 7 13 5 12 5 12 6 10 6"/><rect class="cls-2" x="7" y="6" width="3" height="1"/><rect class="cls-2" x="10" y="5" width="2" height="1"/><rect class="cls-1" x="7" y="5" width="3" height="1"/><rect class="cls-2" x="5" y="5" width="2" height="1"/><polygon class="cls-1" points="12 5 12 2 11 2 11 4 10 4 10 5 12 5"/><rect class="cls-1" x="5" y="4" width="2" height="1"/><rect class="cls-4" x="13" y="3" width="1" height="1"/><rect class="cls-1" x="3" y="3" width="2" height="1"/><rect class="cls-1" x="15" y="2" width="1" height="8"/><rect class="cls-1" x="12" y="1" width="3" height="1"/></svg>