<svg id="Layer_1" data-name="Layer 1" xmlns="http://www.w3.org/2000/svg" viewBox="0 0 16 16"><defs><style>.cls-1{fill:#f7feff;}.cls-2{fill:#231e2b;}.cls-3{fill:#522b29;}.cls-4{fill:#784028;}.cls-5{fill:#c7936b;}.cls-6{fill:#e8be9b;}</style></defs><title>bread</title><rect class="cls-1" x="3" y="15" width="10" height="1"/><rect class="cls-1" x="13" y="14" width="1" height="1"/><rect class="cls-2" x="3" y="14" width="10" height="1"/><rect class="cls-1" x="2" y="14" width="1" height="1"/><rect class="cls-2" x="2" y="5" width="1" height="9"/><rect class="cls-2" x="13" y="5" width="1" height="9"/><rect class="cls-1" x="1" y="5" width="1" height="9"/><polygon class="cls-3" points="8 12 8 11 7 11 7 10 6 10 6 11 5 11 5 12 8 12"/><rect class="cls-4" x="4" y="11" width="1" height="1"/><polygon class="cls-4" points="11 11 10 11 10 12 9 12 9 10 7 10 7 11 8 11 8 12 5 12 5 13 11 13 11 12 12 12 12 10 11 10 11 11"/><rect class="cls-4" x="5" y="10" width="1" height="1"/><rect class="cls-4" x="6" y="9" width="1" height="1"/><rect class="cls-4" x="10" y="8" width="1" height="1"/><rect class="cls-4" x="4" y="8" width="1" height="2"/><rect class="cls-4" x="11" y="7" width="1" height="1"/><rect class="cls-4" x="8" y="7" width="1" height="1"/><polygon class="cls-4" points="6 6 5 6 5 5 4 5 4 7 5 7 5 8 6 8 6 6"/><rect class="cls-4" x="10" y="6" width="1" height="1"/><path class="cls-3" d="M10,6H9V5H7V6H6V8H5v2H6V9H7v1H9v2h1V11h1V10h1V9H10V8h1V7H10ZM9,8H8V7H9Z"/><rect class="cls-1" x="14" y="5" width="1" height="9"/><rect class="cls-4" x="11" y="5" width="1" height="1"/><rect class="cls-3" x="10" y="5" width="1" height="1"/><polygon class="cls-4" points="6 6 7 6 7 5 9 5 9 6 10 6 10 5 11 5 11 4 5 4 5 5 6 5 6 6"/><rect class="cls-3" x="5" y="5" width="1" height="1"/><rect class="cls-2" x="1" y="3" width="1" height="2"/><rect class="cls-1" x="15" y="3" width="1" height="2"/><rect class="cls-2" x="14" y="3" width="1" height="2"/><rect class="cls-5" x="13" y="3" width="1" height="1"/><path class="cls-6" d="M13,3H3V4H2V5H3v9H13V5h1V4H13ZM12,6H11V7h1V8H11V9h1v3H11v1H5V12H4V11H5V10H4V8H5V7H4V5H5V4h6V5h1Z"/><rect class="cls-5" x="2" y="3" width="1" height="1"/><rect class="cls-1" y="3" width="1" height="2"/><rect class="cls-1" x="14" y="2" width="1" height="1"/><rect class="cls-2" x="13" y="2" width="1" height="1"/><rect class="cls-5" x="3" y="2" width="10" height="1"/><rect class="cls-2" x="2" y="2" width="1" height="1"/><rect class="cls-1" x="1" y="2" width="1" height="1"/><rect class="cls-1" x="13" y="1" width="1" height="1"/><rect class="cls-2" x="3" y="1" width="10" height="1"/><rect class="cls-1" x="2" y="1" width="1" height="1"/><rect class="cls-1" x="3" width="10" height="1"/></svg>