<svg id="Layer_1" data-name="Layer 1" xmlns="http://www.w3.org/2000/svg" viewBox="0 0 16 16"><defs><style>.cls-1{fill:#f7feff;}.cls-2{fill:#231e2b;}.cls-3{fill:#acc756;}.cls-4{fill:#4fab59;}.cls-5{fill:#356e69;}</style></defs><title>broccoli</title><rect class="cls-1" x="6" y="15" width="4" height="1"/><polygon class="cls-2" points="10 11 9 11 9 14 7 14 7 11 6 11 6 15 10 15 10 11"/><polygon class="cls-1" points="6 11 3 11 3 12 5 12 5 15 6 15 6 11"/><rect class="cls-3" x="7" y="12" width="1" height="2"/><polygon class="cls-1" points="10 11 10 15 11 15 11 12 13 12 13 11 10 11"/><polygon class="cls-4" points="7 11 7 12 8 12 8 14 9 14 9 11 7 11"/><rect class="cls-1" x="13" y="10" width="1" height="1"/><rect class="cls-2" x="10" y="10" width="3" height="1"/><rect class="cls-5" x="8" y="10" width="2" height="1"/><rect class="cls-3" x="7" y="10" width="1" height="1"/><rect class="cls-5" x="6" y="10" width="1" height="1"/><rect class="cls-2" x="3" y="10" width="3" height="1"/><rect class="cls-1" x="2" y="10" width="1" height="1"/><rect class="cls-1" x="14" y="9" width="1" height="1"/><rect class="cls-2" x="13" y="9" width="1" height="1"/><rect class="cls-5" x="5" y="9" width="1" height="1"/><rect class="cls-3" x="3" y="9" width="1" height="1"/><rect class="cls-2" x="2" y="8" width="1" height="2"/><rect class="cls-5" x="12" y="8" width="2" height="1"/><rect class="cls-3" x="9" y="8" width="1" height="1"/><rect class="cls-5" x="3" y="8" width="1" height="1"/><rect class="cls-1" x="1" y="8" width="1" height="2"/><rect class="cls-2" x="14" y="5" width="1" height="4"/><rect class="cls-3" x="11" y="7" width="1" height="1"/><rect class="cls-3" x="7" y="7" width="2" height="1"/><rect class="cls-2" x="1" y="6" width="1" height="2"/><path class="cls-4" d="M13,5H12V4H9V5h1V6H9V5H7V4H9V3H6V4H5V3H4V4H3V5H6V6H5V7H4V6H3V7H2V8H4v2H5V9H6v1h7V9H12V8H11V7h1V8h2V7H13ZM10,9H9V8H7V7H9V8h1Z"/><rect class="cls-3" x="4" y="6" width="1" height="1"/><rect class="cls-3" x="2" y="6" width="1" height="1"/><rect class="cls-1" y="6" width="1" height="2"/><rect class="cls-1" x="15" y="5" width="1" height="4"/><rect class="cls-3" x="13" y="5" width="1" height="2"/><rect class="cls-3" x="9" y="5" width="1" height="1"/><rect class="cls-3" x="5" y="5" width="1" height="1"/><rect class="cls-5" x="3" y="5" width="2" height="1"/><rect class="cls-1" x="1" y="3" width="1" height="3"/><rect class="cls-1" x="14" y="4" width="1" height="1"/><rect class="cls-2" x="13" y="4" width="1" height="1"/><rect class="cls-5" x="12" y="4" width="1" height="1"/><rect class="cls-3" x="7" y="4" width="2" height="1"/><rect class="cls-2" x="2" y="3" width="1" height="3"/><rect class="cls-1" x="13" y="3" width="1" height="1"/><rect class="cls-2" x="12" y="3" width="1" height="1"/><rect class="cls-3" x="10" y="3" width="2" height="1"/><rect class="cls-5" x="9" y="3" width="1" height="1"/><rect class="cls-2" x="5" y="3" width="1" height="1"/><rect class="cls-3" x="3" y="3" width="1" height="1"/><rect class="cls-1" x="12" y="2" width="1" height="1"/><rect class="cls-2" x="9" y="2" width="3" height="1"/><rect class="cls-3" x="7" y="2" width="2" height="1"/><rect class="cls-2" x="6" y="2" width="1" height="1"/><rect class="cls-1" x="5" y="2" width="1" height="1"/><rect class="cls-2" x="3" y="2" width="2" height="1"/><rect class="cls-1" x="2" y="2" width="1" height="1"/><rect class="cls-1" x="9" y="1" width="3" height="1"/><rect class="cls-2" x="7" y="1" width="2" height="1"/><rect class="cls-1" x="6" y="1" width="1" height="1"/><rect class="cls-1" x="3" y="1" width="2" height="1"/><rect class="cls-1" x="7" width="2" height="1"/></svg>