<svg id="Layer_1" data-name="Layer 1" xmlns="http://www.w3.org/2000/svg" viewBox="0 0 16 16"><defs><style>.cls-1{fill:#f7feff;}.cls-2{fill:#231e2b;}.cls-3{fill:#b6b7b8;}.cls-4{fill:#998b8c;}</style></defs><title>catering</title><rect class="cls-1" x="2" y="13" width="12" height="1"/><rect class="cls-1" x="14" y="12" width="1" height="1"/><rect class="cls-2" x="2" y="12" width="12" height="1"/><rect class="cls-1" x="1" y="12" width="1" height="1"/><rect class="cls-1" x="15" y="11" width="1" height="1"/><rect class="cls-2" x="14" y="11" width="1" height="1"/><rect class="cls-3" x="2" y="11" width="12" height="1"/><rect class="cls-2" x="1" y="11" width="1" height="1"/><rect class="cls-1" y="11" width="1" height="1"/><rect class="cls-4" x="3" y="10" width="10" height="1"/><rect class="cls-1" x="1" y="7" width="1" height="4"/><path class="cls-3" d="M13,10V7H12V6H4V7H3v3ZM11,7V8h1V9H11V8H10V7Z"/><rect class="cls-1" x="14" y="7" width="1" height="4"/><rect class="cls-1" x="11" y="8" width="1" height="1"/><rect class="cls-2" x="2" y="7" width="1" height="4"/><rect class="cls-2" x="13" y="7" width="1" height="4"/><rect class="cls-1" x="10" y="7" width="1" height="1"/><rect class="cls-1" x="13" y="6" width="1" height="1"/><rect class="cls-2" x="12" y="6" width="1" height="1"/><rect class="cls-2" x="3" y="6" width="1" height="1"/><rect class="cls-1" x="2" y="6" width="1" height="1"/><rect class="cls-1" x="12" y="5" width="1" height="1"/><polygon class="cls-2" points="12 6 12 5 10 5 10 4 9 4 9 5 7 5 7 4 6 4 6 5 4 5 4 6 12 6"/><rect class="cls-1" x="3" y="5" width="1" height="1"/><rect class="cls-1" x="10" y="4" width="2" height="1"/><rect class="cls-1" x="7" y="4" width="2" height="1"/><rect class="cls-1" x="4" y="4" width="2" height="1"/><rect class="cls-1" x="9" y="3" width="1" height="1"/><rect class="cls-2" x="7" y="3" width="2" height="1"/><rect class="cls-1" x="6" y="3" width="1" height="1"/><rect class="cls-1" x="7" y="2" width="2" height="1"/></svg>