<svg id="Layer_1" data-name="Layer 1" xmlns="http://www.w3.org/2000/svg" viewBox="0 0 16 16"><defs><style>.cls-1{fill:#f7feff;}.cls-2{fill:#231e2b;}.cls-3{fill:#cf8934;}.cls-4{fill:#e2b436;}.cls-5{fill:#f5f38e;}</style></defs><title>cheess</title><rect class="cls-1" x="2" y="15" width="12" height="1"/><rect class="cls-1" x="14" y="14" width="1" height="1"/><rect class="cls-2" x="2" y="14" width="12" height="1"/><rect class="cls-1" x="1" y="14" width="1" height="1"/><rect class="cls-3" x="10" y="13" width="1" height="1"/><rect class="cls-3" x="3" y="13" width="1" height="1"/><rect class="cls-2" x="1" y="5" width="1" height="9"/><rect class="cls-2" x="14" y="5" width="1" height="9"/><rect class="cls-3" x="13" y="12" width="1" height="2"/><rect class="cls-1" y="5" width="1" height="9"/><rect class="cls-3" x="6" y="11" width="2" height="2"/><rect class="cls-3" x="4" y="10" width="1" height="1"/><rect class="cls-3" x="10" y="8" width="2" height="2"/><rect class="cls-3" x="3" y="7" width="2" height="2"/><rect class="cls-3" x="8" y="7" width="1" height="1"/><path class="cls-4" d="M8,6V5H7V6H2v8H3V13H4v1h6V13h1v1h2V12h1V6Zm4,4H10V8h2ZM5,11H4V10H5ZM9,7V8H8V7ZM3,7H5V9H3Zm3,6V11H8v2Z"/><rect class="cls-1" x="15" y="5" width="1" height="9"/><rect class="cls-1" x="14" y="4" width="1" height="1"/><rect class="cls-2" x="13" y="4" width="1" height="1"/><path class="cls-5" d="M13,4H12V3H11V2H8V3H6V4H5V5H2V6H7V5H8V6h6V5H13ZM10,3V4H9V3Z"/><rect class="cls-4" x="4" y="4" width="1" height="1"/><rect class="cls-2" x="2" y="4" width="2" height="1"/><rect class="cls-1" x="1" y="4" width="1" height="1"/><rect class="cls-1" x="13" y="3" width="1" height="1"/><rect class="cls-2" x="12" y="3" width="1" height="1"/><rect class="cls-4" x="9" y="3" width="1" height="1"/><rect class="cls-2" x="4" y="3" width="2" height="1"/><rect class="cls-1" x="2" y="3" width="2" height="1"/><rect class="cls-1" x="12" y="2" width="1" height="1"/><rect class="cls-2" x="11" y="2" width="1" height="1"/><rect class="cls-2" x="6" y="2" width="2" height="1"/><rect class="cls-1" x="4" y="2" width="2" height="1"/><rect class="cls-1" x="11" y="1" width="1" height="1"/><rect class="cls-2" x="8" y="1" width="3" height="1"/><rect class="cls-1" x="6" y="1" width="2" height="1"/><rect class="cls-1" x="8" width="3" height="1"/></svg>