<svg id="Layer_1" data-name="Layer 1" xmlns="http://www.w3.org/2000/svg" viewBox="0 0 16 16"><defs><style>.cls-1{fill:#f7feff;}.cls-2{fill:#231e2b;}.cls-3{fill:#484085;}.cls-4{fill:#b6b7b8;}.cls-5{fill:#b0392e;}.cls-6{fill:#892727;}.cls-7{fill:#cf8934;}.cls-8{fill:#6f59ab;}.cls-9{fill:#e2b436;}.cls-10{fill:#927bb3;}</style></defs><title>clock</title><rect class="cls-1" x="3" y="15" width="10" height="1"/><rect class="cls-1" x="13" y="14" width="1" height="1"/><rect class="cls-2" x="3" y="14" width="10" height="1"/><rect class="cls-1" x="2" y="14" width="1" height="1"/><rect class="cls-1" x="14" y="13" width="1" height="1"/><rect class="cls-2" x="13" y="13" width="1" height="1"/><rect class="cls-2" x="2" y="13" width="1" height="1"/><rect class="cls-1" x="1" y="13" width="1" height="1"/><rect class="cls-2" x="4" y="12" width="8" height="1"/><rect class="cls-2" x="1" y="3" width="1" height="10"/><rect class="cls-2" x="14" y="3" width="1" height="10"/><polygon class="cls-3" points="13 12 12 12 12 13 4 13 4 12 3 12 3 9 2 9 2 13 3 13 3 14 13 14 13 13 14 13 14 11 13 11 13 12"/><rect class="cls-4" x="11" y="11" width="1" height="1"/><rect class="cls-4" x="7" y="11" width="2" height="1"/><rect class="cls-4" x="4" y="11" width="1" height="1"/><rect class="cls-1" y="3" width="1" height="10"/><rect class="cls-5" x="7" y="10" width="2" height="1"/><rect class="cls-2" x="3" y="4" width="1" height="8"/><rect class="cls-6" x="7" y="9" width="2" height="1"/><rect class="cls-4" x="9" y="8" width="1" height="1"/><polygon class="cls-7" points="9 9 9 8 8 8 8 7 7 7 7 9 9 9"/><polygon class="cls-8" points="3 4 4 4 4 3 8 3 8 2 3 2 3 3 2 3 2 9 3 9 3 4"/><rect class="cls-4" x="10" y="7" width="1" height="1"/><rect class="cls-9" x="8" y="7" width="1" height="1"/><rect class="cls-8" x="13" y="6" width="1" height="5"/><polygon class="cls-1" points="11 8 10 8 10 9 9 9 9 12 11 12 11 11 12 11 12 5 11 5 11 8"/><rect class="cls-2" x="12" y="4" width="1" height="8"/><polygon class="cls-2" points="9 5 9 6 8 6 8 7 9 7 9 8 10 8 10 7 11 7 11 5 9 5"/><polygon class="cls-1" points="4 5 4 11 5 11 5 12 7 12 7 7 8 7 8 6 9 6 9 5 11 5 11 4 5 4 5 5 4 5"/><rect class="cls-4" x="11" y="4" width="1" height="1"/><rect class="cls-4" x="4" y="4" width="1" height="1"/><rect class="cls-1" x="15" y="3" width="1" height="10"/><rect class="cls-2" x="4" y="3" width="8" height="1"/><rect class="cls-1" x="14" y="2" width="1" height="1"/><rect class="cls-2" x="13" y="2" width="1" height="1"/><polygon class="cls-10" points="13 2 8 2 8 3 12 3 12 4 13 4 13 6 14 6 14 3 13 3 13 2"/><rect class="cls-2" x="2" y="2" width="1" height="1"/><rect class="cls-1" x="1" y="2" width="1" height="1"/><rect class="cls-1" x="13" y="1" width="1" height="1"/><rect class="cls-2" x="3" y="1" width="10" height="1"/><rect class="cls-1" x="2" y="1" width="1" height="1"/><rect class="cls-1" x="3" width="10" height="1"/></svg>