<svg id="Layer_1" data-name="Layer 1" xmlns="http://www.w3.org/2000/svg" viewBox="0 0 16 16"><defs><style>.cls-1{fill:#f7feff;}.cls-2{fill:#231e2b;}.cls-3{fill:#b6b7b8;}.cls-4{fill:#b0392e;}.cls-5{fill:#892727;}.cls-6{fill:#c2751d;}.cls-7{fill:#e2b436;}.cls-8{fill:#5d87da;}.cls-9{fill:#5eb0db;}</style></defs><title>compass</title><rect class="cls-1" x="6" y="15" width="4" height="1"/><rect class="cls-1" x="10" y="14" width="2" height="1"/><rect class="cls-2" x="6" y="14" width="4" height="1"/><rect class="cls-1" x="4" y="14" width="2" height="1"/><rect class="cls-1" x="12" y="13" width="1" height="1"/><rect class="cls-2" x="10" y="13" width="2" height="1"/><rect class="cls-2" x="4" y="13" width="2" height="1"/><rect class="cls-1" x="3" y="13" width="1" height="1"/><rect class="cls-1" x="13" y="12" width="1" height="1"/><rect class="cls-2" x="12" y="12" width="1" height="1"/><polygon class="cls-3" points="9 12 9 13 7 13 7 12 4 12 4 13 6 13 6 14 10 14 10 13 12 13 12 12 9 12"/><rect class="cls-2" x="7" y="12" width="2" height="1"/><rect class="cls-2" x="3" y="12" width="1" height="1"/><rect class="cls-1" x="2" y="12" width="1" height="1"/><rect class="cls-3" x="12" y="11" width="1" height="1"/><rect class="cls-4" x="7" y="11" width="2" height="1"/><path class="cls-2" d="M7,10H9v2h1V4H9V6H7V4H6v8H7ZM7,7H9V9H7Z"/><rect class="cls-3" x="3" y="11" width="1" height="1"/><rect class="cls-2" x="2" y="10" width="1" height="2"/><rect class="cls-1" x="14" y="10" width="1" height="2"/><rect class="cls-2" x="13" y="10" width="1" height="2"/><rect class="cls-5" x="7" y="10" width="2" height="1"/><rect class="cls-1" x="1" y="10" width="1" height="2"/><rect class="cls-3" x="13" y="9" width="1" height="1"/><rect class="cls-3" x="2" y="9" width="1" height="1"/><rect class="cls-2" x="1" y="6" width="1" height="4"/><rect class="cls-2" x="14" y="6" width="1" height="4"/><rect class="cls-6" x="7" y="8" width="2" height="1"/><rect class="cls-1" y="6" width="1" height="4"/><rect class="cls-7" x="7" y="7" width="2" height="1"/><rect class="cls-1" x="15" y="6" width="1" height="4"/><rect class="cls-3" x="13" y="6" width="1" height="1"/><polygon class="cls-1" points="13 5 12 5 12 4 11 4 11 3 10 3 10 2 6 2 6 3 5 3 5 4 4 4 4 5 3 5 3 7 2 7 2 9 3 9 3 11 4 11 4 12 6 12 6 4 7 4 7 3 9 3 9 4 10 4 10 12 12 12 12 11 13 11 13 9 14 9 14 7 13 7 13 5"/><rect class="cls-3" x="2" y="6" width="1" height="1"/><rect class="cls-1" x="14" y="4" width="1" height="2"/><polygon class="cls-8" points="7 6 9 6 9 5 8 5 8 4 7 4 7 6"/><rect class="cls-2" x="2" y="4" width="1" height="2"/><rect class="cls-1" x="1" y="4" width="1" height="2"/><rect class="cls-2" x="13" y="4" width="1" height="2"/><rect class="cls-3" x="12" y="4" width="1" height="1"/><rect class="cls-9" x="8" y="4" width="1" height="1"/><rect class="cls-3" x="3" y="4" width="1" height="1"/><rect class="cls-1" x="13" y="3" width="1" height="1"/><rect class="cls-2" x="12" y="3" width="1" height="1"/><rect class="cls-3" x="11" y="3" width="1" height="1"/><rect class="cls-2" x="7" y="3" width="2" height="1"/><rect class="cls-3" x="4" y="3" width="1" height="1"/><rect class="cls-2" x="3" y="3" width="1" height="1"/><rect class="cls-1" x="2" y="3" width="1" height="1"/><rect class="cls-1" x="12" y="2" width="1" height="1"/><rect class="cls-2" x="10" y="2" width="2" height="1"/><rect class="cls-2" x="4" y="2" width="2" height="1"/><rect class="cls-1" x="3" y="2" width="1" height="1"/><rect class="cls-1" x="10" y="1" width="2" height="1"/><rect class="cls-2" x="6" y="1" width="4" height="1"/><rect class="cls-1" x="4" y="1" width="2" height="1"/><rect class="cls-1" x="6" width="4" height="1"/></svg>