<svg id="Layer_1" data-name="Layer 1" xmlns="http://www.w3.org/2000/svg" viewBox="0 0 16 16"><defs><style>.cls-1{fill:#f7feff;}.cls-2{fill:#231e2b;}.cls-3{fill:#e2b436;}.cls-4{fill:#f5f38e;}.cls-5{fill:#cf8934;}</style></defs><title>crown</title><rect class="cls-1" x="1" y="14" width="14" height="1"/><polygon class="cls-2" points="15 3 13 3 13 4 14 4 14 13 2 13 2 4 3 4 3 3 1 3 1 14 15 14 15 3"/><rect class="cls-3" x="2" y="12" width="12" height="1"/><rect class="cls-1" y="3" width="1" height="11"/><rect class="cls-4" x="2" y="11" width="12" height="1"/><rect class="cls-5" x="2" y="10" width="12" height="1"/><rect class="cls-4" x="10" y="7" width="1" height="1"/><rect class="cls-5" x="9" y="7" width="1" height="1"/><rect class="cls-5" x="6" y="7" width="1" height="1"/><rect class="cls-4" x="5" y="7" width="1" height="1"/><rect class="cls-4" x="11" y="6" width="1" height="1"/><polygon class="cls-2" points="10 7 11 7 11 6 12 6 12 5 10 5 10 7"/><rect class="cls-4" x="9" y="5" width="1" height="2"/><rect class="cls-4" x="6" y="5" width="1" height="2"/><rect class="cls-4" x="4" y="6" width="1" height="1"/><polygon class="cls-3" points="13 6 12 6 12 7 11 7 11 8 9 8 9 4 8 4 8 5 7 5 7 8 5 8 5 7 4 7 4 6 3 6 3 5 2 5 2 10 14 10 14 5 13 5 13 6"/><rect class="cls-4" x="12" y="5" width="1" height="1"/><polygon class="cls-2" points="5 6 5 7 6 7 6 5 4 5 4 6 5 6"/><rect class="cls-4" x="3" y="5" width="1" height="1"/><rect class="cls-4" x="13" y="4" width="1" height="1"/><rect class="cls-2" x="12" y="4" width="1" height="1"/><polygon class="cls-1" points="10 5 12 5 12 4 11 4 11 3 10 3 10 5"/><polygon class="cls-4" points="8 4 9 4 9 3 7 3 7 5 8 5 8 4"/><rect class="cls-2" x="6" y="3" width="1" height="2"/><polygon class="cls-1" points="6 5 6 3 5 3 5 4 4 4 4 5 6 5"/><rect class="cls-2" x="3" y="4" width="1" height="1"/><rect class="cls-4" x="2" y="4" width="1" height="1"/><rect class="cls-1" x="15" y="3" width="1" height="11"/><rect class="cls-1" x="12" y="3" width="1" height="1"/><rect class="cls-2" x="9" y="3" width="1" height="2"/><rect class="cls-1" x="3" y="3" width="1" height="1"/><rect class="cls-1" x="13" y="2" width="2" height="1"/><rect class="cls-1" x="9" y="2" width="1" height="1"/><rect class="cls-2" x="7" y="2" width="2" height="1"/><rect class="cls-1" x="6" y="2" width="1" height="1"/><rect class="cls-1" x="1" y="2" width="2" height="1"/><rect class="cls-1" x="7" y="1" width="2" height="1"/></svg>