<svg id="Layer_1" data-name="Layer 1" xmlns="http://www.w3.org/2000/svg" viewBox="0 0 16 16"><defs><style>.cls-1{fill:#f7feff;}.cls-2{fill:#231e2b;}.cls-3{fill:#9d6753;}.cls-4{fill:#c7936b;}.cls-5{fill:#e8be9b;}.cls-6{fill:#b6b7b8;}.cls-7{fill:#47414d;}.cls-8{fill:#36313b;}</style></defs><title>cruelty_free</title><rect class="cls-1" x="5" y="15" width="7" height="1"/><polygon class="cls-2" points="12 12 11 12 11 14 6 14 6 12 4 12 4 13 5 13 5 15 12 15 12 12"/><rect class="cls-1" x="4" y="13" width="1" height="2"/><rect class="cls-1" x="12" y="12" width="1" height="3"/><rect class="cls-3" x="8" y="10" width="1" height="4"/><polygon class="cls-4" points="8 9 7 9 7 10 4 10 4 11 6 11 6 14 8 14 8 9"/><rect class="cls-1" x="3" y="12" width="1" height="1"/><rect class="cls-1" x="13" y="11" width="1" height="1"/><rect class="cls-2" x="12" y="11" width="1" height="1"/><rect class="cls-3" x="11" y="11" width="1" height="1"/><rect class="cls-3" x="4" y="11" width="2" height="1"/><rect class="cls-2" x="3" y="11" width="1" height="1"/><rect class="cls-1" x="2" y="11" width="1" height="1"/><rect class="cls-1" x="14" y="10" width="1" height="1"/><rect class="cls-2" x="13" y="10" width="1" height="1"/><rect class="cls-3" x="12" y="10" width="1" height="1"/><polygon class="cls-4" points="9 10 9 14 11 14 11 11 12 11 12 10 9 10"/><rect class="cls-3" x="3" y="10" width="1" height="1"/><rect class="cls-2" x="2" y="10" width="1" height="1"/><rect class="cls-1" x="1" y="10" width="1" height="1"/><rect class="cls-3" x="13" y="9" width="1" height="1"/><rect class="cls-4" x="12" y="9" width="1" height="1"/><rect class="cls-5" x="11" y="9" width="1" height="1"/><rect class="cls-2" x="10" y="9" width="1" height="1"/><rect class="cls-5" x="9" y="9" width="1" height="1"/><rect class="cls-2" x="6" y="9" width="1" height="1"/><rect class="cls-5" x="4" y="9" width="2" height="1"/><rect class="cls-4" x="3" y="9" width="1" height="1"/><rect class="cls-3" x="2" y="9" width="1" height="1"/><rect class="cls-2" x="1" y="6" width="1" height="4"/><rect class="cls-2" x="14" y="6" width="1" height="4"/><rect class="cls-4" x="13" y="8" width="1" height="1"/><rect class="cls-5" x="12" y="8" width="1" height="1"/><rect class="cls-2" x="11" y="8" width="1" height="1"/><rect class="cls-5" x="10" y="8" width="1" height="1"/><polygon class="cls-2" points="10 9 10 8 7 8 7 9 8 9 8 10 9 10 9 9 10 9"/><rect class="cls-5" x="6" y="8" width="1" height="1"/><rect class="cls-2" x="4" y="8" width="2" height="1"/><rect class="cls-5" x="3" y="8" width="1" height="1"/><rect class="cls-4" x="2" y="8" width="1" height="1"/><rect class="cls-1" y="6" width="1" height="4"/><rect class="cls-6" x="11" y="7" width="1" height="1"/><rect class="cls-2" x="10" y="7" width="1" height="1"/><rect class="cls-6" x="9" y="7" width="1" height="1"/><rect class="cls-6" x="7" y="7" width="1" height="1"/><rect class="cls-2" x="6" y="7" width="1" height="1"/><rect class="cls-6" x="4" y="7" width="2" height="1"/><rect class="cls-2" x="3" y="6" width="1" height="2"/><rect class="cls-5" x="2" y="6" width="1" height="2"/><rect class="cls-1" x="15" y="6" width="1" height="4"/><rect class="cls-5" x="13" y="6" width="1" height="2"/><rect class="cls-2" x="12" y="6" width="1" height="2"/><rect class="cls-1" x="14" y="5" width="1" height="1"/><rect class="cls-2" x="13" y="5" width="1" height="1"/><rect class="cls-6" x="12" y="5" width="1" height="1"/><rect class="cls-2" x="4" y="5" width="1" height="1"/><polygon class="cls-1" points="4 5 5 5 5 6 4 6 4 7 8 7 8 8 9 8 9 7 12 7 12 4 7 4 7 5 6 5 6 3 4 3 4 4 3 4 3 6 4 6 4 5"/><rect class="cls-2" x="2" y="4" width="1" height="2"/><rect class="cls-1" x="1" y="4" width="1" height="2"/><rect class="cls-1" x="13" y="4" width="1" height="1"/><rect class="cls-2" x="12" y="4" width="1" height="1"/><rect class="cls-7" x="6" y="4" width="1" height="1"/><rect class="cls-1" x="12" y="3" width="1" height="1"/><rect class="cls-8" x="8" y="3" width="2" height="1"/><rect class="cls-7" x="7" y="3" width="1" height="1"/><rect class="cls-6" x="6" y="3" width="1" height="1"/><rect class="cls-2" x="3" y="3" width="1" height="1"/><rect class="cls-1" x="2" y="3" width="1" height="1"/><rect class="cls-1" x="11" y="2" width="1" height="1"/><polygon class="cls-2" points="10 4 12 4 12 3 11 3 11 2 10 2 10 4"/><rect class="cls-6" x="9" y="2" width="1" height="1"/><rect class="cls-1" x="6" y="2" width="3" height="1"/><rect class="cls-2" x="4" y="2" width="2" height="1"/><rect class="cls-1" x="3" y="2" width="1" height="1"/><rect class="cls-1" x="10" y="1" width="1" height="1"/><rect class="cls-2" x="6" y="1" width="4" height="1"/><rect class="cls-1" x="4" y="1" width="2" height="1"/><rect class="cls-1" x="6" width="4" height="1"/></svg>