<svg id="Layer_1" data-name="Layer 1" xmlns="http://www.w3.org/2000/svg" viewBox="0 0 16 16"><defs><style>.cls-1{fill:#f7feff;}.cls-2{fill:#231e2b;}.cls-3{fill:#b6b7b8;}</style></defs><title>cup</title><rect class="cls-1" x="3" y="13" width="8" height="1"/><rect class="cls-1" x="11" y="12" width="1" height="1"/><rect class="cls-2" x="3" y="12" width="8" height="1"/><rect class="cls-1" x="2" y="12" width="1" height="1"/><rect class="cls-1" x="12" y="11" width="1" height="1"/><rect class="cls-2" x="11" y="11" width="1" height="1"/><rect class="cls-3" x="3" y="11" width="8" height="1"/><rect class="cls-2" x="2" y="11" width="1" height="1"/><rect class="cls-1" x="1" y="11" width="1" height="1"/><rect class="cls-1" x="13" y="10" width="1" height="1"/><rect class="cls-2" x="12" y="10" width="1" height="1"/><rect class="cls-3" x="11" y="10" width="1" height="1"/><rect class="cls-3" x="2" y="10" width="1" height="1"/><polygon class="cls-2" points="2 6 14 6 14 5 1 5 1 11 2 11 2 6"/><rect class="cls-1" x="14" y="9" width="1" height="1"/><rect class="cls-2" x="13" y="9" width="1" height="1"/><rect class="cls-3" x="12" y="9" width="1" height="1"/><rect class="cls-1" y="5" width="1" height="6"/><polygon class="cls-1" points="12 6 2 6 2 10 3 10 3 11 11 11 11 10 12 10 12 6"/><rect class="cls-2" x="14" y="6" width="1" height="3"/><rect class="cls-2" x="12" y="7" width="1" height="2"/><rect class="cls-1" x="15" y="6" width="1" height="3"/><rect class="cls-1" x="13" y="6" width="1" height="3"/><rect class="cls-3" x="12" y="6" width="1" height="1"/><rect class="cls-1" x="14" y="5" width="1" height="1"/><rect class="cls-1" x="1" y="4" width="13" height="1"/></svg>