<svg id="Layer_1" data-name="Layer 1" xmlns="http://www.w3.org/2000/svg" viewBox="0 0 16 16"><defs><style>.cls-1{fill:#f7feff;}.cls-2{fill:#231e2b;}.cls-3{fill:#cf6b55;}.cls-4{fill:#b0392e;}.cls-5{fill:#892727;}</style></defs><title>female</title><rect class="cls-1" x="4" y="15" width="8" height="1"/><rect class="cls-1" x="12" y="14" width="1" height="1"/><rect class="cls-2" x="4" y="14" width="8" height="1"/><rect class="cls-1" x="3" y="14" width="1" height="1"/><rect class="cls-1" x="13" y="12" width="1" height="2"/><rect class="cls-2" x="3" y="12" width="1" height="2"/><rect class="cls-2" x="12" y="12" width="1" height="2"/><rect class="cls-3" x="11" y="12" width="1" height="1"/><rect class="cls-3" x="4" y="12" width="1" height="1"/><rect class="cls-1" x="2" y="12" width="1" height="2"/><rect class="cls-1" x="12" y="10" width="1" height="2"/><rect class="cls-2" x="4" y="10" width="1" height="2"/><rect class="cls-1" x="3" y="10" width="1" height="2"/><rect class="cls-2" x="11" y="10" width="1" height="2"/><rect class="cls-3" x="10" y="10" width="1" height="1"/><rect class="cls-3" x="5" y="10" width="1" height="1"/><rect class="cls-1" x="11" y="8" width="1" height="2"/><rect class="cls-2" x="5" y="8" width="1" height="2"/><rect class="cls-1" x="4" y="8" width="1" height="2"/><rect class="cls-2" x="10" y="8" width="1" height="2"/><rect class="cls-3" x="9" y="8" width="1" height="1"/><polygon class="cls-4" points="9 8 7 8 7 9 6 9 6 11 5 11 5 13 4 13 4 14 12 14 12 13 11 13 11 11 10 11 10 9 9 9 9 8"/><rect class="cls-3" x="6" y="8" width="1" height="1"/><rect class="cls-1" x="10" y="7" width="1" height="1"/><rect class="cls-2" x="9" y="7" width="1" height="1"/><polygon class="cls-5" points="7 8 9 8 9 7 10 7 10 6 6 6 6 7 7 7 7 8"/><rect class="cls-2" x="6" y="7" width="1" height="1"/><rect class="cls-1" x="5" y="7" width="1" height="1"/><rect class="cls-1" x="11" y="6" width="1" height="1"/><rect class="cls-2" x="10" y="6" width="1" height="1"/><rect class="cls-2" x="5" y="6" width="1" height="1"/><rect class="cls-1" x="4" y="6" width="1" height="1"/><rect class="cls-5" x="10" y="5" width="1" height="1"/><polygon class="cls-4" points="10 6 10 5 11 5 11 4 10 4 10 3 6 3 6 4 5 4 5 5 6 5 6 6 10 6"/><rect class="cls-5" x="5" y="5" width="1" height="1"/><rect class="cls-2" x="4" y="3" width="1" height="3"/><rect class="cls-1" x="12" y="3" width="1" height="3"/><rect class="cls-1" x="3" y="3" width="1" height="3"/><rect class="cls-2" x="11" y="3" width="1" height="3"/><rect class="cls-3" x="10" y="3" width="1" height="1"/><rect class="cls-3" x="5" y="3" width="1" height="1"/><rect class="cls-1" x="11" y="2" width="1" height="1"/><rect class="cls-2" x="10" y="2" width="1" height="1"/><rect class="cls-3" x="6" y="2" width="4" height="1"/><rect class="cls-2" x="5" y="2" width="1" height="1"/><rect class="cls-1" x="4" y="2" width="1" height="1"/><rect class="cls-1" x="10" y="1" width="1" height="1"/><rect class="cls-2" x="6" y="1" width="4" height="1"/><rect class="cls-1" x="5" y="1" width="1" height="1"/><rect class="cls-1" x="6" width="4" height="1"/></svg>