<svg id="Layer_1" data-name="Layer 1" xmlns="http://www.w3.org/2000/svg" viewBox="0 0 16 16"><defs><style>.cls-1{fill:#f7feff;}.cls-2{fill:#231e2b;}.cls-3{fill:#4fab59;}.cls-4{fill:#356e69;}.cls-5{fill:#acc756;}.cls-6{fill:#c7936b;}.cls-7{fill:#e8be9b;}</style></defs><title>fist</title><rect class="cls-1" x="2" y="14" width="13" height="1"/><path class="cls-2" d="M15,3H14V9H2v5H15ZM3,13V10H14v3Z"/><rect class="cls-1" x="1" y="9" width="1" height="5"/><polygon class="cls-3" points="14 11 12 11 12 12 11 12 11 11 3 11 3 13 14 13 14 11"/><rect class="cls-4" x="11" y="11" width="1" height="1"/><rect class="cls-5" x="3" y="10" width="11" height="1"/><rect class="cls-6" x="2" y="8" width="12" height="1"/><rect class="cls-2" x="1" y="7" width="1" height="2"/><rect class="cls-1" y="7" width="1" height="2"/><rect class="cls-1" x="1" y="3" width="1" height="4"/><rect class="cls-2" x="2" y="3" width="1" height="4"/><rect class="cls-1" x="15" y="3" width="1" height="11"/><polygon class="cls-7" points="12 3 12 4 11 4 11 3 9 3 9 4 8 4 8 3 6 3 6 4 5 4 5 3 3 3 3 7 2 7 2 8 14 8 14 3 12 3"/><rect class="cls-2" x="11" y="3" width="1" height="1"/><rect class="cls-2" x="8" y="3" width="1" height="1"/><rect class="cls-2" x="5" y="3" width="1" height="1"/><rect class="cls-1" x="14" y="2" width="1" height="1"/><rect class="cls-2" x="12" y="2" width="2" height="1"/><rect class="cls-1" x="11" y="2" width="1" height="1"/><rect class="cls-2" x="9" y="2" width="2" height="1"/><rect class="cls-1" x="8" y="2" width="1" height="1"/><rect class="cls-2" x="6" y="2" width="2" height="1"/><rect class="cls-1" x="5" y="2" width="1" height="1"/><rect class="cls-2" x="3" y="2" width="2" height="1"/><rect class="cls-1" x="2" y="2" width="1" height="1"/><rect class="cls-1" x="12" y="1" width="2" height="1"/><rect class="cls-1" x="9" y="1" width="2" height="1"/><rect class="cls-1" x="6" y="1" width="2" height="1"/><rect class="cls-1" x="3" y="1" width="2" height="1"/></svg>