<svg id="Layer_1" data-name="Layer 1" xmlns="http://www.w3.org/2000/svg" viewBox="0 0 16 16"><defs><style>.cls-1{fill:#f7feff;}.cls-2{fill:#231e2b;}.cls-3{fill:#b0392e;}.cls-4{fill:#cf6b55;}.cls-5{fill:#b6b7b8;}.cls-6{fill:#cccecf;}</style></defs><title>fork_knife</title><rect class="cls-1" x="11" y="15" width="1" height="1"/><rect class="cls-1" x="5" y="15" width="1" height="1"/><rect class="cls-1" x="12" y="14" width="1" height="1"/><rect class="cls-2" x="11" y="14" width="1" height="1"/><rect class="cls-1" x="10" y="14" width="1" height="1"/><rect class="cls-1" x="6" y="14" width="1" height="1"/><rect class="cls-2" x="5" y="14" width="1" height="1"/><rect class="cls-1" x="4" y="14" width="1" height="1"/><rect class="cls-2" x="10" y="10" width="1" height="4"/><rect class="cls-2" x="4" y="8" width="1" height="6"/><polygon class="cls-2" points="13 1 10 1 10 2 12 2 12 14 13 14 13 1"/><rect class="cls-1" x="9" y="10" width="1" height="4"/><rect class="cls-2" x="6" y="8" width="1" height="6"/><rect class="cls-1" x="3" y="8" width="1" height="6"/><rect class="cls-3" x="11" y="11" width="1" height="3"/><rect class="cls-4" x="11" y="10" width="1" height="1"/><rect class="cls-2" x="9" y="2" width="1" height="8"/><rect class="cls-3" x="5" y="9" width="1" height="5"/><polygon class="cls-1" points="9 2 10 2 10 1 8 1 8 6 7 6 7 7 6 7 6 8 7 8 7 14 8 14 8 10 9 10 9 2"/><rect class="cls-4" x="5" y="8" width="1" height="1"/><polygon class="cls-2" points="5 8 6 8 6 7 7 7 7 6 6 6 6 1 5 1 5 6 4 6 4 7 5 7 5 8"/><rect class="cls-1" x="4" y="7" width="1" height="1"/><rect class="cls-1" x="3" y="6" width="1" height="1"/><rect class="cls-2" x="3" y="1" width="1" height="5"/><rect class="cls-1" x="2" y="1" width="1" height="5"/><polygon class="cls-5" points="11 4 10 4 10 10 12 10 12 3 11 3 11 4"/><polygon class="cls-6" points="10 4 11 4 11 3 12 3 12 2 10 2 10 4"/><rect class="cls-2" x="7" y="1" width="1" height="5"/><rect class="cls-1" x="6" y="1" width="1" height="5"/><rect class="cls-1" x="4" y="1" width="1" height="5"/><rect class="cls-1" x="13" y="1" width="1" height="13"/><rect class="cls-1" x="10" width="3" height="1"/><rect class="cls-1" x="7" width="1" height="1"/><rect class="cls-1" x="5" width="1" height="1"/><rect class="cls-1" x="3" width="1" height="1"/></svg>