<svg id="Layer_1" data-name="Layer 1" xmlns="http://www.w3.org/2000/svg" viewBox="0 0 16 16"><defs><style>.cls-1{fill:#f7feff;}.cls-2{fill:#231e2b;}.cls-3{fill:#356e69;}.cls-4{fill:#acc756;}.cls-5{fill:#4fab59;}.cls-6{fill:#b6b7b8;}.cls-7{fill:#47414d;}</style></defs><title>green_liquid</title><rect class="cls-1" x="2" y="15" width="12" height="1"/><rect class="cls-1" x="14" y="14" width="1" height="1"/><rect class="cls-2" x="2" y="14" width="12" height="1"/><rect class="cls-1" x="1" y="14" width="1" height="1"/><rect class="cls-3" x="2" y="13" width="12" height="1"/><rect class="cls-2" x="1" y="12" width="1" height="2"/><rect class="cls-1" x="15" y="12" width="1" height="2"/><rect class="cls-2" x="14" y="12" width="1" height="2"/><rect class="cls-4" x="13" y="12" width="1" height="1"/><rect class="cls-4" x="7" y="12" width="1" height="1"/><path class="cls-5" d="M7,13V12H8v1h5V12H12V11H11V10H10V9H6v1H5v1H6v1H5V11H4v1H3v1Zm3-1H9V11h1Z"/><rect class="cls-4" x="2" y="12" width="1" height="1"/><rect class="cls-1" y="12" width="1" height="2"/><rect class="cls-1" x="14" y="11" width="1" height="1"/><rect class="cls-2" x="13" y="11" width="1" height="1"/><rect class="cls-4" x="12" y="11" width="1" height="1"/><rect class="cls-4" x="9" y="11" width="1" height="1"/><rect class="cls-4" x="5" y="11" width="1" height="1"/><rect class="cls-4" x="3" y="11" width="1" height="1"/><rect class="cls-2" x="2" y="11" width="1" height="1"/><rect class="cls-1" x="1" y="11" width="1" height="1"/><rect class="cls-1" x="13" y="10" width="1" height="1"/><rect class="cls-2" x="12" y="10" width="1" height="1"/><rect class="cls-4" x="11" y="10" width="1" height="1"/><rect class="cls-4" x="4" y="10" width="1" height="1"/><rect class="cls-2" x="3" y="10" width="1" height="1"/><rect class="cls-1" x="2" y="10" width="1" height="1"/><rect class="cls-1" x="12" y="9" width="1" height="1"/><rect class="cls-2" x="11" y="9" width="1" height="1"/><rect class="cls-4" x="10" y="9" width="1" height="1"/><rect class="cls-4" x="5" y="9" width="1" height="1"/><rect class="cls-2" x="4" y="9" width="1" height="1"/><rect class="cls-1" x="3" y="9" width="1" height="1"/><rect class="cls-1" x="11" y="8" width="1" height="1"/><rect class="cls-2" x="10" y="8" width="1" height="1"/><polygon class="cls-1" points="10 9 10 8 9 8 9 5 7 5 7 8 6 8 6 9 10 9"/><rect class="cls-2" x="5" y="8" width="1" height="1"/><rect class="cls-1" x="4" y="8" width="1" height="1"/><rect class="cls-2" x="6" y="3" width="1" height="5"/><rect class="cls-1" x="5" y="3" width="1" height="5"/><rect class="cls-6" x="7" y="4" width="2" height="1"/><rect class="cls-1" x="10" y="3" width="1" height="5"/><rect class="cls-2" x="9" y="3" width="1" height="5"/><rect class="cls-7" x="7" y="3" width="2" height="1"/><rect class="cls-1" x="11" y="1" width="1" height="2"/><rect class="cls-1" x="6" y="2" width="4" height="1"/><polygon class="cls-2" points="6 2 10 2 10 3 11 3 11 1 5 1 5 3 6 3 6 2"/><rect class="cls-1" x="4" y="1" width="1" height="2"/><rect class="cls-1" x="5" width="6" height="1"/></svg>