<svg id="Layer_1" data-name="Layer 1" xmlns="http://www.w3.org/2000/svg" viewBox="0 0 16 16"><defs><style>.cls-1{fill:#f7feff;}.cls-2{fill:#231e2b;}.cls-3{fill:#b0392e;}.cls-4{fill:#cf6b55;}.cls-5{fill:#892727;}.cls-6{fill:#a6644b;}.cls-7{fill:#c7936b;}.cls-8{fill:#b6b7b8;}</style></defs><title>heart_arrow</title><rect class="cls-1" x="13" y="13" width="1" height="1"/><rect class="cls-1" x="14" y="12" width="1" height="1"/><rect class="cls-2" x="13" y="12" width="1" height="1"/><rect class="cls-1" x="12" y="12" width="1" height="1"/><rect class="cls-1" x="7" y="12" width="2" height="1"/><rect class="cls-1" x="15" y="10" width="1" height="2"/><rect class="cls-3" x="13" y="11" width="1" height="1"/><polygon class="cls-2" points="13 10 14 10 14 9 12 9 12 12 13 12 13 10"/><rect class="cls-1" x="9" y="11" width="1" height="1"/><rect class="cls-2" x="7" y="11" width="2" height="1"/><rect class="cls-1" x="6" y="11" width="1" height="1"/><rect class="cls-2" x="14" y="10" width="1" height="2"/><rect class="cls-4" x="13" y="10" width="1" height="1"/><polygon class="cls-1" points="12 9 11 9 11 10 10 10 10 11 11 11 11 12 12 12 12 9"/><rect class="cls-2" x="9" y="10" width="1" height="1"/><rect class="cls-5" x="7" y="10" width="2" height="1"/><rect class="cls-2" x="6" y="10" width="1" height="1"/><rect class="cls-1" x="5" y="10" width="1" height="1"/><rect class="cls-1" x="1" y="10" width="2" height="1"/><rect class="cls-1" x="14" y="9" width="1" height="1"/><rect class="cls-2" x="10" y="9" width="1" height="1"/><rect class="cls-5" x="6" y="9" width="1" height="1"/><rect class="cls-2" x="5" y="9" width="1" height="1"/><rect class="cls-1" x="3" y="9" width="2" height="1"/><polygon class="cls-2" points="2 9 2 8 1 8 1 10 3 10 3 9 2 9"/><rect class="cls-4" x="13" y="8" width="1" height="1"/><rect class="cls-2" x="11" y="8" width="1" height="1"/><polygon class="cls-5" points="9 8 9 10 10 10 10 9 11 9 11 8 9 8"/><polygon class="cls-3" points="9 6 7 6 7 5 5 5 5 7 6 7 6 9 7 9 7 10 9 10 9 6"/><rect class="cls-2" x="3" y="8" width="2" height="1"/><rect class="cls-1" x="2" y="8" width="1" height="1"/><rect class="cls-1" y="8" width="1" height="2"/><rect class="cls-1" x="15" y="7" width="1" height="2"/><rect class="cls-2" x="14" y="7" width="1" height="2"/><rect class="cls-6" x="11" y="7" width="1" height="1"/><rect class="cls-7" x="9" y="7" width="2" height="1"/><rect class="cls-5" x="5" y="7" width="1" height="2"/><rect class="cls-6" x="4" y="7" width="1" height="1"/><rect class="cls-1" x="3" y="7" width="1" height="1"/><rect class="cls-2" x="2" y="7" width="1" height="1"/><rect class="cls-1" x="1" y="7" width="1" height="1"/><rect class="cls-1" x="14" y="6" width="1" height="1"/><rect class="cls-2" x="13" y="6" width="1" height="1"/><polygon class="cls-8" points="13 6 12 6 12 9 13 9 13 8 14 8 14 7 13 7 13 6"/><rect class="cls-5" x="9" y="6" width="3" height="1"/><rect class="cls-5" x="4" y="6" width="1" height="1"/><rect class="cls-1" x="2" y="6" width="1" height="1"/><polygon class="cls-2" points="2 6 3 6 3 7 4 7 4 5 1 5 1 7 2 7 2 6"/><rect class="cls-2" x="12" y="5" width="1" height="1"/><rect class="cls-4" x="11" y="5" width="1" height="1"/><rect class="cls-3" x="9" y="5" width="2" height="1"/><rect class="cls-4" x="7" y="5" width="2" height="1"/><rect class="cls-4" x="4" y="5" width="1" height="1"/><rect class="cls-1" y="5" width="1" height="2"/><polygon class="cls-1" points="13 5 13 6 14 6 14 4 12 4 12 5 13 5"/><rect class="cls-2" x="11" y="4" width="1" height="1"/><rect class="cls-4" x="9" y="4" width="2" height="1"/><rect class="cls-2" x="7" y="4" width="2" height="1"/><rect class="cls-4" x="5" y="4" width="2" height="1"/><rect class="cls-2" x="4" y="4" width="1" height="1"/><rect class="cls-1" x="1" y="4" width="3" height="1"/><rect class="cls-1" x="11" y="3" width="1" height="1"/><rect class="cls-2" x="9" y="3" width="2" height="1"/><rect class="cls-1" x="7" y="3" width="2" height="1"/><rect class="cls-2" x="5" y="3" width="2" height="1"/><rect class="cls-1" x="4" y="3" width="1" height="1"/><rect class="cls-1" x="9" y="2" width="2" height="1"/><rect class="cls-1" x="5" y="2" width="2" height="1"/></svg>