<svg id="Layer_1" data-name="Layer 1" xmlns="http://www.w3.org/2000/svg" viewBox="0 0 16 16"><defs><style>.cls-1{fill:#f7feff;}.cls-2{fill:#231e2b;}.cls-3{fill:#5d80da;}.cls-4{fill:#5eb0db;}.cls-5{fill:#85c7f2;}</style></defs><title>male</title><rect class="cls-1" x="6" y="15" width="4" height="1"/><rect class="cls-1" x="10" y="14" width="1" height="1"/><rect class="cls-2" x="6" y="14" width="4" height="1"/><rect class="cls-1" x="5" y="14" width="1" height="1"/><rect class="cls-3" x="9" y="13" width="1" height="1"/><rect class="cls-3" x="6" y="13" width="1" height="1"/><rect class="cls-2" x="5" y="12" width="1" height="2"/><rect class="cls-1" x="11" y="12" width="1" height="2"/><rect class="cls-2" x="10" y="12" width="1" height="2"/><rect class="cls-1" x="4" y="12" width="1" height="2"/><rect class="cls-3" x="10" y="11" width="1" height="1"/><rect class="cls-3" x="5" y="11" width="1" height="1"/><rect class="cls-2" x="4" y="10" width="1" height="2"/><rect class="cls-1" x="12" y="10" width="1" height="2"/><rect class="cls-2" x="11" y="10" width="1" height="2"/><rect class="cls-1" x="3" y="10" width="1" height="2"/><rect class="cls-3" x="11" y="9" width="1" height="1"/><polygon class="cls-4" points="5 9 5 11 6 11 6 13 7 13 7 14 9 14 9 13 10 13 10 11 11 11 11 9 5 9"/><rect class="cls-3" x="4" y="9" width="1" height="1"/><polygon class="cls-2" points="4 8 7 8 7 7 6 7 6 6 5 6 5 7 3 7 3 10 4 10 4 8"/><rect class="cls-1" x="13" y="7" width="1" height="3"/><rect class="cls-5" x="4" y="8" width="8" height="1"/><rect class="cls-1" x="2" y="7" width="1" height="3"/><polygon class="cls-2" points="11 7 11 6 10 6 10 7 9 7 9 8 12 8 12 10 13 10 13 7 11 7"/><polygon class="cls-3" points="6 6 6 7 7 7 7 8 9 8 9 7 10 7 10 6 6 6"/><polygon class="cls-1" points="5 7 5 6 4 6 4 3 3 3 3 7 5 7"/><rect class="cls-3" x="10" y="5" width="1" height="1"/><rect class="cls-3" x="5" y="5" width="1" height="1"/><polygon class="cls-1" points="12 6 11 6 11 7 13 7 13 3 12 3 12 6"/><rect class="cls-2" x="4" y="3" width="1" height="3"/><rect class="cls-2" x="11" y="3" width="1" height="3"/><rect class="cls-5" x="10" y="3" width="1" height="1"/><polygon class="cls-4" points="6 3 6 4 5 4 5 5 6 5 6 6 10 6 10 5 11 5 11 4 10 4 10 3 6 3"/><rect class="cls-5" x="5" y="3" width="1" height="1"/><rect class="cls-1" x="11" y="2" width="1" height="1"/><rect class="cls-2" x="10" y="2" width="1" height="1"/><rect class="cls-5" x="6" y="2" width="4" height="1"/><rect class="cls-2" x="5" y="2" width="1" height="1"/><rect class="cls-1" x="4" y="2" width="1" height="1"/><rect class="cls-1" x="10" y="1" width="1" height="1"/><rect class="cls-2" x="6" y="1" width="4" height="1"/><rect class="cls-1" x="5" y="1" width="1" height="1"/><rect class="cls-1" x="6" width="4" height="1"/></svg>