<svg id="Layer_1" data-name="Layer 1" xmlns="http://www.w3.org/2000/svg" viewBox="0 0 16 16"><defs><style>.cls-1{fill:#f7feff;}.cls-2{fill:#231e2b;}.cls-3{fill:#cf6b55;}.cls-4{fill:#b0392e;}.cls-5{fill:#892727;}.cls-6{fill:#cf8934;}.cls-7{fill:#e2b436;}.cls-8{fill:#c2751d;}.cls-9{fill:#f5f38e;}</style></defs><title>medal</title><rect class="cls-1" x="9" y="15" width="2" height="1"/><rect class="cls-1" x="5" y="15" width="2" height="1"/><rect class="cls-1" x="7" y="14" width="2" height="1"/><polygon class="cls-2" points="6 14 6 10 5 10 5 15 7 15 7 14 6 14"/><polygon class="cls-2" points="11 10 10 10 10 14 9 14 9 15 11 15 11 10"/><rect class="cls-3" x="9" y="13" width="1" height="1"/><rect class="cls-2" x="7" y="13" width="2" height="1"/><rect class="cls-3" x="6" y="13" width="1" height="1"/><rect class="cls-1" x="4" y="10" width="1" height="5"/><rect class="cls-3" x="7" y="12" width="2" height="1"/><polygon class="cls-4" points="6 11 6 13 7 13 7 12 9 12 9 13 10 13 10 11 6 11"/><rect class="cls-1" x="11" y="10" width="1" height="5"/><rect class="cls-5" x="6" y="10" width="4" height="1"/><rect class="cls-1" x="12" y="9" width="1" height="1"/><rect class="cls-2" x="11" y="9" width="1" height="1"/><rect class="cls-6" x="5" y="9" width="6" height="1"/><rect class="cls-2" x="4" y="9" width="1" height="1"/><rect class="cls-1" x="3" y="9" width="1" height="1"/><rect class="cls-6" x="11" y="8" width="1" height="1"/><path class="cls-7" d="M5,9h6V8h1V4H11V3H5V4H4V8H5ZM6,7H7V6H6V5H7V4H9V7h1V8H6Z"/><rect class="cls-6" x="4" y="8" width="1" height="1"/><rect class="cls-1" x="2" y="3" width="1" height="6"/><polygon class="cls-8" points="10 8 10 7 9 7 9 4 7 4 7 5 6 5 6 6 7 6 7 7 6 7 6 8 10 8"/><rect class="cls-1" x="13" y="3" width="1" height="6"/><rect class="cls-2" x="3" y="3" width="1" height="6"/><rect class="cls-2" x="12" y="3" width="1" height="6"/><rect class="cls-9" x="11" y="3" width="1" height="1"/><rect class="cls-9" x="4" y="3" width="1" height="1"/><rect class="cls-1" x="12" y="2" width="1" height="1"/><rect class="cls-2" x="11" y="2" width="1" height="1"/><rect class="cls-9" x="5" y="2" width="6" height="1"/><rect class="cls-2" x="4" y="2" width="1" height="1"/><rect class="cls-1" x="3" y="2" width="1" height="1"/><rect class="cls-1" x="11" y="1" width="1" height="1"/><rect class="cls-2" x="5" y="1" width="6" height="1"/><rect class="cls-1" x="4" y="1" width="1" height="1"/><rect class="cls-1" x="5" width="6" height="1"/></svg>