<svg id="Layer_1" data-name="Layer 1" xmlns="http://www.w3.org/2000/svg" viewBox="0 0 16 16"><defs><style>.cls-1{fill:#f7feff;}.cls-2{fill:#231e2b;}.cls-3{fill:#892727;}.cls-4{fill:#b0392e;}.cls-5{fill:#cf6b55;}.cls-6{fill:#b45846;}.cls-7{fill:#b6b7b8;}.cls-8{fill:#c7936b;}.cls-9{fill:#a6644b;}</style></defs><title>no_meat</title><rect class="cls-1" x="3" y="15" width="10" height="1"/><rect class="cls-1" x="13" y="14" width="1" height="1"/><rect class="cls-2" x="3" y="14" width="10" height="1"/><rect class="cls-1" x="2" y="14" width="1" height="1"/><rect class="cls-1" x="14" y="13" width="1" height="1"/><rect class="cls-2" x="13" y="13" width="1" height="1"/><rect class="cls-3" x="12" y="13" width="1" height="1"/><rect class="cls-4" x="11" y="13" width="1" height="1"/><rect class="cls-3" x="3" y="13" width="8" height="1"/><rect class="cls-2" x="2" y="13" width="1" height="1"/><rect class="cls-1" x="1" y="13" width="1" height="1"/><rect class="cls-3" x="13" y="12" width="1" height="1"/><rect class="cls-4" x="12" y="12" width="1" height="1"/><polygon class="cls-2" points="6 12 6 11 5 11 5 12 4 12 4 13 12 13 12 12 6 12"/><rect class="cls-4" x="3" y="12" width="1" height="1"/><rect class="cls-3" x="2" y="12" width="1" height="1"/><polygon class="cls-2" points="2 6 3 6 3 5 2 5 2 2 1 2 1 13 2 13 2 6"/><rect class="cls-2" x="14" y="3" width="1" height="10"/><polygon class="cls-5" points="11 11 11 9 9 9 9 10 8 10 8 11 7 11 7 12 12 12 12 11 11 11"/><rect class="cls-6" x="6" y="11" width="1" height="1"/><rect class="cls-4" x="4" y="11" width="1" height="1"/><rect class="cls-5" x="3" y="11" width="1" height="1"/><rect class="cls-4" x="2" y="6" width="1" height="6"/><rect class="cls-1" y="2" width="1" height="11"/><rect class="cls-4" x="11" y="9" width="1" height="2"/><rect class="cls-6" x="7" y="10" width="1" height="1"/><rect class="cls-2" x="6" y="10" width="1" height="1"/><rect class="cls-4" x="5" y="10" width="1" height="1"/><rect class="cls-5" x="4" y="10" width="1" height="1"/><rect class="cls-6" x="8" y="9" width="1" height="1"/><rect class="cls-2" x="7" y="9" width="1" height="1"/><rect class="cls-4" x="6" y="9" width="1" height="1"/><rect class="cls-5" x="5" y="9" width="1" height="1"/><rect class="cls-4" x="7" y="8" width="1" height="1"/><rect class="cls-5" x="6" y="8" width="1" height="1"/><rect class="cls-2" x="5" y="8" width="1" height="1"/><rect class="cls-7" x="4" y="8" width="1" height="1"/><rect class="cls-1" x="11" y="6" width="1" height="2"/><rect class="cls-7" x="10" y="7" width="1" height="1"/><rect class="cls-4" x="8" y="7" width="1" height="1"/><rect class="cls-5" x="7" y="7" width="1" height="1"/><rect class="cls-2" x="6" y="7" width="1" height="1"/><rect class="cls-7" x="5" y="7" width="1" height="1"/><rect class="cls-1" x="4" y="7" width="1" height="1"/><polygon class="cls-2" points="3 11 4 11 4 10 5 10 5 9 4 9 4 6 3 6 3 11"/><rect class="cls-4" x="13" y="6" width="1" height="6"/><rect class="cls-2" x="10" y="6" width="1" height="1"/><rect class="cls-4" x="9" y="6" width="1" height="1"/><rect class="cls-5" x="8" y="6" width="1" height="1"/><rect class="cls-2" x="7" y="6" width="1" height="1"/><rect class="cls-7" x="6" y="6" width="1" height="1"/><rect class="cls-1" x="5" y="6" width="1" height="1"/><rect class="cls-7" x="4" y="6" width="1" height="1"/><rect class="cls-5" x="13" y="5" width="1" height="1"/><rect class="cls-4" x="10" y="5" width="1" height="1"/><rect class="cls-5" x="9" y="5" width="1" height="1"/><rect class="cls-2" x="8" y="5" width="1" height="1"/><rect class="cls-7" x="7" y="5" width="1" height="1"/><polygon class="cls-1" points="6 6 7 6 7 5 8 5 8 4 6 4 6 6"/><rect class="cls-7" x="5" y="4" width="1" height="2"/><polygon class="cls-8" points="4 6 5 6 5 4 4 4 4 3 3 3 3 2 2 2 2 4 3 4 3 5 4 5 4 6"/><rect class="cls-9" x="3" y="5" width="1" height="1"/><rect class="cls-4" x="13" y="4" width="1" height="1"/><polygon class="cls-2" points="12 5 11 5 11 6 12 6 12 8 10 8 10 7 9 7 9 8 8 8 8 9 12 9 12 12 13 12 13 4 12 4 12 5"/><rect class="cls-4" x="11" y="4" width="1" height="1"/><rect class="cls-5" x="10" y="4" width="1" height="1"/><rect class="cls-7" x="8" y="4" width="1" height="1"/><rect class="cls-9" x="2" y="4" width="1" height="1"/><rect class="cls-1" x="15" y="3" width="1" height="10"/><rect class="cls-5" x="13" y="3" width="1" height="1"/><rect class="cls-4" x="12" y="3" width="1" height="1"/><polygon class="cls-2" points="9 4 9 5 10 5 10 4 11 4 11 3 4 3 4 4 9 4"/><rect class="cls-1" x="14" y="2" width="1" height="1"/><rect class="cls-2" x="13" y="2" width="1" height="1"/><polygon class="cls-5" points="11 3 11 4 12 4 12 3 13 3 13 2 4 2 4 3 11 3"/><rect class="cls-1" x="13" y="1" width="1" height="1"/><polygon class="cls-2" points="3 2 3 3 4 3 4 2 13 2 13 1 2 1 2 2 3 2"/><rect class="cls-1" x="1" y="1" width="1" height="1"/><rect class="cls-1" x="2" width="11" height="1"/></svg>