<svg id="Layer_1" data-name="Layer 1" xmlns="http://www.w3.org/2000/svg" viewBox="0 0 16 16"><defs><style>.cls-1{fill:#f7feff;}.cls-2{fill:#231e2b;}.cls-3{fill:#b6b7b8;}.cls-4{fill:#696168;}.cls-5{fill:#998b8c;}</style></defs><title>plane</title><rect class="cls-1" x="4" y="15" width="8" height="1"/><rect class="cls-1" x="12" y="13" width="1" height="2"/><polygon class="cls-2" points="11 14 5 14 5 13 4 13 4 15 12 15 12 13 11 13 11 14"/><rect class="cls-1" x="10" y="13" width="1" height="1"/><rect class="cls-1" x="5" y="13" width="1" height="1"/><rect class="cls-1" x="3" y="13" width="1" height="2"/><rect class="cls-2" x="10" y="12" width="1" height="1"/><rect class="cls-1" x="9" y="12" width="1" height="1"/><rect class="cls-1" x="6" y="12" width="1" height="1"/><rect class="cls-2" x="5" y="12" width="1" height="1"/><polygon class="cls-1" points="5 12 6 12 6 11 1 11 1 12 4 12 4 13 5 13 5 12"/><polygon class="cls-1" points="10 11 10 12 11 12 11 13 12 13 12 12 15 12 15 11 10 11"/><polygon class="cls-2" points="6 11 6 12 7 12 7 10 2 10 2 9 1 9 1 11 6 11"/><rect class="cls-1" x="15" y="9" width="1" height="2"/><polygon class="cls-2" points="15 9 14 9 14 10 9 10 9 12 10 12 10 11 15 11 15 9"/><rect class="cls-1" x="12" y="9" width="2" height="1"/><rect class="cls-3" x="10" y="9" width="2" height="1"/><rect class="cls-3" x="4" y="9" width="2" height="1"/><rect class="cls-1" x="2" y="9" width="2" height="1"/><rect class="cls-1" y="9" width="1" height="2"/><rect class="cls-1" x="14" y="8" width="1" height="1"/><rect class="cls-2" x="12" y="8" width="2" height="1"/><rect class="cls-1" x="10" y="8" width="2" height="1"/><rect class="cls-4" x="9" y="8" width="1" height="2"/><polygon class="cls-3" points="9 4 8 4 8 3 7 3 7 13 6 13 6 14 10 14 10 13 9 13 9 4"/><rect class="cls-4" x="6" y="8" width="1" height="2"/><rect class="cls-1" x="4" y="8" width="2" height="1"/><rect class="cls-2" x="2" y="8" width="2" height="1"/><rect class="cls-1" x="1" y="8" width="1" height="1"/><rect class="cls-1" x="12" y="7" width="2" height="1"/><rect class="cls-2" x="10" y="7" width="2" height="1"/><rect class="cls-5" x="9" y="7" width="1" height="1"/><rect class="cls-5" x="6" y="7" width="1" height="1"/><rect class="cls-2" x="4" y="7" width="2" height="1"/><rect class="cls-1" x="2" y="7" width="2" height="1"/><polygon class="cls-1" points="6 7 6 2 5 2 5 6 4 6 4 7 6 7"/><polygon class="cls-1" points="10 7 12 7 12 6 11 6 11 2 10 2 10 7"/><polygon class="cls-1" points="8 4 9 4 9 2 7 2 7 3 8 3 8 4"/><rect class="cls-2" x="6" y="2" width="1" height="5"/><rect class="cls-2" x="9" y="2" width="1" height="5"/><rect class="cls-1" x="9" y="1" width="1" height="1"/><rect class="cls-2" x="7" y="1" width="2" height="1"/><rect class="cls-1" x="6" y="1" width="1" height="1"/><rect class="cls-1" x="7" width="2" height="1"/></svg>