<svg id="Layer_1" data-name="Layer 1" xmlns="http://www.w3.org/2000/svg" viewBox="0 0 16 16"><defs><style>.cls-1{fill:#f7feff;}.cls-2{fill:#231e2b;}.cls-3{fill:#c7936b;}.cls-4{fill:#356e69;}.cls-5{fill:#4fab59;}.cls-6{fill:#e8be9b;}.cls-7{fill:#acc756;}</style></defs><title>pointing_finger</title><rect class="cls-1" x="1" y="15" width="11" height="1"/><rect class="cls-1" x="12" y="14" width="1" height="1"/><path class="cls-2" d="M6,14V3H1V15H12V14ZM2,14V4H5V14Z"/><rect class="cls-1" x="13" y="13" width="1" height="1"/><rect class="cls-2" x="12" y="13" width="1" height="1"/><rect class="cls-3" x="6" y="13" width="6" height="1"/><rect class="cls-4" x="2" y="13" width="3" height="1"/><rect class="cls-1" y="3" width="1" height="12"/><rect class="cls-1" x="12" y="12" width="1" height="1"/><rect class="cls-2" x="11" y="12" width="1" height="1"/><path class="cls-5" d="M5,13V4H4V5H2v8ZM3,11H4v1H3Z"/><rect class="cls-1" x="13" y="10" width="1" height="2"/><rect class="cls-4" x="3" y="11" width="1" height="1"/><rect class="cls-2" x="12" y="10" width="1" height="2"/><rect class="cls-1" x="12" y="9" width="1" height="1"/><rect class="cls-2" x="11" y="9" width="1" height="1"/><rect class="cls-1" x="13" y="7" width="1" height="2"/><rect class="cls-1" x="14" y="6" width="1" height="1"/><polygon class="cls-2" points="11 6 11 7 12 7 12 9 13 9 13 7 14 7 14 6 11 6"/><rect class="cls-1" x="15" y="4" width="1" height="2"/><rect class="cls-2" x="14" y="4" width="1" height="2"/><polygon class="cls-6" points="9 4 9 2 7 2 7 3 6 3 6 13 11 13 11 12 12 12 12 10 11 10 11 9 12 9 12 7 11 7 11 6 14 6 14 4 9 4"/><rect class="cls-7" x="2" y="4" width="2" height="1"/><rect class="cls-1" x="14" y="3" width="1" height="1"/><rect class="cls-1" x="10" y="2" width="4" height="1"/><polygon class="cls-2" points="9 4 14 4 14 3 10 3 10 2 9 2 9 4"/><rect class="cls-2" x="6" y="2" width="1" height="1"/><rect class="cls-1" x="1" y="2" width="5" height="1"/><rect class="cls-1" x="9" y="1" width="1" height="1"/><rect class="cls-2" x="7" y="1" width="2" height="1"/><rect class="cls-1" x="6" y="1" width="1" height="1"/><rect class="cls-1" x="7" width="2" height="1"/></svg>