<svg id="Layer_1" data-name="Layer 1" xmlns="http://www.w3.org/2000/svg" viewBox="0 0 16 16"><defs><style>.cls-1{fill:#f7feff;}.cls-2{fill:#231e2b;}.cls-3{fill:#36313b;}.cls-4{fill:#47414d;}.cls-5{fill:#2f3452;}.cls-6{fill:#cf8934;}.cls-7{fill:#e2b436;}.cls-8{fill:#648dd3;}.cls-9{fill:#354e8d;}</style></defs><title>police</title><rect class="cls-1" x="5" y="14" width="6" height="1"/><rect class="cls-1" x="11" y="13" width="1" height="1"/><rect class="cls-2" x="5" y="13" width="6" height="1"/><rect class="cls-1" x="4" y="13" width="1" height="1"/><rect class="cls-1" x="12" y="12" width="1" height="1"/><rect class="cls-2" x="11" y="12" width="1" height="1"/><rect class="cls-3" x="10" y="12" width="1" height="1"/><rect class="cls-3" x="5" y="12" width="1" height="1"/><rect class="cls-2" x="4" y="12" width="1" height="1"/><rect class="cls-1" x="3" y="12" width="1" height="1"/><rect class="cls-3" x="11" y="11" width="1" height="1"/><polygon class="cls-4" points="6 12 6 13 10 13 10 12 11 12 11 11 5 11 5 12 6 12"/><rect class="cls-3" x="4" y="11" width="1" height="1"/><rect class="cls-1" x="13" y="10" width="1" height="2"/><polygon class="cls-2" points="13 10 3 10 3 12 4 12 4 11 12 11 12 12 13 12 13 10"/><rect class="cls-1" x="2" y="10" width="1" height="2"/><polygon class="cls-5" points="9 9 9 8 7 8 7 9 3 9 3 10 13 10 13 9 9 9"/><rect class="cls-2" x="2" y="8" width="1" height="2"/><rect class="cls-1" x="14" y="8" width="1" height="2"/><rect class="cls-2" x="13" y="8" width="1" height="2"/><rect class="cls-1" x="1" y="8" width="1" height="2"/><rect class="cls-5" x="13" y="7" width="1" height="1"/><rect class="cls-5" x="9" y="7" width="1" height="1"/><rect class="cls-6" x="7" y="7" width="2" height="1"/><rect class="cls-5" x="6" y="7" width="1" height="1"/><rect class="cls-5" x="2" y="7" width="1" height="1"/><rect class="cls-2" x="1" y="4" width="1" height="4"/><rect class="cls-2" x="14" y="4" width="1" height="4"/><rect class="cls-6" x="9" y="6" width="1" height="1"/><polygon class="cls-7" points="7 7 9 7 9 6 10 6 10 5 6 5 6 6 7 6 7 7"/><rect class="cls-6" x="6" y="6" width="1" height="1"/><rect class="cls-1" y="4" width="1" height="4"/><rect class="cls-1" x="15" y="4" width="1" height="4"/><rect class="cls-8" x="13" y="4" width="1" height="1"/><polygon class="cls-9" points="13 4 3 4 3 5 2 5 2 7 3 7 3 9 7 9 7 8 6 8 6 5 10 5 10 8 9 8 9 9 13 9 13 7 14 7 14 5 13 5 13 4"/><rect class="cls-8" x="2" y="4" width="1" height="1"/><rect class="cls-1" x="14" y="3" width="1" height="1"/><rect class="cls-2" x="13" y="3" width="1" height="1"/><rect class="cls-8" x="3" y="3" width="10" height="1"/><rect class="cls-2" x="2" y="3" width="1" height="1"/><rect class="cls-1" x="1" y="3" width="1" height="1"/><rect class="cls-1" x="13" y="2" width="1" height="1"/><rect class="cls-2" x="3" y="2" width="10" height="1"/><rect class="cls-1" x="2" y="2" width="1" height="1"/><rect class="cls-1" x="3" y="1" width="10" height="1"/></svg>