<svg id="Layer_1" data-name="Layer 1" xmlns="http://www.w3.org/2000/svg" viewBox="0 0 16 16"><defs><style>.cls-1{fill:#f7feff;}.cls-2{fill:#231e2b;}.cls-3{fill:#b0392e;}.cls-4{fill:#356e69;}.cls-5{fill:#4fab59;}.cls-6{fill:#acc756;}.cls-7{fill:#892727;}.cls-8{fill:#cf6b55;}</style></defs><title>salad</title><rect class="cls-1" x="3" y="15" width="10" height="1"/><rect class="cls-1" x="13" y="14" width="1" height="1"/><rect class="cls-2" x="3" y="14" width="10" height="1"/><rect class="cls-1" x="2" y="14" width="1" height="1"/><rect class="cls-1" x="14" y="13" width="1" height="1"/><rect class="cls-2" x="13" y="13" width="1" height="1"/><rect class="cls-2" x="2" y="13" width="1" height="1"/><rect class="cls-1" x="1" y="13" width="1" height="1"/><rect class="cls-2" x="1" y="6" width="1" height="7"/><rect class="cls-2" x="14" y="5" width="1" height="8"/><rect class="cls-1" y="6" width="1" height="7"/><polygon class="cls-1" points="2 9 2 13 3 13 3 14 13 14 13 13 14 13 14 9 2 9"/><rect class="cls-3" x="2" y="8" width="12" height="1"/><rect class="cls-1" x="2" y="7" width="12" height="1"/><rect class="cls-4" x="13" y="6" width="1" height="1"/><rect class="cls-5" x="12" y="6" width="1" height="1"/><polygon class="cls-4" points="11 6 11 5 10 5 10 7 12 7 12 6 11 6"/><rect class="cls-5" x="4" y="6" width="1" height="1"/><rect class="cls-4" x="3" y="6" width="1" height="1"/><rect class="cls-6" x="2" y="6" width="1" height="1"/><rect class="cls-1" x="15" y="5" width="1" height="8"/><rect class="cls-6" x="13" y="5" width="1" height="1"/><rect class="cls-4" x="12" y="5" width="1" height="1"/><rect class="cls-7" x="11" y="5" width="1" height="1"/><rect class="cls-5" x="9" y="5" width="1" height="2"/><rect class="cls-4" x="8" y="5" width="1" height="2"/><rect class="cls-5" x="7" y="5" width="1" height="2"/><polygon class="cls-4" points="7 5 6 5 6 6 5 6 5 7 7 7 7 5"/><rect class="cls-7" x="5" y="5" width="1" height="1"/><rect class="cls-4" x="4" y="5" width="1" height="1"/><rect class="cls-5" x="3" y="5" width="1" height="1"/><rect class="cls-2" x="2" y="5" width="1" height="1"/><rect class="cls-1" x="1" y="5" width="1" height="1"/><rect class="cls-1" x="14" y="3" width="1" height="2"/><rect class="cls-8" x="11" y="4" width="1" height="1"/><rect class="cls-3" x="10" y="4" width="1" height="1"/><rect class="cls-4" x="9" y="4" width="1" height="1"/><rect class="cls-6" x="8" y="4" width="1" height="1"/><rect class="cls-4" x="7" y="3" width="1" height="2"/><rect class="cls-5" x="6" y="4" width="1" height="1"/><rect class="cls-8" x="5" y="4" width="1" height="1"/><rect class="cls-3" x="4" y="4" width="1" height="1"/><rect class="cls-6" x="2" y="4" width="1" height="1"/><rect class="cls-2" x="1" y="4" width="1" height="1"/><rect class="cls-1" y="4" width="1" height="1"/><polygon class="cls-2" points="13 4 12 4 12 5 14 5 14 3 13 3 13 4"/><rect class="cls-6" x="12" y="3" width="1" height="1"/><rect class="cls-2" x="10" y="3" width="2" height="1"/><rect class="cls-6" x="9" y="3" width="1" height="1"/><rect class="cls-3" x="8" y="3" width="1" height="1"/><rect class="cls-6" x="5" y="3" width="1" height="1"/><rect class="cls-5" x="4" y="3" width="1" height="1"/><polygon class="cls-2" points="3 4 3 5 4 5 4 3 2 3 2 4 3 4"/><rect class="cls-1" x="1" y="3" width="1" height="1"/><rect class="cls-1" x="13" y="2" width="1" height="1"/><rect class="cls-2" x="12" y="2" width="1" height="1"/><rect class="cls-1" x="10" y="2" width="2" height="1"/><rect class="cls-2" x="9" y="2" width="1" height="1"/><rect class="cls-8" x="8" y="2" width="1" height="1"/><rect class="cls-6" x="7" y="2" width="1" height="1"/><polygon class="cls-2" points="6 3 6 4 7 4 7 2 4 2 4 3 6 3"/><rect class="cls-1" x="2" y="2" width="2" height="1"/><rect class="cls-1" x="12" y="1" width="1" height="1"/><rect class="cls-1" x="9" y="1" width="1" height="1"/><rect class="cls-2" x="7" y="1" width="2" height="1"/><rect class="cls-1" x="4" y="1" width="3" height="1"/><rect class="cls-1" x="7" width="2" height="1"/></svg>