<svg id="Layer_1" data-name="Layer 1" xmlns="http://www.w3.org/2000/svg" viewBox="0 0 16 16"><defs><style>.cls-1{fill:#f7feff;}.cls-2{fill:#231e2b;}.cls-3{fill:#892727;}.cls-4{fill:#cf8934;}.cls-5{fill:#e2b436;}.cls-6{fill:#b0392e;}.cls-7{fill:#f5f38e;}.cls-8{fill:#cf6b55;}</style></defs><title>shield</title><rect class="cls-1" x="6" y="15" width="4" height="1"/><rect class="cls-1" x="10" y="14" width="1" height="1"/><rect class="cls-2" x="6" y="14" width="4" height="1"/><rect class="cls-1" x="5" y="14" width="1" height="1"/><rect class="cls-1" x="11" y="13" width="1" height="1"/><rect class="cls-2" x="10" y="13" width="1" height="1"/><rect class="cls-3" x="8" y="13" width="2" height="1"/><rect class="cls-4" x="6" y="13" width="2" height="1"/><rect class="cls-2" x="5" y="13" width="1" height="1"/><rect class="cls-1" x="4" y="13" width="1" height="1"/><rect class="cls-1" x="12" y="12" width="1" height="1"/><rect class="cls-2" x="11" y="12" width="1" height="1"/><rect class="cls-3" x="10" y="12" width="1" height="1"/><polygon class="cls-5" points="8 13 8 8 3 8 3 10 4 10 4 11 5 11 5 12 6 12 6 13 8 13"/><rect class="cls-4" x="5" y="12" width="1" height="1"/><rect class="cls-2" x="4" y="12" width="1" height="1"/><rect class="cls-1" x="3" y="12" width="1" height="1"/><rect class="cls-1" x="13" y="11" width="1" height="1"/><rect class="cls-2" x="12" y="11" width="1" height="1"/><rect class="cls-3" x="11" y="11" width="1" height="1"/><rect class="cls-4" x="4" y="11" width="1" height="1"/><rect class="cls-2" x="3" y="11" width="1" height="1"/><rect class="cls-1" x="2" y="11" width="1" height="1"/><rect class="cls-3" x="12" y="10" width="1" height="1"/><rect class="cls-4" x="3" y="10" width="1" height="1"/><polygon class="cls-2" points="3 4 5 4 5 3 2 3 2 11 3 11 3 4"/><rect class="cls-1" x="1" y="3" width="1" height="8"/><polygon class="cls-6" points="8 8 8 13 10 13 10 12 11 12 11 11 12 11 12 10 13 10 13 8 8 8"/><rect class="cls-1" x="14" y="3" width="1" height="8"/><rect class="cls-7" x="11" y="4" width="2" height="1"/><polygon class="cls-6" points="5 4 5 5 3 5 3 8 8 8 8 3 7 3 7 4 5 4"/><rect class="cls-8" x="3" y="4" width="2" height="1"/><polygon class="cls-2" points="11 3 11 4 13 4 13 11 14 11 14 3 11 3"/><rect class="cls-7" x="9" y="3" width="2" height="1"/><polygon class="cls-5" points="8 8 13 8 13 5 11 5 11 4 9 4 9 3 8 3 8 8"/><rect class="cls-8" x="5" y="3" width="2" height="1"/><rect class="cls-1" x="11" y="2" width="3" height="1"/><rect class="cls-2" x="9" y="2" width="2" height="1"/><rect class="cls-7" x="8" y="2" width="1" height="1"/><rect class="cls-8" x="7" y="2" width="1" height="1"/><rect class="cls-2" x="5" y="2" width="2" height="1"/><rect class="cls-1" x="2" y="2" width="3" height="1"/><rect class="cls-1" x="9" y="1" width="2" height="1"/><rect class="cls-2" x="7" y="1" width="2" height="1"/><rect class="cls-1" x="5" y="1" width="2" height="1"/><rect class="cls-1" x="7" width="2" height="1"/></svg>