<svg id="Layer_1" data-name="Layer 1" xmlns="http://www.w3.org/2000/svg" viewBox="0 0 16 16"><defs><style>.cls-1{fill:#f7feff;}.cls-2{fill:#231e2b;}.cls-3{fill:#e1d1de;}.cls-4{fill:#b44ba1;}.cls-5{fill:#a545a4;}.cls-6{fill:#d779a5;}.cls-7{fill:#e2b436;}.cls-8{fill:#cf8934;}</style></defs><title>unicorn</title><rect class="cls-1" x="3" y="15" width="10" height="1"/><rect class="cls-1" x="13" y="13" width="1" height="2"/><polygon class="cls-2" points="13 13 12 13 12 14 11 14 11 12 10 12 10 14 9 14 9 12 7 12 7 14 6 14 6 12 5 12 5 14 4 14 4 9 2 9 2 10 3 10 3 15 13 15 13 13"/><rect class="cls-1" x="2" y="10" width="1" height="5"/><rect class="cls-1" x="14" y="12" width="1" height="1"/><rect class="cls-2" x="13" y="12" width="1" height="1"/><polygon class="cls-1" points="12 11 11 11 11 9 10 9 10 8 9 8 9 10 8 10 8 12 9 12 9 14 10 14 10 12 11 12 11 14 12 14 12 11"/><rect class="cls-3" x="7" y="11" width="1" height="1"/><polygon class="cls-1" points="6 11 6 8 5 8 5 7 4 7 4 6 3 6 3 7 2 7 2 9 4 9 4 14 5 14 5 12 6 12 6 14 7 14 7 11 6 11"/><rect class="cls-2" x="14" y="9" width="1" height="3"/><polygon class="cls-4" points="13 9 12 9 12 13 13 13 13 12 14 12 14 11 13 11 13 9"/><rect class="cls-5" x="7" y="10" width="1" height="1"/><rect class="cls-3" x="6" y="10" width="1" height="1"/><rect class="cls-1" x="15" y="9" width="1" height="3"/><rect class="cls-6" x="13" y="9" width="1" height="2"/><rect class="cls-3" x="11" y="9" width="1" height="2"/><rect class="cls-3" x="8" y="9" width="1" height="1"/><rect class="cls-5" x="6" y="8" width="1" height="2"/><rect class="cls-1" x="1" y="9" width="1" height="1"/><rect class="cls-1" x="14" y="8" width="1" height="1"/><rect class="cls-2" x="13" y="8" width="1" height="1"/><rect class="cls-6" x="12" y="8" width="1" height="1"/><rect class="cls-4" x="11" y="8" width="1" height="1"/><rect class="cls-3" x="10" y="8" width="1" height="1"/><rect class="cls-2" x="1" y="5" width="1" height="4"/><rect class="cls-1" x="13" y="7" width="1" height="1"/><rect class="cls-2" x="9" y="7" width="4" height="1"/><rect class="cls-6" x="8" y="7" width="1" height="1"/><polygon class="cls-4" points="6 7 6 8 7 8 7 10 8 10 8 9 9 9 9 8 8 8 8 7 6 7"/><rect class="cls-3" x="5" y="7" width="1" height="1"/><rect class="cls-1" y="5" width="1" height="4"/><polygon class="cls-1" points="9 7 13 7 13 6 10 6 10 5 9 5 9 7"/><rect class="cls-6" x="7" y="5" width="1" height="2"/><rect class="cls-1" x="6" y="6" width="1" height="1"/><rect class="cls-5" x="5" y="6" width="1" height="1"/><rect class="cls-3" x="4" y="6" width="1" height="1"/><rect class="cls-5" x="2" y="6" width="1" height="1"/><rect class="cls-2" x="8" y="5" width="1" height="2"/><rect class="cls-4" x="5" y="5" width="2" height="1"/><rect class="cls-5" x="3" y="5" width="2" height="1"/><rect class="cls-4" x="2" y="5" width="1" height="1"/><rect class="cls-1" x="8" y="4" width="1" height="1"/><rect class="cls-2" x="7" y="4" width="1" height="1"/><rect class="cls-6" x="5" y="4" width="2" height="1"/><rect class="cls-7" x="4" y="4" width="1" height="1"/><rect class="cls-8" x="3" y="4" width="1" height="1"/><rect class="cls-2" x="2" y="4" width="1" height="1"/><rect class="cls-1" x="1" y="4" width="1" height="1"/><rect class="cls-1" x="7" y="3" width="1" height="1"/><rect class="cls-2" x="4" y="3" width="3" height="1"/><rect class="cls-7" x="3" y="3" width="1" height="1"/><rect class="cls-8" x="2" y="3" width="1" height="1"/><polygon class="cls-2" points="2 2 3 2 3 1 1 1 1 4 2 4 2 2"/><rect class="cls-1" x="4" y="2" width="3" height="1"/><rect class="cls-2" x="3" y="2" width="1" height="1"/><rect class="cls-7" x="2" y="2" width="1" height="1"/><rect class="cls-1" y="1" width="1" height="3"/><rect class="cls-1" x="3" y="1" width="1" height="1"/><rect class="cls-1" x="1" width="2" height="1"/></svg>