<svg id="Layer_1" data-name="Layer 1" xmlns="http://www.w3.org/2000/svg" viewBox="0 0 16 16"><defs><style>.cls-1{fill:#f7feff;}.cls-2{fill:#231e2b;}.cls-3{fill:#4a7dd3;}.cls-4{fill:#64a9dd;}.cls-5{fill:#8ccbf2;}</style></defs><title>arrow_4</title><rect class="cls-1" x="7" y="15" width="2" height="1"/><rect class="cls-1" x="9" y="14" width="1" height="1"/><rect class="cls-2" x="7" y="14" width="2" height="1"/><rect class="cls-1" x="6" y="14" width="1" height="1"/><rect class="cls-1" x="10" y="13" width="1" height="1"/><rect class="cls-2" x="9" y="13" width="1" height="1"/><rect class="cls-3" x="7" y="13" width="2" height="1"/><rect class="cls-2" x="6" y="13" width="1" height="1"/><rect class="cls-1" x="5" y="13" width="1" height="1"/><rect class="cls-1" x="11" y="12" width="1" height="1"/><rect class="cls-2" x="10" y="12" width="1" height="1"/><rect class="cls-3" x="9" y="12" width="1" height="1"/><rect class="cls-3" x="6" y="12" width="1" height="1"/><rect class="cls-2" x="5" y="12" width="1" height="1"/><rect class="cls-1" x="4" y="12" width="1" height="1"/><rect class="cls-1" x="12" y="11" width="1" height="1"/><rect class="cls-2" x="11" y="11" width="1" height="1"/><rect class="cls-3" x="10" y="11" width="1" height="1"/><rect class="cls-3" x="5" y="11" width="1" height="1"/><rect class="cls-2" x="4" y="11" width="1" height="1"/><rect class="cls-1" x="3" y="11" width="1" height="1"/><rect class="cls-1" x="13" y="10" width="1" height="1"/><rect class="cls-2" x="12" y="10" width="1" height="1"/><rect class="cls-3" x="11" y="10" width="1" height="1"/><rect class="cls-3" x="4" y="10" width="1" height="1"/><rect class="cls-2" x="3" y="10" width="1" height="1"/><rect class="cls-1" x="2" y="10" width="1" height="1"/><rect class="cls-1" x="14" y="9" width="1" height="1"/><rect class="cls-2" x="13" y="9" width="1" height="1"/><rect class="cls-3" x="12" y="9" width="1" height="1"/><rect class="cls-3" x="3" y="9" width="1" height="1"/><rect class="cls-2" x="2" y="9" width="1" height="1"/><rect class="cls-1" x="1" y="9" width="1" height="1"/><rect class="cls-3" x="13" y="8" width="1" height="1"/><polygon class="cls-4" points="4 9 4 10 5 10 5 11 6 11 6 12 7 12 7 13 9 13 9 12 10 12 10 11 11 11 11 10 12 10 12 9 13 9 13 8 12 8 12 3 4 3 4 8 3 8 3 9 4 9"/><rect class="cls-3" x="2" y="8" width="1" height="1"/><rect class="cls-1" x="15" y="7" width="1" height="2"/><polygon class="cls-2" points="15 7 13 7 13 1 3 1 3 7 1 7 1 9 2 9 2 8 4 8 4 2 12 2 12 8 14 8 14 9 15 9 15 7"/><rect class="cls-1" y="7" width="1" height="2"/><polygon class="cls-1" points="3 7 3 1 2 1 2 6 1 6 1 7 3 7"/><polygon class="cls-1" points="13 7 15 7 15 6 14 6 14 1 13 1 13 7"/><rect class="cls-5" x="4" y="2" width="8" height="1"/><rect class="cls-1" x="3" width="10" height="1"/></svg>