<svg id="Layer_1" data-name="Layer 1" xmlns="http://www.w3.org/2000/svg" viewBox="0 0 16 16"><defs><style>.cls-1{fill:#f7feff;}.cls-2{fill:#cf8934;}.cls-3{fill:#231e2b;}.cls-4{fill:#f5f38e;}.cls-5{fill:#e2b436;}</style></defs><title>arrow_3</title><rect class="cls-1" x="3" y="15" width="10" height="1"/><polygon class="cls-1" points="3 9 1 9 1 10 2 10 2 15 3 15 3 9"/><polygon class="cls-1" points="13 9 13 15 14 15 14 10 15 10 15 9 13 9"/><rect class="cls-2" x="11" y="8" width="1" height="1"/><rect class="cls-2" x="4" y="8" width="1" height="1"/><rect class="cls-1" x="15" y="7" width="1" height="2"/><polygon class="cls-3" points="15 7 14 7 14 8 12 8 12 14 4 14 4 8 2 8 2 7 1 7 1 9 3 9 3 15 13 15 13 9 15 9 15 7"/><rect class="cls-4" x="13" y="7" width="1" height="1"/><polygon class="cls-5" points="12 7 12 6 11 6 11 5 10 5 10 4 9 4 9 3 7 3 7 4 6 4 6 5 5 5 5 6 4 6 4 7 3 7 3 8 5 8 5 9 4 9 4 14 12 14 12 9 11 9 11 8 13 8 13 7 12 7"/><rect class="cls-4" x="2" y="7" width="1" height="1"/><rect class="cls-1" y="7" width="1" height="2"/><rect class="cls-1" x="14" y="6" width="1" height="1"/><rect class="cls-3" x="13" y="6" width="1" height="1"/><rect class="cls-4" x="12" y="6" width="1" height="1"/><rect class="cls-4" x="3" y="6" width="1" height="1"/><rect class="cls-3" x="2" y="6" width="1" height="1"/><rect class="cls-1" x="1" y="6" width="1" height="1"/><rect class="cls-1" x="13" y="5" width="1" height="1"/><rect class="cls-3" x="12" y="5" width="1" height="1"/><rect class="cls-4" x="11" y="5" width="1" height="1"/><rect class="cls-4" x="4" y="5" width="1" height="1"/><rect class="cls-3" x="3" y="5" width="1" height="1"/><rect class="cls-1" x="2" y="5" width="1" height="1"/><rect class="cls-1" x="12" y="4" width="1" height="1"/><rect class="cls-3" x="11" y="4" width="1" height="1"/><rect class="cls-4" x="10" y="4" width="1" height="1"/><rect class="cls-4" x="5" y="4" width="1" height="1"/><rect class="cls-3" x="4" y="4" width="1" height="1"/><rect class="cls-1" x="3" y="4" width="1" height="1"/><rect class="cls-1" x="11" y="3" width="1" height="1"/><rect class="cls-3" x="10" y="3" width="1" height="1"/><rect class="cls-4" x="9" y="3" width="1" height="1"/><rect class="cls-4" x="6" y="3" width="1" height="1"/><rect class="cls-3" x="5" y="3" width="1" height="1"/><rect class="cls-1" x="4" y="3" width="1" height="1"/><rect class="cls-1" x="10" y="2" width="1" height="1"/><rect class="cls-3" x="9" y="2" width="1" height="1"/><rect class="cls-4" x="7" y="2" width="2" height="1"/><rect class="cls-3" x="6" y="2" width="1" height="1"/><rect class="cls-1" x="5" y="2" width="1" height="1"/><rect class="cls-1" x="9" y="1" width="1" height="1"/><rect class="cls-3" x="7" y="1" width="2" height="1"/><rect class="cls-1" x="6" y="1" width="1" height="1"/><rect class="cls-1" x="7" width="2" height="1"/></svg>