<svg id="Layer_1" data-name="Layer 1" xmlns="http://www.w3.org/2000/svg" viewBox="0 0 16 16"><defs><style>.cls-1{fill:#f7feff;}.cls-2{fill:#484085;}.cls-3{fill:#231e2b;}.cls-4{fill:#927bb3;}.cls-5{fill:#6f59ab;}</style></defs><title>arrow_2</title><rect class="cls-1" x="5" y="13" width="2" height="1"/><rect class="cls-1" x="4" y="12" width="1" height="1"/><polygon class="cls-1" points="7 11 7 13 8 13 8 12 15 12 15 11 7 11"/><rect class="cls-2" x="5" y="11" width="1" height="1"/><rect class="cls-3" x="4" y="11" width="1" height="1"/><rect class="cls-1" x="3" y="11" width="1" height="1"/><rect class="cls-2" x="4" y="10" width="1" height="1"/><rect class="cls-3" x="3" y="10" width="1" height="1"/><rect class="cls-1" x="2" y="10" width="1" height="1"/><polygon class="cls-3" points="15 5 7 5 7 3 5 3 5 4 6 4 6 6 14 6 14 10 6 10 6 12 5 12 5 13 7 13 7 11 15 11 15 5"/><rect class="cls-2" x="6" y="9" width="8" height="1"/><rect class="cls-2" x="3" y="9" width="1" height="1"/><rect class="cls-3" x="2" y="9" width="1" height="1"/><rect class="cls-1" x="1" y="9" width="1" height="1"/><rect class="cls-2" x="2" y="8" width="1" height="1"/><rect class="cls-3" x="1" y="7" width="1" height="2"/><rect class="cls-4" x="2" y="7" width="1" height="1"/><rect class="cls-1" y="7" width="1" height="2"/><rect class="cls-4" x="6" y="6" width="8" height="1"/><rect class="cls-4" x="3" y="6" width="1" height="1"/><rect class="cls-3" x="2" y="6" width="1" height="1"/><rect class="cls-1" x="1" y="6" width="1" height="1"/><rect class="cls-1" x="15" y="5" width="1" height="6"/><polygon class="cls-5" points="5 6 4 6 4 7 3 7 3 9 4 9 4 10 5 10 5 11 6 11 6 9 14 9 14 7 6 7 6 5 5 5 5 6"/><rect class="cls-4" x="4" y="5" width="1" height="1"/><rect class="cls-3" x="3" y="5" width="1" height="1"/><rect class="cls-1" x="2" y="5" width="1" height="1"/><polygon class="cls-1" points="7 5 15 5 15 4 8 4 8 3 7 3 7 5"/><rect class="cls-4" x="5" y="4" width="1" height="1"/><rect class="cls-3" x="4" y="4" width="1" height="1"/><rect class="cls-1" x="3" y="4" width="1" height="1"/><rect class="cls-1" x="4" y="3" width="1" height="1"/><rect class="cls-1" x="5" y="2" width="2" height="1"/></svg>