<svg id="Layer_1" data-name="Layer 1" xmlns="http://www.w3.org/2000/svg" viewBox="0 0 16 16"><defs><style>.cls-1{fill:#f7feff;}.cls-2{fill:#231e2b;}.cls-3{fill:#356e69;}.cls-4{fill:#acc756;}.cls-5{fill:#4fab59;}</style></defs><title>arrow_1</title><rect class="cls-1" x="8" y="14" width="2" height="1"/><rect class="cls-1" x="10" y="13" width="1" height="1"/><polygon class="cls-2" points="9 13 9 11 2 11 2 5 9 5 9 3 10 3 10 2 8 2 8 4 1 4 1 12 8 12 8 14 10 14 10 13 9 13"/><rect class="cls-1" x="11" y="12" width="1" height="1"/><rect class="cls-2" x="10" y="12" width="1" height="1"/><rect class="cls-3" x="9" y="12" width="1" height="1"/><polygon class="cls-1" points="8 12 1 12 1 13 7 13 7 14 8 14 8 12"/><rect class="cls-1" x="12" y="11" width="1" height="1"/><rect class="cls-2" x="11" y="11" width="1" height="1"/><rect class="cls-3" x="10" y="11" width="1" height="1"/><rect class="cls-1" x="13" y="10" width="1" height="1"/><rect class="cls-2" x="12" y="10" width="1" height="1"/><rect class="cls-3" x="11" y="10" width="1" height="1"/><rect class="cls-3" x="2" y="10" width="7" height="1"/><rect class="cls-1" y="4" width="1" height="8"/><rect class="cls-1" x="14" y="9" width="1" height="1"/><rect class="cls-2" x="13" y="9" width="1" height="1"/><rect class="cls-3" x="12" y="9" width="1" height="1"/><rect class="cls-3" x="13" y="8" width="1" height="1"/><rect class="cls-1" x="15" y="7" width="1" height="2"/><rect class="cls-2" x="14" y="7" width="1" height="2"/><rect class="cls-4" x="13" y="7" width="1" height="1"/><polygon class="cls-5" points="13 7 12 7 12 6 11 6 11 5 10 5 10 4 9 4 9 6 2 6 2 10 9 10 9 12 10 12 10 11 11 11 11 10 12 10 12 9 13 9 13 7"/><rect class="cls-1" x="14" y="6" width="1" height="1"/><rect class="cls-2" x="13" y="6" width="1" height="1"/><rect class="cls-4" x="12" y="6" width="1" height="1"/><rect class="cls-1" x="13" y="5" width="1" height="1"/><rect class="cls-2" x="12" y="5" width="1" height="1"/><rect class="cls-4" x="11" y="5" width="1" height="1"/><rect class="cls-4" x="2" y="5" width="7" height="1"/><rect class="cls-1" x="12" y="4" width="1" height="1"/><rect class="cls-2" x="11" y="4" width="1" height="1"/><rect class="cls-4" x="10" y="4" width="1" height="1"/><rect class="cls-1" x="11" y="3" width="1" height="1"/><rect class="cls-2" x="10" y="3" width="1" height="1"/><rect class="cls-4" x="9" y="3" width="1" height="1"/><polygon class="cls-1" points="8 4 8 2 7 2 7 3 1 3 1 4 8 4"/><rect class="cls-1" x="10" y="2" width="1" height="1"/><rect class="cls-1" x="8" y="1" width="2" height="1"/></svg>