<svg id="Layer_1" data-name="Layer 1" xmlns="http://www.w3.org/2000/svg" viewBox="0 0 16 16"><defs><style>.cls-1{fill:#f7feff;}.cls-2{fill:#231e2b;}.cls-3{fill:#b0392e;}.cls-4{fill:#892727;}.cls-5{fill:#cf6b55;}</style></defs><title>balloon</title><rect class="cls-1" x="8" y="15" width="1" height="1"/><rect class="cls-2" x="8" y="14" width="1" height="1"/><rect class="cls-1" x="7" y="14" width="1" height="1"/><polygon class="cls-1" points="8 13 8 14 9 14 9 15 10 15 10 13 8 13"/><rect class="cls-1" x="6" y="13" width="1" height="1"/><rect class="cls-1" x="10" y="11" width="1" height="2"/><polygon class="cls-2" points="9 12 7 12 7 11 6 11 6 13 7 13 7 14 8 14 8 13 10 13 10 11 9 11 9 12"/><rect class="cls-3" x="8" y="11" width="1" height="1"/><rect class="cls-4" x="7" y="11" width="1" height="1"/><rect class="cls-1" x="5" y="11" width="1" height="2"/><rect class="cls-1" x="9" y="10" width="1" height="1"/><rect class="cls-2" x="7" y="10" width="2" height="1"/><rect class="cls-1" x="6" y="10" width="1" height="1"/><rect class="cls-1" x="10" y="9" width="1" height="1"/><rect class="cls-2" x="9" y="9" width="1" height="1"/><rect class="cls-4" x="7" y="9" width="2" height="1"/><rect class="cls-2" x="6" y="9" width="1" height="1"/><rect class="cls-1" x="5" y="9" width="1" height="1"/><rect class="cls-1" x="11" y="8" width="1" height="1"/><rect class="cls-2" x="10" y="8" width="1" height="1"/><rect class="cls-4" x="9" y="8" width="1" height="1"/><rect class="cls-4" x="6" y="8" width="1" height="1"/><rect class="cls-2" x="5" y="8" width="1" height="1"/><rect class="cls-1" x="4" y="8" width="1" height="1"/><rect class="cls-4" x="10" y="7" width="1" height="1"/><rect class="cls-4" x="5" y="7" width="1" height="1"/><rect class="cls-2" x="4" y="3" width="1" height="5"/><rect class="cls-1" x="3" y="3" width="1" height="5"/><rect class="cls-5" x="9" y="4" width="1" height="2"/><rect class="cls-1" x="12" y="3" width="1" height="5"/><rect class="cls-2" x="11" y="3" width="1" height="5"/><rect class="cls-5" x="8" y="3" width="1" height="1"/><path class="cls-3" d="M5,3V7H6V8H7V9H9V8h1V7h1V3H10V2H6V3ZM9,3V4h1V6H9V4H8V3Z"/><rect class="cls-1" x="11" y="2" width="1" height="1"/><rect class="cls-2" x="10" y="2" width="1" height="1"/><rect class="cls-2" x="5" y="2" width="1" height="1"/><rect class="cls-1" x="4" y="2" width="1" height="1"/><rect class="cls-1" x="10" y="1" width="1" height="1"/><rect class="cls-2" x="6" y="1" width="4" height="1"/><rect class="cls-1" x="5" y="1" width="1" height="1"/><rect class="cls-1" x="6" width="4" height="1"/></svg>