<svg id="Layer_1" data-name="Layer 1" xmlns="http://www.w3.org/2000/svg" viewBox="0 0 16 16"><defs><style>.cls-1{fill:#f7feff;}.cls-2{fill:#f5f38e;}.cls-3{fill:#231e2b;}.cls-4{fill:#cf8934;}.cls-5{fill:#e2b436;}</style></defs><title>beer</title><rect class="cls-1" x="3" y="15" width="9" height="1"/><rect class="cls-1" x="12" y="13" width="1" height="2"/><polygon class="cls-2" points="8 13 8 12 7 12 7 13 4 13 4 14 11 14 11 13 8 13"/><rect class="cls-1" x="2" y="7" width="1" height="8"/><rect class="cls-1" x="13" y="12" width="1" height="1"/><polygon class="cls-3" points="11 12 11 14 4 14 4 7 3 7 3 15 12 15 12 13 13 13 13 12 11 12"/><rect class="cls-1" x="14" y="11" width="1" height="1"/><rect class="cls-3" x="13" y="11" width="1" height="1"/><rect class="cls-4" x="11" y="11" width="1" height="1"/><path class="cls-5" d="M10,11V10h1V8H10V7h1V6H4v7H7V12H8V11H9v1H8v1h3V11ZM5,8H6V9H5Zm0,2H6v1H5Zm2,0V9H8V8H9V9H8v1Z"/><rect class="cls-2" x="8" y="11" width="1" height="1"/><rect class="cls-2" x="10" y="10" width="1" height="1"/><rect class="cls-2" x="5" y="10" width="1" height="1"/><rect class="cls-3" x="14" y="7" width="1" height="4"/><rect class="cls-2" x="7" y="9" width="1" height="1"/><polygon class="cls-3" points="11 11 12 11 12 10 13 10 13 8 11 8 11 11"/><rect class="cls-2" x="8" y="8" width="1" height="1"/><rect class="cls-2" x="5" y="8" width="1" height="1"/><rect class="cls-1" x="15" y="7" width="1" height="4"/><polygon class="cls-5" points="12 7 12 8 13 8 13 10 12 10 12 12 13 12 13 11 14 11 14 7 12 7"/><rect class="cls-4" x="11" y="7" width="1" height="1"/><rect class="cls-2" x="10" y="7" width="1" height="1"/><rect class="cls-1" x="14" y="6" width="1" height="1"/><polygon class="cls-3" points="12 6 12 5 11 5 11 7 14 7 14 6 12 6"/><rect class="cls-3" x="2" y="3" width="1" height="4"/><rect class="cls-4" x="4" y="5" width="7" height="1"/><polygon class="cls-1" points="4 5 12 5 12 3 11 3 11 2 4 2 4 3 3 3 3 7 4 7 4 5"/><rect class="cls-1" x="1" y="3" width="1" height="4"/><polygon class="cls-1" points="13 5 12 5 12 6 14 6 14 3 13 3 13 5"/><rect class="cls-3" x="12" y="3" width="1" height="2"/><rect class="cls-1" x="12" y="2" width="1" height="1"/><rect class="cls-3" x="11" y="2" width="1" height="1"/><rect class="cls-3" x="3" y="2" width="1" height="1"/><rect class="cls-1" x="2" y="2" width="1" height="1"/><rect class="cls-1" x="11" y="1" width="1" height="1"/><rect class="cls-3" x="4" y="1" width="7" height="1"/><rect class="cls-1" x="3" y="1" width="1" height="1"/><rect class="cls-1" x="4" width="7" height="1"/></svg>