<svg id="Layer_1" data-name="Layer 1" xmlns="http://www.w3.org/2000/svg" viewBox="0 0 16 16"><defs><style>.cls-1{fill:#f7feff;}.cls-2{fill:#231e2b;}.cls-3{fill:#cf8934;}.cls-4{fill:#c2751d;}.cls-5{fill:#f5f38e;}.cls-6{fill:#e2b436;}</style></defs><title>bell</title><rect class="cls-1" x="8" y="15" width="2" height="1"/><rect class="cls-1" x="10" y="14" width="1" height="1"/><rect class="cls-2" x="8" y="14" width="2" height="1"/><rect class="cls-1" x="7" y="14" width="1" height="1"/><rect class="cls-1" x="11" y="13" width="3" height="1"/><rect class="cls-2" x="10" y="13" width="1" height="1"/><rect class="cls-3" x="8" y="13" width="2" height="1"/><rect class="cls-2" x="7" y="13" width="1" height="1"/><rect class="cls-1" x="2" y="13" width="5" height="1"/><rect class="cls-1" x="14" y="11" width="1" height="2"/><rect class="cls-3" x="10" y="12" width="1" height="1"/><rect class="cls-4" x="7" y="12" width="3" height="1"/><polygon class="cls-2" points="7 13 7 12 3 12 3 11 2 11 2 13 7 13"/><polygon class="cls-2" points="13 12 11 12 11 13 14 13 14 11 13 11 13 12"/><rect class="cls-5" x="12" y="11" width="1" height="1"/><rect class="cls-6" x="4" y="11" width="8" height="1"/><rect class="cls-5" x="3" y="11" width="1" height="1"/><rect class="cls-1" x="1" y="11" width="1" height="2"/><rect class="cls-3" x="4" y="10" width="8" height="1"/><rect class="cls-1" x="2" y="5" width="1" height="6"/><rect class="cls-5" x="4" y="5" width="1" height="5"/><rect class="cls-1" x="13" y="5" width="1" height="6"/><rect class="cls-5" x="11" y="5" width="1" height="5"/><rect class="cls-2" x="3" y="5" width="1" height="6"/><rect class="cls-2" x="12" y="5" width="1" height="6"/><rect class="cls-6" x="5" y="5" width="6" height="5"/><rect class="cls-1" x="12" y="4" width="1" height="1"/><rect class="cls-2" x="11" y="4" width="1" height="1"/><rect class="cls-5" x="5" y="4" width="6" height="1"/><rect class="cls-2" x="4" y="4" width="1" height="1"/><rect class="cls-1" x="3" y="4" width="1" height="1"/><rect class="cls-1" x="11" y="3" width="1" height="1"/><rect class="cls-6" x="7" y="3" width="2" height="1"/><polygon class="cls-2" points="7 4 7 2 6 2 6 3 5 3 5 4 7 4"/><rect class="cls-1" x="4" y="3" width="1" height="1"/><rect class="cls-1" x="10" y="2" width="1" height="1"/><polygon class="cls-2" points="9 4 11 4 11 3 10 3 10 2 9 2 9 4"/><rect class="cls-5" x="7" y="2" width="2" height="1"/><rect class="cls-1" x="5" y="2" width="1" height="1"/><rect class="cls-1" x="9" y="1" width="1" height="1"/><rect class="cls-2" x="7" y="1" width="2" height="1"/><rect class="cls-1" x="6" y="1" width="1" height="1"/><rect class="cls-1" x="7" width="2" height="1"/></svg>