<svg id="Layer_1" data-name="Layer 1" xmlns="http://www.w3.org/2000/svg" viewBox="0 0 16 16"><defs><style>.cls-1{fill:#f7feff;}.cls-2{fill:#231e2b;}.cls-3{fill:#cf8934;}.cls-4{fill:#3b2130;}.cls-5{fill:#784028;}.cls-6{fill:#f5f38e;}.cls-7{fill:#e2b436;}.cls-8{fill:#522b29;}</style></defs><title>caution</title><rect class="cls-1" x="2" y="15" width="12" height="1"/><rect class="cls-1" x="14" y="14" width="1" height="1"/><rect class="cls-2" x="2" y="14" width="12" height="1"/><rect class="cls-1" x="1" y="14" width="1" height="1"/><rect class="cls-3" x="13" y="13" width="1" height="1"/><rect class="cls-3" x="2" y="13" width="1" height="1"/><rect class="cls-2" x="1" y="11" width="1" height="3"/><rect class="cls-2" x="14" y="11" width="1" height="3"/><rect class="cls-4" x="8" y="12" width="1" height="1"/><rect class="cls-5" x="7" y="12" width="1" height="1"/><rect class="cls-1" y="11" width="1" height="3"/><rect class="cls-1" x="15" y="11" width="1" height="3"/><rect class="cls-6" x="13" y="11" width="1" height="1"/><path class="cls-7" d="M13,10H12V8H11V6H10V9H9v1H7V9H6V6H5V8H4v2H3v2H2v1H3v1H13V13h1V12H13ZM7,13V11H9v2Z"/><rect class="cls-8" x="8" y="11" width="1" height="1"/><rect class="cls-4" x="7" y="11" width="1" height="1"/><rect class="cls-6" x="2" y="11" width="1" height="1"/><rect class="cls-1" x="14" y="9" width="1" height="2"/><rect class="cls-2" x="2" y="9" width="1" height="2"/><rect class="cls-1" x="1" y="9" width="1" height="2"/><rect class="cls-2" x="13" y="9" width="1" height="2"/><rect class="cls-6" x="12" y="9" width="1" height="1"/><rect class="cls-5" x="7" y="9" width="1" height="1"/><rect class="cls-6" x="3" y="9" width="1" height="1"/><rect class="cls-1" x="13" y="7" width="1" height="2"/><rect class="cls-3" x="9" y="8" width="1" height="1"/><rect class="cls-5" x="6" y="8" width="1" height="1"/><rect class="cls-2" x="3" y="7" width="1" height="2"/><rect class="cls-1" x="2" y="7" width="1" height="2"/><rect class="cls-2" x="12" y="7" width="1" height="2"/><rect class="cls-6" x="11" y="7" width="1" height="1"/><rect class="cls-5" x="9" y="7" width="1" height="1"/><polygon class="cls-4" points="9 6 6 6 6 8 7 8 7 9 8 9 8 10 9 10 9 6"/><rect class="cls-6" x="4" y="7" width="1" height="1"/><rect class="cls-1" x="12" y="5" width="1" height="2"/><rect class="cls-8" x="9" y="6" width="1" height="1"/><rect class="cls-2" x="4" y="5" width="1" height="2"/><rect class="cls-1" x="3" y="5" width="1" height="2"/><rect class="cls-2" x="11" y="5" width="1" height="2"/><rect class="cls-6" x="10" y="5" width="1" height="1"/><rect class="cls-8" x="7" y="5" width="2" height="1"/><polygon class="cls-7" points="7 6 7 5 9 5 9 6 10 6 10 4 9 4 9 3 7 3 7 4 6 4 6 6 7 6"/><rect class="cls-6" x="5" y="5" width="1" height="1"/><rect class="cls-1" x="11" y="3" width="1" height="2"/><rect class="cls-2" x="5" y="3" width="1" height="2"/><rect class="cls-1" x="4" y="3" width="1" height="2"/><rect class="cls-2" x="10" y="3" width="1" height="2"/><rect class="cls-6" x="9" y="3" width="1" height="1"/><rect class="cls-6" x="6" y="3" width="1" height="1"/><rect class="cls-1" x="10" y="2" width="1" height="1"/><rect class="cls-2" x="9" y="2" width="1" height="1"/><rect class="cls-6" x="7" y="2" width="2" height="1"/><rect class="cls-2" x="6" y="2" width="1" height="1"/><rect class="cls-1" x="5" y="2" width="1" height="1"/><rect class="cls-1" x="9" y="1" width="1" height="1"/><rect class="cls-2" x="7" y="1" width="2" height="1"/><rect class="cls-1" x="6" y="1" width="1" height="1"/><rect class="cls-1" x="7" width="2" height="1"/></svg>