<svg id="Layer_1" data-name="Layer 1" xmlns="http://www.w3.org/2000/svg" viewBox="0 0 16 16"><defs><style>.cls-1{fill:#f7feff;}.cls-2{fill:#231e2b;}.cls-3{fill:#b6b7b8;}</style></defs><title>envelope</title><rect class="cls-1" x="1" y="13" width="14" height="1"/><path class="cls-2" d="M15,3H1V13H15ZM2,12V4H14v8Z"/><rect class="cls-3" x="13" y="11" width="1" height="1"/><polygon class="cls-1" points="12 11 12 10 11 10 11 9 10 9 10 10 6 10 6 9 5 9 5 10 4 10 4 11 3 11 3 12 13 12 13 11 12 11"/><rect class="cls-3" x="2" y="11" width="1" height="1"/><rect class="cls-1" y="3" width="1" height="10"/><rect class="cls-3" x="12" y="10" width="1" height="1"/><rect class="cls-3" x="3" y="10" width="1" height="1"/><polygon class="cls-1" points="3 10 4 10 4 9 5 9 5 8 4 8 4 7 3 7 3 6 2 6 2 11 3 11 3 10"/><rect class="cls-3" x="11" y="9" width="1" height="1"/><rect class="cls-3" x="6" y="9" width="4" height="1"/><rect class="cls-3" x="4" y="9" width="1" height="1"/><rect class="cls-3" x="10" y="8" width="1" height="1"/><rect class="cls-3" x="5" y="8" width="1" height="1"/><rect class="cls-3" x="11" y="7" width="1" height="1"/><rect class="cls-3" x="4" y="7" width="1" height="1"/><polygon class="cls-1" points="13 7 12 7 12 8 11 8 11 9 12 9 12 10 13 10 13 11 14 11 14 6 13 6 13 7"/><rect class="cls-3" x="12" y="6" width="1" height="1"/><rect class="cls-3" x="3" y="6" width="1" height="1"/><rect class="cls-3" x="13" y="5" width="1" height="1"/><polygon class="cls-1" points="3 6 4 6 4 7 5 7 5 8 6 8 6 9 10 9 10 8 11 8 11 7 12 7 12 6 13 6 13 5 14 5 14 4 2 4 2 5 3 5 3 6"/><rect class="cls-3" x="2" y="5" width="1" height="1"/><rect class="cls-1" x="15" y="3" width="1" height="10"/><rect class="cls-1" x="1" y="2" width="14" height="1"/></svg>