<svg id="Layer_1" data-name="Layer 1" xmlns="http://www.w3.org/2000/svg" viewBox="0 0 16 16"><defs><style>.cls-1{fill:#f7feff;}.cls-2{fill:#231e2b;}.cls-3{fill:#b0392e;}.cls-4{fill:#892727;}.cls-5{fill:#cf8934;}.cls-6{fill:#e2b436;}.cls-7{fill:#cf6b55;}</style></defs><title>fireguard</title><rect class="cls-1" x="2" y="14" width="12" height="1"/><rect class="cls-1" x="14" y="13" width="1" height="1"/><rect class="cls-2" x="2" y="13" width="12" height="1"/><rect class="cls-1" x="1" y="13" width="1" height="1"/><rect class="cls-1" x="15" y="12" width="1" height="1"/><rect class="cls-2" x="14" y="12" width="1" height="1"/><rect class="cls-3" x="2" y="12" width="12" height="1"/><rect class="cls-2" x="1" y="12" width="1" height="1"/><rect class="cls-1" y="12" width="1" height="1"/><rect class="cls-1" x="14" y="11" width="1" height="1"/><polygon class="cls-4" points="12 12 12 11 10 11 10 10 9 10 9 11 7 11 7 10 6 10 6 11 4 11 4 12 12 12"/><polygon class="cls-2" points="4 12 4 5 3 5 3 11 2 11 2 12 4 12"/><rect class="cls-1" x="1" y="11" width="1" height="1"/><rect class="cls-5" x="7" y="10" width="2" height="1"/><rect class="cls-3" x="4" y="6" width="2" height="5"/><rect class="cls-1" x="2" y="5" width="1" height="6"/><rect class="cls-5" x="9" y="9" width="1" height="1"/><rect class="cls-5" x="6" y="9" width="1" height="1"/><polygon class="cls-6" points="10 9 10 7 6 7 6 9 7 9 7 10 9 10 9 9 10 9"/><rect class="cls-1" x="13" y="5" width="1" height="6"/><rect class="cls-3" x="10" y="6" width="2" height="5"/><rect class="cls-4" x="6" y="4" width="1" height="3"/><polygon class="cls-2" points="12 12 14 12 14 11 13 11 13 5 12 5 12 12"/><rect class="cls-7" x="10" y="5" width="2" height="1"/><rect class="cls-4" x="9" y="4" width="1" height="3"/><rect class="cls-3" x="7" y="4" width="2" height="3"/><rect class="cls-7" x="4" y="5" width="2" height="1"/><rect class="cls-1" x="12" y="4" width="1" height="1"/><rect class="cls-2" x="10" y="4" width="2" height="1"/><rect class="cls-2" x="4" y="4" width="2" height="1"/><rect class="cls-1" x="3" y="4" width="1" height="1"/><rect class="cls-1" x="10" y="3" width="2" height="1"/><rect class="cls-2" x="9" y="3" width="1" height="1"/><rect class="cls-7" x="7" y="3" width="2" height="1"/><rect class="cls-2" x="6" y="3" width="1" height="1"/><rect class="cls-1" x="4" y="3" width="2" height="1"/><rect class="cls-1" x="9" y="2" width="1" height="1"/><rect class="cls-2" x="7" y="2" width="2" height="1"/><rect class="cls-1" x="6" y="2" width="1" height="1"/><rect class="cls-1" x="7" y="1" width="2" height="1"/></svg>