<svg id="Layer_1" data-name="Layer 1" xmlns="http://www.w3.org/2000/svg" viewBox="0 0 16 16"><defs><style>.cls-1{fill:#f7feff;}.cls-2{fill:#231e2b;}.cls-3{fill:#892727;}.cls-4{fill:#cf6b55;}.cls-5{fill:#b0392e;}</style></defs><title>forbidden</title><rect class="cls-1" x="6" y="15" width="4" height="1"/><rect class="cls-1" x="10" y="14" width="2" height="1"/><rect class="cls-2" x="6" y="14" width="4" height="1"/><rect class="cls-1" x="4" y="14" width="2" height="1"/><rect class="cls-1" x="12" y="13" width="1" height="1"/><rect class="cls-2" x="10" y="13" width="2" height="1"/><rect class="cls-3" x="6" y="13" width="4" height="1"/><rect class="cls-2" x="4" y="13" width="2" height="1"/><rect class="cls-1" x="3" y="13" width="1" height="1"/><rect class="cls-1" x="13" y="12" width="1" height="1"/><rect class="cls-2" x="12" y="12" width="1" height="1"/><rect class="cls-4" x="6" y="12" width="4" height="1"/><rect class="cls-2" x="3" y="12" width="1" height="1"/><rect class="cls-1" x="2" y="12" width="1" height="1"/><rect class="cls-4" x="10" y="11" width="1" height="1"/><polygon class="cls-2" points="10 12 10 11 8 11 8 10 7 10 7 11 6 11 6 12 10 12"/><rect class="cls-3" x="5" y="11" width="1" height="1"/><rect class="cls-2" x="2" y="10" width="1" height="2"/><rect class="cls-1" x="14" y="10" width="1" height="2"/><rect class="cls-2" x="13" y="10" width="1" height="2"/><rect class="cls-4" x="11" y="10" width="1" height="1"/><rect class="cls-2" x="10" y="10" width="1" height="1"/><rect class="cls-3" x="6" y="10" width="1" height="1"/><rect class="cls-1" x="1" y="10" width="1" height="2"/><polygon class="cls-1" points="11 10 11 8 10 8 10 9 9 9 9 10 8 10 8 11 10 11 10 10 11 10"/><rect class="cls-2" x="8" y="9" width="1" height="1"/><rect class="cls-3" x="7" y="9" width="1" height="1"/><rect class="cls-5" x="6" y="9" width="1" height="1"/><rect class="cls-4" x="5" y="9" width="1" height="1"/><rect class="cls-2" x="1" y="6" width="1" height="4"/><rect class="cls-2" x="14" y="6" width="1" height="4"/><rect class="cls-2" x="9" y="8" width="1" height="1"/><rect class="cls-3" x="8" y="8" width="1" height="1"/><rect class="cls-5" x="7" y="8" width="1" height="1"/><rect class="cls-4" x="6" y="8" width="1" height="1"/><polygon class="cls-2" points="6 9 6 8 5 8 5 6 4 6 4 10 5 10 5 9 6 9"/><rect class="cls-1" y="6" width="1" height="4"/><polygon class="cls-2" points="10 7 10 8 11 8 11 10 12 10 12 6 11 6 11 7 10 7"/><rect class="cls-3" x="9" y="7" width="1" height="1"/><rect class="cls-5" x="8" y="7" width="1" height="1"/><rect class="cls-4" x="7" y="7" width="1" height="1"/><rect class="cls-2" x="6" y="7" width="1" height="1"/><polygon class="cls-1" points="5 8 6 8 6 7 7 7 7 6 8 6 8 5 6 5 6 6 5 6 5 8"/><rect class="cls-1" x="15" y="6" width="1" height="4"/><rect class="cls-3" x="10" y="6" width="1" height="1"/><rect class="cls-5" x="9" y="6" width="1" height="1"/><rect class="cls-4" x="8" y="6" width="1" height="1"/><rect class="cls-2" x="7" y="6" width="1" height="1"/><rect class="cls-1" x="14" y="4" width="1" height="2"/><polygon class="cls-5" points="13 4 12 4 12 3 4 3 4 4 3 4 3 6 2 6 2 10 3 10 3 12 4 12 4 13 6 13 6 12 5 12 5 11 6 11 6 10 4 10 4 6 5 6 5 5 6 5 6 4 10 4 10 6 12 6 12 11 11 11 11 12 10 12 10 13 12 13 12 12 13 12 13 10 14 10 14 6 13 6 13 4"/><rect class="cls-4" x="9" y="5" width="1" height="1"/><rect class="cls-2" x="5" y="5" width="1" height="1"/><rect class="cls-2" x="2" y="4" width="1" height="2"/><rect class="cls-1" x="1" y="4" width="1" height="2"/><rect class="cls-2" x="13" y="4" width="1" height="2"/><polygon class="cls-2" points="8 5 8 6 9 6 9 5 10 5 10 4 6 4 6 5 8 5"/><rect class="cls-1" x="13" y="3" width="1" height="1"/><rect class="cls-2" x="12" y="3" width="1" height="1"/><rect class="cls-2" x="3" y="3" width="1" height="1"/><rect class="cls-1" x="2" y="3" width="1" height="1"/><rect class="cls-1" x="12" y="2" width="1" height="1"/><rect class="cls-2" x="10" y="2" width="2" height="1"/><rect class="cls-4" x="6" y="2" width="4" height="1"/><rect class="cls-2" x="4" y="2" width="2" height="1"/><rect class="cls-1" x="3" y="2" width="1" height="1"/><rect class="cls-1" x="10" y="1" width="2" height="1"/><rect class="cls-2" x="6" y="1" width="4" height="1"/><rect class="cls-1" x="4" y="1" width="2" height="1"/><rect class="cls-1" x="6" width="4" height="1"/></svg>