<svg id="Layer_1" data-name="Layer 1" xmlns="http://www.w3.org/2000/svg" viewBox="0 0 16 16"><defs><style>.cls-1{fill:#f7feff;}.cls-2{fill:#231e2b;}.cls-3{fill:#f5f38e;}.cls-4{fill:#e2b436;}.cls-5{fill:#cf8934;}</style></defs><title>golden_cup</title><rect class="cls-1" x="5" y="15" width="6" height="1"/><rect class="cls-1" x="11" y="13" width="1" height="2"/><polygon class="cls-2" points="10 14 6 14 6 13 5 13 5 15 11 15 11 13 10 13 10 14"/><rect class="cls-3" x="9" y="13" width="1" height="1"/><rect class="cls-4" x="7" y="13" width="2" height="1"/><rect class="cls-3" x="6" y="13" width="1" height="1"/><rect class="cls-1" x="4" y="13" width="1" height="2"/><rect class="cls-1" x="5" y="10" width="1" height="3"/><polygon class="cls-3" points="8 12 7 12 7 13 9 13 9 11 8 11 8 12"/><rect class="cls-4" x="7" y="11" width="1" height="1"/><rect class="cls-1" x="10" y="10" width="1" height="3"/><polygon class="cls-2" points="6 13 7 13 7 9 5 9 5 10 6 10 6 13"/><rect class="cls-1" x="11" y="9" width="2" height="1"/><polygon class="cls-2" points="9 9 9 13 10 13 10 10 11 10 11 9 9 9"/><rect class="cls-5" x="7" y="9" width="2" height="2"/><rect class="cls-1" x="3" y="9" width="2" height="1"/><rect class="cls-1" x="13" y="8" width="1" height="1"/><rect class="cls-2" x="11" y="8" width="2" height="1"/><rect class="cls-5" x="10" y="8" width="1" height="1"/><polygon class="cls-4" points="9 8 9 7 10 7 10 3 4 3 4 7 5 7 5 8 6 8 6 9 10 9 10 8 9 8"/><rect class="cls-5" x="5" y="8" width="1" height="1"/><rect class="cls-2" x="3" y="8" width="2" height="1"/><rect class="cls-1" x="2" y="8" width="1" height="1"/><rect class="cls-1" x="14" y="7" width="1" height="1"/><rect class="cls-2" x="13" y="7" width="1" height="1"/><rect class="cls-5" x="11" y="7" width="2" height="1"/><rect class="cls-4" x="10" y="7" width="1" height="1"/><rect class="cls-3" x="9" y="7" width="1" height="1"/><rect class="cls-5" x="3" y="7" width="2" height="1"/><rect class="cls-2" x="2" y="7" width="1" height="1"/><rect class="cls-1" x="1" y="7" width="1" height="1"/><rect class="cls-5" x="13" y="6" width="1" height="1"/><rect class="cls-2" x="3" y="4" width="1" height="3"/><rect class="cls-5" x="2" y="6" width="1" height="1"/><rect class="cls-2" x="1" y="3" width="1" height="4"/><rect class="cls-2" x="14" y="3" width="1" height="4"/><rect class="cls-2" x="12" y="4" width="1" height="3"/><rect class="cls-4" x="2" y="4" width="1" height="2"/><rect class="cls-1" y="3" width="1" height="4"/><rect class="cls-4" x="13" y="4" width="1" height="2"/><rect class="cls-1" x="15" y="3" width="1" height="4"/><rect class="cls-3" x="13" y="3" width="1" height="1"/><rect class="cls-5" x="12" y="3" width="1" height="1"/><rect class="cls-4" x="11" y="3" width="1" height="4"/><rect class="cls-5" x="3" y="3" width="1" height="1"/><rect class="cls-3" x="2" y="3" width="1" height="1"/><rect class="cls-1" x="14" y="2" width="1" height="1"/><rect class="cls-2" x="12" y="2" width="2" height="1"/><polygon class="cls-3" points="10 3 10 7 11 7 11 3 12 3 12 2 4 2 4 3 10 3"/><rect class="cls-2" x="2" y="2" width="2" height="1"/><rect class="cls-1" x="1" y="2" width="1" height="1"/><rect class="cls-1" x="12" y="1" width="2" height="1"/><rect class="cls-2" x="4" y="1" width="8" height="1"/><rect class="cls-1" x="2" y="1" width="2" height="1"/><rect class="cls-1" x="4" width="8" height="1"/></svg>