<svg id="Layer_1" data-name="Layer 1" xmlns="http://www.w3.org/2000/svg" viewBox="0 0 16 16"><defs><style>.cls-1{fill:#f7feff;}.cls-2{fill:#231e2b;}.cls-3{fill:#892727;}.cls-4{fill:#cf6b55;}.cls-5{fill:#b0392e;}</style></defs><title>heart</title><rect class="cls-1" x="7" y="14" width="2" height="1"/><rect class="cls-1" x="9" y="13" width="1" height="1"/><rect class="cls-2" x="7" y="13" width="2" height="1"/><rect class="cls-1" x="6" y="13" width="1" height="1"/><rect class="cls-1" x="10" y="12" width="1" height="1"/><rect class="cls-2" x="9" y="12" width="1" height="1"/><rect class="cls-2" x="6" y="12" width="1" height="1"/><rect class="cls-1" x="5" y="12" width="1" height="1"/><rect class="cls-1" x="11" y="11" width="1" height="1"/><rect class="cls-2" x="10" y="11" width="1" height="1"/><polygon class="cls-3" points="6 11 6 12 7 12 7 13 9 13 9 12 10 12 10 11 6 11"/><rect class="cls-2" x="5" y="11" width="1" height="1"/><rect class="cls-1" x="4" y="11" width="1" height="1"/><rect class="cls-1" x="12" y="10" width="1" height="1"/><rect class="cls-2" x="11" y="10" width="1" height="1"/><rect class="cls-3" x="10" y="10" width="1" height="1"/><rect class="cls-3" x="5" y="10" width="1" height="1"/><rect class="cls-2" x="4" y="10" width="1" height="1"/><rect class="cls-1" x="3" y="10" width="1" height="1"/><rect class="cls-1" x="13" y="9" width="1" height="1"/><rect class="cls-2" x="12" y="9" width="1" height="1"/><rect class="cls-3" x="11" y="9" width="1" height="1"/><rect class="cls-3" x="4" y="9" width="1" height="1"/><rect class="cls-2" x="3" y="9" width="1" height="1"/><rect class="cls-1" x="2" y="9" width="1" height="1"/><rect class="cls-1" x="14" y="8" width="1" height="1"/><rect class="cls-2" x="13" y="8" width="1" height="1"/><rect class="cls-3" x="12" y="8" width="1" height="1"/><rect class="cls-3" x="3" y="8" width="1" height="1"/><rect class="cls-2" x="2" y="8" width="1" height="1"/><rect class="cls-1" x="1" y="8" width="1" height="1"/><rect class="cls-3" x="13" y="7" width="1" height="1"/><rect class="cls-3" x="2" y="7" width="1" height="1"/><rect class="cls-2" x="1" y="4" width="1" height="4"/><rect class="cls-2" x="14" y="4" width="1" height="4"/><rect class="cls-1" y="4" width="1" height="4"/><rect class="cls-4" x="7" y="5" width="2" height="1"/><rect class="cls-1" x="15" y="4" width="1" height="4"/><rect class="cls-4" x="13" y="4" width="1" height="1"/><polygon class="cls-5" points="13 4 10 4 10 5 9 5 9 6 7 6 7 5 6 5 6 4 3 4 3 5 2 5 2 7 3 7 3 8 4 8 4 9 5 9 5 10 6 10 6 11 10 11 10 10 11 10 11 9 12 9 12 8 13 8 13 7 14 7 14 5 13 5 13 4"/><rect class="cls-4" x="9" y="4" width="1" height="1"/><rect class="cls-2" x="7" y="4" width="2" height="1"/><rect class="cls-4" x="6" y="4" width="1" height="1"/><rect class="cls-4" x="2" y="4" width="1" height="1"/><rect class="cls-1" x="14" y="3" width="1" height="1"/><rect class="cls-2" x="13" y="3" width="1" height="1"/><rect class="cls-4" x="10" y="3" width="3" height="1"/><rect class="cls-2" x="9" y="3" width="1" height="1"/><rect class="cls-1" x="7" y="3" width="2" height="1"/><rect class="cls-2" x="6" y="3" width="1" height="1"/><rect class="cls-4" x="3" y="3" width="3" height="1"/><rect class="cls-2" x="2" y="3" width="1" height="1"/><rect class="cls-1" x="1" y="3" width="1" height="1"/><rect class="cls-1" x="13" y="2" width="1" height="1"/><rect class="cls-2" x="10" y="2" width="3" height="1"/><rect class="cls-1" x="9" y="2" width="1" height="1"/><rect class="cls-1" x="6" y="2" width="1" height="1"/><rect class="cls-2" x="3" y="2" width="3" height="1"/><rect class="cls-1" x="2" y="2" width="1" height="1"/><rect class="cls-1" x="10" y="1" width="3" height="1"/><rect class="cls-1" x="3" y="1" width="3" height="1"/></svg>