<svg id="Layer_1" data-name="Layer 1" xmlns="http://www.w3.org/2000/svg" viewBox="0 0 16 16"><defs><style>.cls-1{fill:#f7feff;}.cls-2{fill:#231e2b;}.cls-3{fill:#a6644b;}.cls-4{fill:#e8be9b;}.cls-5{fill:#c7936b;}</style></defs><title>hourglass</title><rect class="cls-1" x="2" y="15" width="12" height="1"/><rect class="cls-1" x="14" y="13" width="1" height="2"/><polygon class="cls-2" points="13 14 3 14 3 13 2 13 2 15 14 15 14 13 13 13 13 14"/><rect class="cls-3" x="3" y="13" width="10" height="1"/><rect class="cls-1" x="1" y="13" width="1" height="2"/><rect class="cls-1" x="13" y="11" width="1" height="2"/><rect class="cls-1" x="2" y="11" width="1" height="2"/><polygon class="cls-2" points="12 12 4 12 4 11 3 11 3 13 13 13 13 11 12 11 12 12"/><rect class="cls-1" x="11" y="11" width="1" height="1"/><rect class="cls-4" x="10" y="11" width="1" height="1"/><rect class="cls-5" x="6" y="11" width="4" height="1"/><rect class="cls-4" x="5" y="11" width="1" height="1"/><rect class="cls-1" x="4" y="11" width="1" height="1"/><rect class="cls-1" x="12" y="10" width="1" height="1"/><rect class="cls-2" x="11" y="10" width="1" height="1"/><polygon class="cls-1" points="5 10 5 11 7 11 7 9 6 9 6 10 5 10"/><rect class="cls-2" x="4" y="10" width="1" height="1"/><rect class="cls-1" x="3" y="10" width="1" height="1"/><rect class="cls-1" x="11" y="9" width="1" height="1"/><rect class="cls-2" x="10" y="9" width="1" height="1"/><rect class="cls-2" x="5" y="9" width="1" height="1"/><rect class="cls-1" x="4" y="9" width="1" height="1"/><polygon class="cls-1" points="9 8 8 8 8 11 11 11 11 10 10 10 10 9 9 9 9 8"/><rect class="cls-2" x="6" y="7" width="1" height="2"/><rect class="cls-1" x="5" y="7" width="1" height="2"/><rect class="cls-1" x="10" y="7" width="1" height="2"/><rect class="cls-2" x="9" y="7" width="1" height="2"/><rect class="cls-5" x="8" y="7" width="1" height="1"/><rect class="cls-1" x="11" y="6" width="1" height="1"/><rect class="cls-2" x="10" y="6" width="1" height="1"/><rect class="cls-5" x="9" y="6" width="1" height="1"/><polygon class="cls-4" points="7 11 8 11 8 7 9 7 9 6 10 6 10 5 6 5 6 6 7 6 7 11"/><rect class="cls-5" x="6" y="6" width="1" height="1"/><rect class="cls-2" x="5" y="6" width="1" height="1"/><rect class="cls-1" x="4" y="6" width="1" height="1"/><rect class="cls-1" x="12" y="5" width="1" height="1"/><rect class="cls-2" x="11" y="5" width="1" height="1"/><rect class="cls-5" x="10" y="5" width="1" height="1"/><rect class="cls-5" x="5" y="5" width="1" height="1"/><rect class="cls-2" x="4" y="5" width="1" height="1"/><rect class="cls-1" x="3" y="5" width="1" height="1"/><rect class="cls-1" x="4" y="4" width="8" height="1"/><polygon class="cls-2" points="4 4 12 4 12 5 13 5 13 3 3 3 3 5 4 5 4 4"/><rect class="cls-1" x="13" y="3" width="1" height="2"/><rect class="cls-1" x="2" y="3" width="1" height="2"/><rect class="cls-1" x="14" y="1" width="1" height="2"/><rect class="cls-3" x="3" y="2" width="10" height="1"/><polygon class="cls-2" points="3 2 13 2 13 3 14 3 14 1 2 1 2 3 3 3 3 2"/><rect class="cls-1" x="1" y="1" width="1" height="2"/><rect class="cls-1" x="2" width="12" height="1"/></svg>