<svg id="Layer_1" data-name="Layer 1" xmlns="http://www.w3.org/2000/svg" viewBox="0 0 16 16"><defs><style>.cls-1{fill:#f7feff;}.cls-2{fill:#231e2b;}.cls-3{fill:#e2b436;}.cls-4{fill:#cf8934;}.cls-5{fill:#f5f38e;}.cls-6{fill:#c2751d;}</style></defs><title>key_2</title><rect class="cls-1" x="7" y="15" width="2" height="1"/><rect class="cls-1" x="9" y="14" width="1" height="1"/><rect class="cls-2" x="7" y="14" width="2" height="1"/><rect class="cls-1" x="6" y="14" width="1" height="1"/><rect class="cls-3" x="8" y="13" width="1" height="1"/><rect class="cls-2" x="6" y="8" width="1" height="6"/><rect class="cls-2" x="9" y="8" width="1" height="6"/><rect class="cls-4" x="8" y="12" width="1" height="1"/><rect class="cls-5" x="7" y="12" width="1" height="2"/><rect class="cls-1" x="5" y="8" width="1" height="6"/><rect class="cls-4" x="7" y="11" width="1" height="1"/><rect class="cls-3" x="8" y="10" width="1" height="2"/><rect class="cls-5" x="7" y="10" width="1" height="1"/><rect class="cls-4" x="8" y="9" width="1" height="1"/><rect class="cls-3" x="7" y="9" width="1" height="1"/><rect class="cls-1" x="10" y="8" width="1" height="6"/><rect class="cls-6" x="7" y="8" width="2" height="1"/><rect class="cls-1" x="11" y="7" width="1" height="1"/><rect class="cls-2" x="10" y="7" width="1" height="1"/><rect class="cls-4" x="6" y="7" width="4" height="1"/><rect class="cls-2" x="5" y="7" width="1" height="1"/><rect class="cls-1" x="4" y="7" width="1" height="1"/><rect class="cls-4" x="10" y="6" width="1" height="1"/><rect class="cls-4" x="5" y="6" width="1" height="1"/><rect class="cls-2" x="4" y="3" width="1" height="4"/><rect class="cls-4" x="6" y="5" width="2" height="1"/><rect class="cls-3" x="5" y="3" width="1" height="3"/><rect class="cls-1" x="3" y="3" width="1" height="4"/><rect class="cls-1" x="12" y="3" width="1" height="4"/><rect class="cls-2" x="6" y="3" width="2" height="2"/><rect class="cls-2" x="11" y="3" width="1" height="4"/><rect class="cls-5" x="10" y="3" width="1" height="1"/><polygon class="cls-3" points="8 3 8 6 6 6 6 7 10 7 10 6 11 6 11 4 10 4 10 3 8 3"/><rect class="cls-1" x="11" y="2" width="1" height="1"/><rect class="cls-2" x="10" y="2" width="1" height="1"/><rect class="cls-5" x="8" y="2" width="2" height="1"/><rect class="cls-3" x="6" y="2" width="2" height="1"/><rect class="cls-2" x="5" y="2" width="1" height="1"/><rect class="cls-1" x="4" y="2" width="1" height="1"/><rect class="cls-1" x="10" y="1" width="1" height="1"/><rect class="cls-2" x="6" y="1" width="4" height="1"/><rect class="cls-1" x="5" y="1" width="1" height="1"/><rect class="cls-1" x="6" width="4" height="1"/></svg>