<svg id="Layer_1" data-name="Layer 1" xmlns="http://www.w3.org/2000/svg" viewBox="0 0 16 16"><defs><style>.cls-1{fill:#f7feff;}.cls-2{fill:#231e2b;}.cls-3{fill:#f5f38e;}.cls-4{fill:#cf8934;}.cls-5{fill:#e2b436;}.cls-6{fill:#b6b7b8;}</style></defs><title>lemonade</title><rect class="cls-1" x="4" y="15" width="8" height="1"/><polygon class="cls-2" points="12 5 11 5 11 4 12 4 12 3 10 3 10 6 11 6 11 14 5 14 5 7 3 7 3 8 4 8 4 15 12 15 12 5"/><rect class="cls-1" x="3" y="8" width="1" height="7"/><rect class="cls-3" x="8" y="12" width="1" height="1"/><rect class="cls-4" x="7" y="11" width="1" height="3"/><polygon class="cls-5" points="7 11 8 11 8 8 7 8 7 9 6 9 6 10 5 10 5 14 7 14 7 11"/><rect class="cls-3" x="9" y="10" width="1" height="1"/><rect class="cls-4" x="8" y="8" width="1" height="3"/><rect class="cls-3" x="5" y="9" width="1" height="1"/><polygon class="cls-5" points="10 9 9 9 9 10 10 10 10 11 8 11 8 12 9 12 9 13 8 13 8 14 11 14 11 8 10 8 10 9"/><rect class="cls-3" x="9" y="8" width="1" height="1"/><rect class="cls-3" x="6" y="8" width="1" height="1"/><rect class="cls-5" x="5" y="8" width="1" height="1"/><polygon class="cls-1" points="9 7 9 8 11 8 11 6 10 6 10 7 9 7"/><rect class="cls-6" x="8" y="7" width="1" height="1"/><rect class="cls-1" x="2" y="7" width="1" height="1"/><rect class="cls-6" x="9" y="6" width="1" height="1"/><polygon class="cls-1" points="5 8 8 8 8 7 9 7 9 6 5 6 5 8"/><rect class="cls-2" x="2" y="4" width="1" height="3"/><polygon class="cls-1" points="12 5 12 15 13 15 13 6 14 6 14 5 12 5"/><rect class="cls-1" x="9" y="3" width="1" height="3"/><polygon class="cls-5" points="4 5 4 7 5 7 5 6 6 6 6 5 4 5"/><polygon class="cls-3" points="3 7 4 7 4 5 6 5 6 4 3 4 3 7"/><rect class="cls-1" x="1" y="4" width="1" height="3"/><rect class="cls-1" x="14" y="3" width="1" height="2"/><rect class="cls-1" x="11" y="4" width="1" height="1"/><polygon class="cls-2" points="8 5 7 5 7 4 6 4 6 6 9 6 9 3 8 3 8 5"/><polygon class="cls-2" points="13 4 12 4 12 5 14 5 14 3 13 3 13 4"/><rect class="cls-1" x="12" y="3" width="1" height="1"/><polygon class="cls-1" points="7 4 7 5 8 5 8 3 6 3 6 4 7 4"/><rect class="cls-2" x="3" y="3" width="3" height="1"/><rect class="cls-1" x="2" y="3" width="1" height="1"/><rect class="cls-1" x="13" y="2" width="1" height="1"/><rect class="cls-2" x="12" y="2" width="1" height="1"/><rect class="cls-1" x="10" y="2" width="2" height="1"/><rect class="cls-2" x="9" y="2" width="1" height="1"/><rect class="cls-1" x="8" y="2" width="1" height="1"/><rect class="cls-1" x="3" y="2" width="3" height="1"/><rect class="cls-1" x="12" y="1" width="1" height="1"/><rect class="cls-2" x="10" y="1" width="2" height="1"/><rect class="cls-1" x="9" y="1" width="1" height="1"/><rect class="cls-1" x="10" width="2" height="1"/></svg>