<svg id="Layer_1" data-name="Layer 1" xmlns="http://www.w3.org/2000/svg" viewBox="0 0 16 16"><defs><style>.cls-1{fill:#f7feff;}.cls-2{fill:#231e2b;}.cls-3{fill:#f5f38e;}.cls-4{fill:#cf8934;}.cls-5{fill:#e2b436;}</style></defs><title>lightning</title><rect class="cls-1" x="4" y="15" width="2" height="1"/><rect class="cls-1" x="6" y="14" width="1" height="1"/><polygon class="cls-2" points="5 14 5 13 4 13 4 15 6 15 6 14 5 14"/><rect class="cls-1" x="7" y="13" width="1" height="1"/><rect class="cls-2" x="6" y="13" width="1" height="1"/><rect class="cls-3" x="5" y="13" width="1" height="1"/><rect class="cls-1" x="3" y="13" width="1" height="2"/><rect class="cls-1" x="8" y="12" width="1" height="1"/><rect class="cls-2" x="7" y="12" width="1" height="1"/><rect class="cls-2" x="5" y="11" width="1" height="2"/><rect class="cls-1" x="4" y="11" width="1" height="2"/><rect class="cls-1" x="9" y="11" width="1" height="1"/><rect class="cls-2" x="8" y="11" width="1" height="1"/><rect class="cls-4" x="7" y="11" width="1" height="1"/><rect class="cls-3" x="6" y="11" width="1" height="2"/><rect class="cls-1" x="10" y="10" width="1" height="1"/><rect class="cls-2" x="9" y="10" width="1" height="1"/><rect class="cls-4" x="8" y="10" width="1" height="1"/><polygon class="cls-1" points="6 9 3 9 3 10 5 10 5 11 6 11 6 9"/><rect class="cls-1" x="11" y="9" width="1" height="1"/><rect class="cls-2" x="10" y="9" width="1" height="1"/><rect class="cls-4" x="9" y="9" width="1" height="1"/><rect class="cls-3" x="7" y="9" width="1" height="2"/><rect class="cls-1" x="12" y="8" width="1" height="1"/><rect class="cls-2" x="11" y="8" width="1" height="1"/><rect class="cls-4" x="10" y="8" width="1" height="1"/><polygon class="cls-2" points="6 9 6 11 7 11 7 9 8 9 8 8 4 8 4 6 3 6 3 9 6 9"/><rect class="cls-4" x="11" y="7" width="1" height="1"/><rect class="cls-1" x="2" y="6" width="1" height="3"/><rect class="cls-1" x="13" y="5" width="1" height="3"/><rect class="cls-3" x="10" y="6" width="2" height="1"/><rect class="cls-3" x="4" y="6" width="1" height="2"/><polygon class="cls-2" points="11 5 11 4 10 4 10 5 9 5 9 6 12 6 12 8 13 8 13 5 11 5"/><rect class="cls-4" x="8" y="5" width="1" height="1"/><rect class="cls-3" x="5" y="4" width="1" height="2"/><rect class="cls-2" x="4" y="4" width="1" height="2"/><rect class="cls-1" x="3" y="4" width="1" height="2"/><rect class="cls-4" x="9" y="4" width="1" height="1"/><polygon class="cls-1" points="12 4 11 4 11 5 13 5 13 3 12 3 12 4"/><rect class="cls-2" x="11" y="3" width="1" height="1"/><rect class="cls-4" x="10" y="3" width="1" height="1"/><polygon class="cls-5" points="7 4 6 4 6 6 5 6 5 8 8 8 8 10 9 10 9 9 10 9 10 8 11 8 11 7 10 7 10 6 8 6 8 5 9 5 9 4 10 4 10 3 11 3 11 2 7 2 7 4"/><rect class="cls-3" x="6" y="2" width="1" height="2"/><rect class="cls-2" x="5" y="2" width="1" height="2"/><rect class="cls-1" x="4" y="2" width="1" height="2"/><rect class="cls-1" x="13" y="1" width="1" height="2"/><rect class="cls-4" x="11" y="2" width="1" height="1"/><polygon class="cls-2" points="6 1 6 2 12 2 12 3 13 3 13 1 6 1"/><rect class="cls-1" x="5" y="1" width="1" height="1"/><rect class="cls-1" x="6" width="7" height="1"/></svg>