<svg id="Layer_1" data-name="Layer 1" xmlns="http://www.w3.org/2000/svg" viewBox="0 0 16 16"><defs><style>.cls-1{fill:#f7feff;}.cls-2{fill:#231e2b;}.cls-3{fill:#892727;}.cls-4{fill:#3d56d1;}.cls-5{fill:#5d87da;}.cls-6{fill:#b0392e;}.cls-7{fill:#cf6b55;}.cls-8{fill:#5eb0db;}</style></defs><title>magnet</title><rect class="cls-1" x="6" y="15" width="4" height="1"/><rect class="cls-1" x="10" y="14" width="2" height="1"/><rect class="cls-2" x="6" y="14" width="4" height="1"/><rect class="cls-1" x="4" y="14" width="2" height="1"/><rect class="cls-1" x="12" y="13" width="1" height="1"/><rect class="cls-2" x="10" y="13" width="2" height="1"/><rect class="cls-3" x="8" y="13" width="2" height="1"/><rect class="cls-4" x="6" y="13" width="2" height="1"/><rect class="cls-2" x="4" y="13" width="2" height="1"/><rect class="cls-1" x="3" y="13" width="1" height="1"/><rect class="cls-1" x="13" y="12" width="1" height="1"/><rect class="cls-2" x="12" y="12" width="1" height="1"/><rect class="cls-3" x="11" y="12" width="1" height="1"/><polygon class="cls-5" points="8 13 8 11 6 11 6 10 5 10 5 6 2 6 2 9 3 9 3 11 4 11 4 12 5 12 5 13 8 13"/><rect class="cls-4" x="4" y="12" width="1" height="1"/><rect class="cls-2" x="3" y="12" width="1" height="1"/><rect class="cls-1" x="2" y="12" width="1" height="1"/><rect class="cls-3" x="12" y="11" width="1" height="1"/><rect class="cls-4" x="3" y="11" width="1" height="1"/><rect class="cls-2" x="2" y="10" width="1" height="2"/><rect class="cls-1" x="14" y="10" width="1" height="2"/><rect class="cls-2" x="13" y="10" width="1" height="2"/><polygon class="cls-6" points="10 10 10 11 8 11 8 13 11 13 11 12 12 12 12 11 13 11 13 9 14 9 14 6 11 6 11 10 10 10"/><rect class="cls-7" x="8" y="10" width="2" height="1"/><rect class="cls-8" x="6" y="10" width="2" height="1"/><rect class="cls-1" x="1" y="10" width="1" height="2"/><rect class="cls-3" x="13" y="9" width="1" height="1"/><rect class="cls-7" x="10" y="9" width="1" height="1"/><rect class="cls-2" x="6" y="9" width="4" height="1"/><rect class="cls-8" x="5" y="9" width="1" height="1"/><rect class="cls-4" x="2" y="9" width="1" height="1"/><path class="cls-2" d="M2,5H5V9H6V1H1v9H2ZM2,2H5V4H2Z"/><path class="cls-2" d="M15,1H10V9h1V5h3v5h1ZM11,4V2h3V4Z"/><rect class="cls-1" y="1" width="1" height="9"/><rect class="cls-3" x="11" y="5" width="3" height="1"/><rect class="cls-4" x="2" y="5" width="3" height="1"/><rect class="cls-1" x="2" y="2" width="3" height="2"/><rect class="cls-1" x="11" y="2" width="3" height="2"/><polygon class="cls-1" points="6 9 10 9 10 1 9 1 9 8 7 8 7 1 6 1 6 9"/><rect class="cls-1" x="15" y="1" width="1" height="9"/><rect class="cls-1" x="10" width="5" height="1"/><rect class="cls-1" x="1" width="5" height="1"/></svg>