<svg id="Layer_1" data-name="Layer 1" xmlns="http://www.w3.org/2000/svg" viewBox="0 0 16 16"><defs><style>.cls-1{fill:#f7feff;}.cls-2{fill:#231e2b;}.cls-3{fill:#cf8934;}.cls-4{fill:#c2751d;}.cls-5{fill:#e2b436;}.cls-6{fill:#892727;}.cls-7{fill:#b0392e;}.cls-8{fill:#f5f38e;}.cls-9{fill:#cf6b55;}</style></defs><title>medal_2</title><rect class="cls-1" x="5" y="14" width="6" height="1"/><rect class="cls-1" x="11" y="13" width="1" height="1"/><rect class="cls-2" x="5" y="13" width="6" height="1"/><rect class="cls-1" x="4" y="13" width="1" height="1"/><rect class="cls-1" x="12" y="12" width="1" height="1"/><rect class="cls-2" x="11" y="12" width="1" height="1"/><rect class="cls-3" x="5" y="12" width="6" height="1"/><rect class="cls-2" x="4" y="12" width="1" height="1"/><rect class="cls-1" x="3" y="12" width="1" height="1"/><rect class="cls-3" x="11" y="11" width="1" height="1"/><rect class="cls-3" x="4" y="11" width="1" height="1"/><rect class="cls-2" x="3" y="6" width="1" height="6"/><rect class="cls-2" x="12" y="6" width="1" height="6"/><polygon class="cls-4" points="9 10 9 7 7 7 7 8 6 8 6 9 7 9 7 10 6 10 6 11 10 11 10 10 9 10"/><rect class="cls-1" x="2" y="6" width="1" height="6"/><rect class="cls-3" x="11" y="7" width="1" height="1"/><path class="cls-5" d="M11,7H10V6H6V7H5V8H4v3H5v1h6V11h1V8H11ZM6,11V10H7V9H6V8H7V7H9v3h1v1Z"/><rect class="cls-3" x="4" y="7" width="1" height="1"/><rect class="cls-1" x="13" y="6" width="1" height="6"/><rect class="cls-6" x="11" y="6" width="1" height="1"/><rect class="cls-3" x="10" y="6" width="1" height="1"/><rect class="cls-3" x="5" y="6" width="1" height="1"/><rect class="cls-6" x="4" y="6" width="1" height="1"/><rect class="cls-1" x="14" y="5" width="1" height="1"/><rect class="cls-2" x="13" y="5" width="1" height="1"/><rect class="cls-6" x="12" y="5" width="1" height="1"/><rect class="cls-7" x="10" y="5" width="2" height="1"/><rect class="cls-8" x="6" y="5" width="4" height="1"/><rect class="cls-7" x="4" y="5" width="2" height="1"/><rect class="cls-6" x="3" y="5" width="1" height="1"/><rect class="cls-2" x="2" y="5" width="1" height="1"/><rect class="cls-1" x="1" y="5" width="1" height="1"/><rect class="cls-6" x="13" y="4" width="1" height="1"/><rect class="cls-7" x="12" y="4" width="1" height="1"/><rect class="cls-9" x="11" y="4" width="1" height="1"/><rect class="cls-2" x="5" y="4" width="6" height="1"/><rect class="cls-9" x="4" y="4" width="1" height="1"/><rect class="cls-7" x="3" y="4" width="1" height="1"/><rect class="cls-6" x="2" y="4" width="1" height="1"/><polygon class="cls-2" points="2 3 4 3 4 2 1 2 1 5 2 5 2 3"/><polygon class="cls-2" points="15 2 12 2 12 3 14 3 14 5 15 5 15 2"/><rect class="cls-9" x="12" y="3" width="2" height="1"/><rect class="cls-2" x="11" y="3" width="1" height="1"/><rect class="cls-1" x="5" y="3" width="6" height="1"/><rect class="cls-2" x="4" y="3" width="1" height="1"/><rect class="cls-9" x="2" y="3" width="2" height="1"/><rect class="cls-1" y="2" width="1" height="3"/><rect class="cls-1" x="15" y="2" width="1" height="3"/><rect class="cls-1" x="11" y="2" width="1" height="1"/><rect class="cls-1" x="4" y="2" width="1" height="1"/><rect class="cls-1" x="12" y="1" width="3" height="1"/><rect class="cls-1" x="1" y="1" width="3" height="1"/></svg>