<svg id="Layer_1" data-name="Layer 1" xmlns="http://www.w3.org/2000/svg" viewBox="0 0 16 16"><defs><style>.cls-1{fill:#f7feff;}.cls-2{fill:#231e2b;}.cls-3{fill:#4fab59;}.cls-4{fill:#356e69;}.cls-5{fill:#acc756;}.cls-6{fill:#c7936b;}.cls-7{fill:#e8be9b;}</style></defs><title>middle_finger</title><rect class="cls-1" x="2" y="15" width="13" height="1"/><path class="cls-2" d="M15,6H14v4H2v5H15ZM3,14V11H14v3Z"/><rect class="cls-1" x="1" y="10" width="1" height="5"/><polygon class="cls-3" points="14 12 12 12 12 13 11 13 11 12 3 12 3 14 14 14 14 12"/><rect class="cls-4" x="11" y="12" width="1" height="1"/><rect class="cls-5" x="3" y="11" width="11" height="1"/><rect class="cls-6" x="2" y="9" width="12" height="1"/><rect class="cls-2" x="1" y="8" width="1" height="2"/><rect class="cls-1" y="8" width="1" height="2"/><rect class="cls-1" x="1" y="5" width="1" height="3"/><rect class="cls-1" x="15" y="6" width="1" height="9"/><rect class="cls-2" x="2" y="5" width="1" height="3"/><rect class="cls-1" x="14" y="5" width="1" height="1"/><rect class="cls-2" x="13" y="5" width="1" height="1"/><polygon class="cls-7" points="13 5 9 5 9 6 8 6 8 2 6 2 6 6 5 6 5 5 3 5 3 8 2 8 2 9 14 9 14 6 13 6 13 5"/><rect class="cls-6" x="8" y="5" width="1" height="1"/><rect class="cls-6" x="5" y="5" width="1" height="1"/><rect class="cls-1" x="13" y="4" width="1" height="1"/><polygon class="cls-2" points="6 5 6 2 5 2 5 4 3 4 3 5 6 5"/><rect class="cls-1" x="2" y="4" width="1" height="1"/><polygon class="cls-1" points="9 4 13 4 13 3 10 3 10 2 9 2 9 4"/><polygon class="cls-1" points="5 4 5 2 4 2 4 3 3 3 3 4 5 4"/><polygon class="cls-2" points="8 5 13 5 13 4 9 4 9 2 8 2 8 5"/><rect class="cls-1" x="8" y="1" width="1" height="1"/><rect class="cls-2" x="6" y="1" width="2" height="1"/><rect class="cls-1" x="5" y="1" width="1" height="1"/><rect class="cls-1" x="6" width="2" height="1"/></svg>