<svg id="Layer_1" data-name="Layer 1" xmlns="http://www.w3.org/2000/svg" viewBox="0 0 16 16"><defs><style>.cls-1{fill:#f7feff;}.cls-2{fill:#231e2b;}.cls-3{fill:#b6b7b8;}.cls-4{fill:#998b8c;}.cls-5{fill:#cf8934;}.cls-6{fill:#e2b436;}.cls-7{fill:#b0392e;}.cls-8{fill:#892727;}</style></defs><title>mountain_top</title><rect class="cls-1" x="1" y="15" width="14" height="1"/><polygon class="cls-2" points="15 12 14 12 14 14 2 14 2 12 1 12 1 15 15 15 15 12"/><rect class="cls-1" y="12" width="1" height="3"/><rect class="cls-1" x="15" y="12" width="1" height="3"/><rect class="cls-1" x="14" y="11" width="1" height="1"/><rect class="cls-2" x="13" y="11" width="1" height="1"/><polygon class="cls-3" points="13 11 11 11 11 12 10 12 10 11 8 11 8 12 7 12 7 11 6 11 6 12 5 12 5 11 3 11 3 12 2 12 2 14 14 14 14 12 13 12 13 11"/><rect class="cls-4" x="10" y="11" width="1" height="1"/><rect class="cls-4" x="7" y="11" width="1" height="1"/><rect class="cls-4" x="5" y="11" width="1" height="1"/><rect class="cls-2" x="2" y="11" width="1" height="1"/><rect class="cls-1" x="1" y="11" width="1" height="1"/><rect class="cls-1" x="13" y="10" width="1" height="1"/><rect class="cls-2" x="12" y="10" width="1" height="1"/><rect class="cls-4" x="11" y="10" width="1" height="1"/><rect class="cls-4" x="8" y="10" width="2" height="1"/><rect class="cls-4" x="6" y="10" width="1" height="1"/><polygon class="cls-1" points="6 11 6 10 7 10 7 11 8 11 8 10 10 10 10 11 11 11 11 9 10 9 10 8 9 8 9 7 7 7 7 8 6 8 6 9 5 9 5 11 6 11"/><rect class="cls-4" x="4" y="10" width="1" height="1"/><rect class="cls-2" x="3" y="10" width="1" height="1"/><rect class="cls-1" x="2" y="10" width="1" height="1"/><rect class="cls-1" x="12" y="9" width="1" height="1"/><rect class="cls-2" x="11" y="9" width="1" height="1"/><rect class="cls-2" x="4" y="9" width="1" height="1"/><rect class="cls-1" x="3" y="9" width="1" height="1"/><rect class="cls-1" x="11" y="8" width="1" height="1"/><rect class="cls-2" x="10" y="8" width="1" height="1"/><rect class="cls-2" x="5" y="8" width="1" height="1"/><rect class="cls-1" x="4" y="8" width="1" height="1"/><rect class="cls-1" x="10" y="7" width="1" height="1"/><rect class="cls-2" x="9" y="7" width="1" height="1"/><rect class="cls-1" x="5" y="1" width="1" height="7"/><rect class="cls-5" x="7" y="6" width="1" height="1"/><polygon class="cls-1" points="9 5 9 7 10 7 10 6 11 6 11 5 9 5"/><rect class="cls-6" x="7" y="4" width="1" height="2"/><rect class="cls-7" x="8" y="2" width="2" height="2"/><rect class="cls-8" x="7" y="2" width="1" height="2"/><rect class="cls-1" x="11" y="1" width="1" height="4"/><polygon class="cls-2" points="6 8 7 8 7 2 10 2 10 4 8 4 8 7 9 7 9 5 11 5 11 1 6 1 6 8"/><rect class="cls-1" x="6" width="5" height="1"/></svg>