<svg id="Layer_1" data-name="Layer 1" xmlns="http://www.w3.org/2000/svg" viewBox="0 0 16 16"><defs><style>.cls-1{fill:#f7feff;}.cls-2{fill:#231e2b;}.cls-3{fill:#4fab59;}.cls-4{fill:#356e69;}.cls-5{fill:#acc756;}.cls-6{fill:#c7936b;}.cls-7{fill:#e8be9b;}</style></defs><title>palm</title><rect class="cls-1" x="2" y="15" width="13" height="1"/><path class="cls-2" d="M15,2H14v8H2v5H15ZM3,14V11H14v3Z"/><rect class="cls-1" x="1" y="10" width="1" height="5"/><polygon class="cls-3" points="14 12 12 12 12 13 11 13 11 12 3 12 3 14 14 14 14 12"/><rect class="cls-4" x="11" y="12" width="1" height="1"/><rect class="cls-5" x="3" y="11" width="11" height="1"/><rect class="cls-6" x="2" y="9" width="12" height="1"/><rect class="cls-2" x="1" y="7" width="1" height="3"/><rect class="cls-1" y="7" width="1" height="3"/><rect class="cls-1" x="1" y="2" width="1" height="5"/><rect class="cls-6" x="11" y="5" width="1" height="1"/><rect class="cls-6" x="8" y="5" width="1" height="1"/><rect class="cls-6" x="5" y="5" width="1" height="1"/><rect class="cls-6" x="3" y="7" width="1" height="1"/><rect class="cls-2" x="11" y="2" width="1" height="3"/><rect class="cls-2" x="8" y="2" width="1" height="3"/><rect class="cls-2" x="5" y="2" width="1" height="3"/><rect class="cls-2" x="2" y="2" width="1" height="5"/><rect class="cls-1" x="15" y="2" width="1" height="13"/><polygon class="cls-7" points="12 2 12 6 11 6 11 2 9 2 9 6 8 6 8 2 6 2 6 6 5 6 5 2 3 2 3 7 2 7 2 9 14 9 14 2 12 2"/><rect class="cls-1" x="14" y="1" width="1" height="1"/><rect class="cls-2" x="12" y="1" width="2" height="1"/><rect class="cls-1" x="11" y="1" width="1" height="1"/><rect class="cls-2" x="9" y="1" width="2" height="1"/><rect class="cls-1" x="8" y="1" width="1" height="1"/><rect class="cls-2" x="6" y="1" width="2" height="1"/><rect class="cls-1" x="5" y="1" width="1" height="1"/><rect class="cls-2" x="3" y="1" width="2" height="1"/><rect class="cls-1" x="2" y="1" width="1" height="1"/><rect class="cls-1" x="12" width="2" height="1"/><rect class="cls-1" x="9" width="2" height="1"/><rect class="cls-1" x="6" width="2" height="1"/><rect class="cls-1" x="3" width="2" height="1"/></svg>