<svg id="Layer_1" data-name="Layer 1" xmlns="http://www.w3.org/2000/svg" viewBox="0 0 16 16"><defs><style>.cls-1{fill:#f7feff;}.cls-2{fill:#361a2a;}.cls-3{fill:#784028;}.cls-4{fill:#a86619;}.cls-5{fill:#cf8934;}.cls-6{fill:#892727;}.cls-7{fill:#b0392e;}.cls-8{fill:#ebb42a;}</style></defs><title>pizza</title><rect class="cls-1" x="5" y="15" width="6" height="1"/><rect class="cls-1" x="11" y="14" width="2" height="1"/><rect class="cls-2" x="5" y="14" width="6" height="1"/><rect class="cls-1" x="3" y="14" width="2" height="1"/><rect class="cls-1" x="13" y="13" width="1" height="1"/><rect class="cls-2" x="11" y="13" width="2" height="1"/><rect class="cls-3" x="5" y="13" width="6" height="1"/><rect class="cls-2" x="3" y="13" width="2" height="1"/><rect class="cls-1" x="2" y="13" width="1" height="1"/><rect class="cls-3" x="11" y="12" width="2" height="1"/><rect class="cls-3" x="3" y="12" width="2" height="1"/><rect class="cls-2" x="2" y="10" width="1" height="3"/><rect class="cls-1" x="14" y="10" width="1" height="3"/><polygon class="cls-4" points="10 11 10 12 6 12 6 11 4 11 4 10 3 10 3 12 5 12 5 13 11 13 11 12 13 12 13 10 12 10 12 11 10 11"/><rect class="cls-5" x="6" y="11" width="4" height="1"/><rect class="cls-1" x="1" y="10" width="1" height="3"/><rect class="cls-2" x="13" y="10" width="1" height="3"/><rect class="cls-6" x="11" y="10" width="1" height="1"/><rect class="cls-5" x="10" y="10" width="1" height="1"/><rect class="cls-5" x="4" y="10" width="2" height="1"/><rect class="cls-1" x="13" y="8" width="1" height="2"/><polygon class="cls-7" points="10 9 10 10 12 10 12 8 11 8 11 9 10 9"/><polygon class="cls-7" points="6 9 6 11 8 11 8 10 9 10 9 9 6 9"/><rect class="cls-6" x="5" y="9" width="1" height="1"/><rect class="cls-8" x="4" y="9" width="1" height="1"/><rect class="cls-2" x="3" y="8" width="1" height="2"/><rect class="cls-1" x="2" y="8" width="1" height="2"/><rect class="cls-2" x="12" y="8" width="1" height="2"/><rect class="cls-5" x="10" y="8" width="1" height="1"/><rect class="cls-6" x="6" y="8" width="2" height="1"/><rect class="cls-5" x="4" y="8" width="2" height="1"/><rect class="cls-1" x="12" y="6" width="1" height="2"/><polygon class="cls-8" points="8 7 8 6 7 6 7 4 6 4 6 7 5 7 5 8 8 8 8 9 9 9 9 10 8 10 8 11 10 11 10 8 11 8 11 7 8 7"/><rect class="cls-2" x="4" y="6" width="1" height="2"/><rect class="cls-1" x="3" y="6" width="1" height="2"/><rect class="cls-2" x="11" y="6" width="1" height="2"/><rect class="cls-5" x="10" y="6" width="1" height="1"/><rect class="cls-5" x="5" y="6" width="1" height="1"/><rect class="cls-1" x="11" y="4" width="1" height="2"/><rect class="cls-7" x="8" y="5" width="2" height="2"/><rect class="cls-6" x="7" y="5" width="1" height="1"/><rect class="cls-2" x="5" y="4" width="1" height="2"/><rect class="cls-1" x="4" y="4" width="1" height="2"/><rect class="cls-2" x="10" y="4" width="1" height="2"/><rect class="cls-6" x="8" y="4" width="2" height="1"/><rect class="cls-5" x="7" y="4" width="1" height="1"/><rect class="cls-1" x="10" y="2" width="1" height="2"/><rect class="cls-5" x="8" y="3" width="1" height="1"/><rect class="cls-8" x="7" y="3" width="1" height="1"/><rect class="cls-2" x="6" y="2" width="1" height="2"/><rect class="cls-1" x="5" y="2" width="1" height="2"/><rect class="cls-2" x="9" y="2" width="1" height="2"/><rect class="cls-8" x="8" y="2" width="1" height="1"/><rect class="cls-7" x="7" y="2" width="1" height="1"/><rect class="cls-1" x="9" y="1" width="1" height="1"/><rect class="cls-2" x="7" y="1" width="2" height="1"/><rect class="cls-1" x="6" y="1" width="1" height="1"/><rect class="cls-1" x="7" width="2" height="1"/></svg>