<svg id="Layer_1" data-name="Layer 1" xmlns="http://www.w3.org/2000/svg" viewBox="0 0 16 16"><defs><style>.cls-1{fill:#f7feff;}.cls-2{fill:#231e2b;}.cls-3{fill:#356e69;}.cls-4{fill:#acc756;}.cls-5{fill:#4fab59;}</style></defs><title>recycle_arrows</title><rect class="cls-1" x="2" y="15" width="5" height="1"/><polygon class="cls-1" points="12 14 12 15 10 15 10 16 13 16 13 15 14 15 14 14 12 14"/><polygon class="cls-1" points="9 14 9 13 8 13 8 11 9 11 9 10 10 10 10 9 11 9 11 8 15 8 15 7 14 7 14 3 13 3 13 7 9 7 9 5 8 5 8 6 7 6 7 7 6 7 6 11 7 11 7 15 10 15 10 14 9 14"/><rect class="cls-1" x="1" y="14" width="1" height="1"/><rect class="cls-1" x="14" y="13" width="1" height="1"/><polygon class="cls-2" points="11 13 11 14 10 14 10 15 12 15 12 14 14 14 14 13 11 13"/><rect class="cls-3" x="10" y="13" width="1" height="1"/><rect class="cls-2" x="9" y="13" width="1" height="1"/><polygon class="cls-2" points="7 11 6 11 6 7 2 7 2 8 5 8 5 11 4 11 4 12 6 12 6 14 2 14 2 15 7 15 7 11"/><rect class="cls-3" x="2" y="13" width="1" height="1"/><rect class="cls-2" x="1" y="8" width="1" height="6"/><rect class="cls-3" x="9" y="12" width="1" height="1"/><rect class="cls-4" x="4" y="12" width="2" height="1"/><rect class="cls-1" y="8" width="1" height="6"/><polygon class="cls-2" points="15 8 11 8 11 9 14 9 14 13 15 13 15 8"/><rect class="cls-3" x="12" y="11" width="1" height="1"/><rect class="cls-4" x="9" y="11" width="1" height="1"/><rect class="cls-2" x="8" y="11" width="1" height="2"/><rect class="cls-3" x="3" y="11" width="1" height="1"/><polygon class="cls-5" points="12 10 12 11 13 11 13 12 12 12 12 11 10 11 10 13 14 13 14 10 12 10"/><rect class="cls-2" x="11" y="10" width="1" height="1"/><rect class="cls-4" x="10" y="10" width="1" height="1"/><rect class="cls-2" x="9" y="10" width="1" height="1"/><rect class="cls-3" x="4" y="10" width="1" height="1"/><rect class="cls-4" x="12" y="9" width="2" height="1"/><rect class="cls-3" x="11" y="9" width="1" height="1"/><rect class="cls-2" x="10" y="9" width="1" height="1"/><polygon class="cls-5" points="3 9 3 10 2 10 2 13 3 13 3 14 6 14 6 13 4 13 4 12 3 12 3 11 4 11 4 10 5 10 5 8 4 8 4 9 3 9"/><rect class="cls-3" x="2" y="9" width="1" height="1"/><rect class="cls-1" x="15" y="8" width="1" height="5"/><rect class="cls-4" x="2" y="8" width="2" height="1"/><rect class="cls-1" x="1" y="7" width="1" height="1"/><rect class="cls-2" x="6" y="6" width="1" height="1"/><polygon class="cls-1" points="6 7 6 6 4 6 4 3 3 3 3 6 2 6 2 7 6 7"/><rect class="cls-2" x="7" y="5" width="1" height="1"/><rect class="cls-3" x="6" y="5" width="1" height="1"/><rect class="cls-3" x="9" y="4" width="1" height="1"/><rect class="cls-2" x="8" y="4" width="1" height="1"/><rect class="cls-3" x="7" y="4" width="1" height="1"/><polygon class="cls-5" points="7 4 10 4 10 6 12 6 12 4 11 4 11 3 5 3 5 5 7 5 7 4"/><polygon class="cls-2" points="4 6 6 6 6 5 5 5 5 3 4 3 4 6"/><polygon class="cls-2" points="12 6 10 6 10 5 9 5 9 7 13 7 13 3 12 3 12 6"/><rect class="cls-4" x="11" y="3" width="1" height="1"/><rect class="cls-1" x="12" y="2" width="1" height="1"/><rect class="cls-2" x="10" y="2" width="2" height="1"/><rect class="cls-4" x="6" y="2" width="4" height="1"/><rect class="cls-2" x="5" y="2" width="1" height="1"/><rect class="cls-1" x="4" y="2" width="1" height="1"/><rect class="cls-1" x="10" y="1" width="2" height="1"/><rect class="cls-2" x="6" y="1" width="4" height="1"/><rect class="cls-1" x="5" y="1" width="1" height="1"/><rect class="cls-1" x="6" width="4" height="1"/></svg>