<svg id="Layer_1" data-name="Layer 1" xmlns="http://www.w3.org/2000/svg" viewBox="0 0 16 16"><defs><style>.cls-1{fill:#f7feff;}.cls-2{fill:#231e2b;}.cls-3{fill:#892727;}.cls-4{fill:#cf6b55;}.cls-5{fill:#b0392e;}.cls-6{fill:#47414d;}.cls-7{fill:#b6b7b8;}</style></defs><title>red_liquid</title><rect class="cls-1" x="7" y="15" width="2" height="1"/><rect class="cls-1" x="9" y="14" width="1" height="1"/><rect class="cls-2" x="7" y="14" width="2" height="1"/><rect class="cls-1" x="6" y="14" width="1" height="1"/><rect class="cls-1" x="10" y="13" width="1" height="1"/><rect class="cls-2" x="9" y="13" width="1" height="1"/><rect class="cls-2" x="6" y="13" width="1" height="1"/><rect class="cls-1" x="5" y="13" width="1" height="1"/><rect class="cls-1" x="11" y="12" width="1" height="1"/><rect class="cls-2" x="10" y="12" width="1" height="1"/><polygon class="cls-3" points="6 12 6 13 7 13 7 14 9 14 9 13 10 13 10 12 6 12"/><rect class="cls-2" x="5" y="12" width="1" height="1"/><rect class="cls-1" x="4" y="12" width="1" height="1"/><rect class="cls-1" x="12" y="11" width="1" height="1"/><rect class="cls-2" x="11" y="11" width="1" height="1"/><rect class="cls-3" x="10" y="11" width="1" height="1"/><rect class="cls-3" x="5" y="11" width="1" height="1"/><rect class="cls-2" x="4" y="11" width="1" height="1"/><rect class="cls-1" x="3" y="11" width="1" height="1"/><rect class="cls-1" x="13" y="10" width="1" height="1"/><rect class="cls-2" x="12" y="10" width="1" height="1"/><rect class="cls-3" x="11" y="10" width="1" height="1"/><rect class="cls-4" x="6" y="10" width="1" height="1"/><rect class="cls-3" x="4" y="10" width="1" height="1"/><rect class="cls-2" x="3" y="10" width="1" height="1"/><rect class="cls-1" x="2" y="10" width="1" height="1"/><rect class="cls-3" x="12" y="9" width="1" height="1"/><rect class="cls-4" x="8" y="9" width="1" height="1"/><path class="cls-5" d="M4,10H5v1H6V10H7v1H6v1h4V11h1V10h1V9H11V8H6V9H5V8H3V9H4ZM9,9v1H8V9Z"/><rect class="cls-3" x="3" y="9" width="1" height="1"/><rect class="cls-1" x="14" y="7" width="1" height="3"/><rect class="cls-5" x="12" y="8" width="1" height="1"/><rect class="cls-4" x="11" y="8" width="1" height="1"/><rect class="cls-4" x="5" y="8" width="1" height="1"/><rect class="cls-2" x="2" y="7" width="1" height="3"/><rect class="cls-2" x="13" y="7" width="1" height="3"/><polygon class="cls-1" points="13 8 13 7 12 7 12 6 10 6 10 7 9 7 9 5 7 5 7 7 6 7 6 6 4 6 4 7 3 7 3 8 13 8"/><rect class="cls-1" x="1" y="7" width="1" height="3"/><rect class="cls-1" x="13" y="6" width="1" height="1"/><rect class="cls-2" x="12" y="6" width="1" height="1"/><rect class="cls-6" x="9" y="6" width="1" height="1"/><rect class="cls-6" x="6" y="6" width="1" height="1"/><rect class="cls-2" x="3" y="6" width="1" height="1"/><rect class="cls-1" x="2" y="6" width="1" height="1"/><rect class="cls-1" x="12" y="5" width="1" height="1"/><polygon class="cls-2" points="10 5 10 3 9 3 9 6 12 6 12 5 10 5"/><polygon class="cls-2" points="7 6 7 3 6 3 6 5 4 5 4 6 7 6"/><rect class="cls-1" x="3" y="5" width="1" height="1"/><rect class="cls-7" x="7" y="4" width="2" height="1"/><polygon class="cls-1" points="6 5 6 3 5 3 5 4 4 4 4 5 6 5"/><polygon class="cls-1" points="10 5 12 5 12 4 11 4 11 3 10 3 10 5"/><rect class="cls-6" x="7" y="3" width="2" height="1"/><rect class="cls-1" x="11" y="1" width="1" height="2"/><rect class="cls-1" x="6" y="2" width="4" height="1"/><polygon class="cls-2" points="6 2 10 2 10 3 11 3 11 1 5 1 5 3 6 3 6 2"/><rect class="cls-1" x="4" y="1" width="1" height="2"/><rect class="cls-1" x="5" width="6" height="1"/></svg>