<svg id="Layer_1" data-name="Layer 1" xmlns="http://www.w3.org/2000/svg" viewBox="0 0 16 16"><defs><style>.cls-1{fill:#f7feff;}.cls-2{fill:#231e2b;}.cls-3{fill:#892727;}.cls-4{fill:#cf6b55;}.cls-5{fill:#b0392e;}</style></defs><title>red_cross</title><rect class="cls-1" x="11" y="15" width="2" height="1"/><rect class="cls-1" x="3" y="15" width="2" height="1"/><rect class="cls-1" x="13" y="14" width="1" height="1"/><rect class="cls-2" x="11" y="14" width="2" height="1"/><rect class="cls-1" x="10" y="14" width="1" height="1"/><rect class="cls-1" x="5" y="14" width="1" height="1"/><rect class="cls-2" x="3" y="14" width="2" height="1"/><rect class="cls-1" x="2" y="14" width="1" height="1"/><rect class="cls-1" x="14" y="13" width="1" height="1"/><rect class="cls-2" x="13" y="13" width="1" height="1"/><rect class="cls-3" x="11" y="13" width="2" height="1"/><rect class="cls-2" x="10" y="13" width="1" height="1"/><rect class="cls-1" x="9" y="13" width="1" height="1"/><rect class="cls-1" x="6" y="13" width="1" height="1"/><rect class="cls-2" x="5" y="13" width="1" height="1"/><rect class="cls-3" x="3" y="13" width="2" height="1"/><rect class="cls-2" x="2" y="13" width="1" height="1"/><rect class="cls-1" x="1" y="13" width="1" height="1"/><rect class="cls-1" x="15" y="11" width="1" height="2"/><rect class="cls-3" x="13" y="12" width="1" height="1"/><rect class="cls-3" x="10" y="12" width="1" height="1"/><rect class="cls-2" x="9" y="12" width="1" height="1"/><rect class="cls-1" x="7" y="12" width="2" height="1"/><rect class="cls-2" x="6" y="12" width="1" height="1"/><rect class="cls-3" x="5" y="12" width="1" height="1"/><rect class="cls-3" x="2" y="12" width="1" height="1"/><rect class="cls-2" x="1" y="11" width="1" height="2"/><rect class="cls-2" x="14" y="11" width="1" height="2"/><rect class="cls-4" x="13" y="11" width="1" height="1"/><rect class="cls-3" x="9" y="11" width="1" height="1"/><rect class="cls-2" x="7" y="11" width="2" height="1"/><rect class="cls-3" x="6" y="11" width="1" height="1"/><rect class="cls-4" x="2" y="11" width="1" height="1"/><rect class="cls-1" y="11" width="1" height="2"/><rect class="cls-1" x="14" y="10" width="1" height="1"/><rect class="cls-2" x="13" y="10" width="1" height="1"/><rect class="cls-4" x="12" y="10" width="1" height="1"/><rect class="cls-3" x="7" y="10" width="2" height="1"/><rect class="cls-4" x="3" y="10" width="1" height="1"/><rect class="cls-2" x="2" y="10" width="1" height="1"/><rect class="cls-1" x="1" y="10" width="1" height="1"/><rect class="cls-1" x="13" y="9" width="1" height="1"/><rect class="cls-2" x="12" y="9" width="1" height="1"/><rect class="cls-4" x="11" y="9" width="1" height="1"/><rect class="cls-4" x="4" y="9" width="1" height="1"/><rect class="cls-2" x="3" y="9" width="1" height="1"/><rect class="cls-1" x="2" y="9" width="1" height="1"/><rect class="cls-2" x="4" y="7" width="1" height="2"/><rect class="cls-1" x="3" y="7" width="1" height="2"/><rect class="cls-1" x="12" y="7" width="1" height="2"/><rect class="cls-2" x="11" y="7" width="1" height="2"/><rect class="cls-3" x="10" y="7" width="1" height="1"/><rect class="cls-3" x="5" y="7" width="1" height="1"/><rect class="cls-1" x="13" y="6" width="1" height="1"/><rect class="cls-2" x="12" y="6" width="1" height="1"/><rect class="cls-3" x="11" y="6" width="1" height="1"/><rect class="cls-3" x="4" y="6" width="1" height="1"/><rect class="cls-2" x="3" y="6" width="1" height="1"/><rect class="cls-1" x="2" y="6" width="1" height="1"/><rect class="cls-1" x="14" y="5" width="1" height="1"/><rect class="cls-2" x="13" y="5" width="1" height="1"/><rect class="cls-3" x="12" y="5" width="1" height="1"/><rect class="cls-4" x="7" y="5" width="2" height="1"/><rect class="cls-3" x="3" y="5" width="1" height="1"/><rect class="cls-2" x="2" y="5" width="1" height="1"/><rect class="cls-1" x="1" y="5" width="1" height="1"/><rect class="cls-3" x="13" y="4" width="1" height="1"/><rect class="cls-4" x="9" y="4" width="1" height="1"/><rect class="cls-2" x="7" y="4" width="2" height="1"/><rect class="cls-4" x="6" y="4" width="1" height="1"/><rect class="cls-3" x="2" y="4" width="1" height="1"/><rect class="cls-2" x="1" y="3" width="1" height="2"/><rect class="cls-1" x="15" y="3" width="1" height="2"/><rect class="cls-2" x="14" y="3" width="1" height="2"/><rect class="cls-4" x="13" y="3" width="1" height="1"/><polygon class="cls-5" points="13 3 11 3 11 4 10 4 10 5 9 5 9 6 7 6 7 5 6 5 6 4 5 4 5 3 2 3 2 4 3 4 3 5 4 5 4 6 5 6 5 7 6 7 6 8 5 8 5 10 4 10 4 11 3 11 3 13 5 13 5 12 6 12 6 11 7 11 7 10 9 10 9 11 10 11 10 12 11 12 11 13 13 13 13 11 12 11 12 10 11 10 11 8 10 8 10 7 11 7 11 6 12 6 12 5 13 5 13 3"/><rect class="cls-4" x="10" y="3" width="1" height="1"/><rect class="cls-2" x="9" y="3" width="1" height="1"/><rect class="cls-1" x="7" y="3" width="2" height="1"/><rect class="cls-2" x="6" y="3" width="1" height="1"/><rect class="cls-4" x="5" y="3" width="1" height="1"/><rect class="cls-1" y="3" width="1" height="2"/><rect class="cls-1" x="14" y="2" width="1" height="1"/><rect class="cls-2" x="13" y="2" width="1" height="1"/><rect class="cls-4" x="11" y="2" width="2" height="1"/><rect class="cls-2" x="10" y="2" width="1" height="1"/><rect class="cls-1" x="9" y="2" width="1" height="1"/><rect class="cls-1" x="6" y="2" width="1" height="1"/><rect class="cls-2" x="5" y="2" width="1" height="1"/><rect class="cls-4" x="3" y="2" width="2" height="1"/><rect class="cls-2" x="2" y="2" width="1" height="1"/><rect class="cls-1" x="1" y="2" width="1" height="1"/><rect class="cls-1" x="13" y="1" width="1" height="1"/><rect class="cls-2" x="11" y="1" width="2" height="1"/><rect class="cls-1" x="10" y="1" width="1" height="1"/><rect class="cls-1" x="5" y="1" width="1" height="1"/><rect class="cls-2" x="3" y="1" width="2" height="1"/><rect class="cls-1" x="2" y="1" width="1" height="1"/><rect class="cls-1" x="11" width="2" height="1"/><rect class="cls-1" x="3" width="2" height="1"/></svg>