<svg id="Layer_1" data-name="Layer 1" xmlns="http://www.w3.org/2000/svg" viewBox="0 0 16 16"><defs><style>.cls-1{fill:#f7feff;}.cls-2{fill:#231e2b;}.cls-3{fill:#cf6b55;}.cls-4{fill:#892727;}.cls-5{fill:#b0392e;}</style></defs><title>ruby</title><rect class="cls-1" x="6" y="15" width="4" height="1"/><rect class="cls-1" x="10" y="14" width="1" height="1"/><rect class="cls-2" x="6" y="14" width="4" height="1"/><rect class="cls-1" x="5" y="14" width="1" height="1"/><rect class="cls-1" x="11" y="13" width="1" height="1"/><rect class="cls-2" x="10" y="13" width="1" height="1"/><rect class="cls-3" x="6" y="13" width="1" height="1"/><rect class="cls-2" x="5" y="13" width="1" height="1"/><rect class="cls-1" x="4" y="13" width="1" height="1"/><rect class="cls-1" x="12" y="12" width="1" height="1"/><rect class="cls-2" x="11" y="12" width="1" height="1"/><rect class="cls-3" x="5" y="12" width="1" height="1"/><rect class="cls-2" x="4" y="12" width="1" height="1"/><rect class="cls-1" x="3" y="12" width="1" height="1"/><rect class="cls-4" x="6" y="11" width="4" height="1"/><rect class="cls-5" x="5" y="11" width="1" height="1"/><rect class="cls-3" x="4" y="11" width="1" height="1"/><rect class="cls-2" x="3" y="4" width="1" height="8"/><rect class="cls-4" x="5" y="5" width="1" height="6"/><rect class="cls-1" x="2" y="4" width="1" height="8"/><rect class="cls-4" x="10" y="5" width="1" height="6"/><polygon class="cls-5" points="6 11 10 11 10 6 8 6 8 5 6 5 6 11"/><rect class="cls-1" x="13" y="4" width="1" height="8"/><polygon class="cls-5" points="11 11 10 11 10 12 6 12 6 13 7 13 7 14 10 14 10 13 11 13 11 12 12 12 12 5 11 5 11 11"/><rect class="cls-3" x="8" y="5" width="2" height="1"/><rect class="cls-2" x="12" y="4" width="1" height="8"/><rect class="cls-3" x="11" y="4" width="1" height="1"/><rect class="cls-5" x="10" y="4" width="1" height="1"/><rect class="cls-4" x="6" y="4" width="4" height="1"/><rect class="cls-1" x="12" y="3" width="1" height="1"/><rect class="cls-2" x="11" y="3" width="1" height="1"/><rect class="cls-3" x="10" y="3" width="1" height="1"/><polygon class="cls-5" points="5 3 5 4 4 4 4 11 5 11 5 5 6 5 6 4 10 4 10 3 8 3 8 2 6 2 6 3 5 3"/><rect class="cls-2" x="4" y="3" width="1" height="1"/><rect class="cls-1" x="3" y="3" width="1" height="1"/><rect class="cls-1" x="11" y="2" width="1" height="1"/><rect class="cls-2" x="10" y="2" width="1" height="1"/><rect class="cls-3" x="8" y="2" width="2" height="1"/><rect class="cls-2" x="5" y="2" width="1" height="1"/><rect class="cls-1" x="4" y="2" width="1" height="1"/><rect class="cls-1" x="10" y="1" width="1" height="1"/><rect class="cls-2" x="6" y="1" width="4" height="1"/><rect class="cls-1" x="5" y="1" width="1" height="1"/><rect class="cls-1" x="6" width="4" height="1"/></svg>