<svg id="Layer_1" data-name="Layer 1" xmlns="http://www.w3.org/2000/svg" viewBox="0 0 16 16"><defs><style>.cls-1{fill:#f7feff;}.cls-2{fill:#231e2b;}.cls-3{fill:#918d8d;}.cls-4{fill:#36313b;}.cls-5{fill:#b6b7b8;}</style></defs><title>skull</title><rect class="cls-1" x="4" y="15" width="8" height="1"/><rect class="cls-1" x="12" y="14" width="1" height="1"/><rect class="cls-2" x="4" y="14" width="8" height="1"/><rect class="cls-1" x="3" y="14" width="1" height="1"/><rect class="cls-1" x="11" y="13" width="1" height="1"/><rect class="cls-3" x="10" y="13" width="1" height="1"/><rect class="cls-1" x="9" y="13" width="1" height="1"/><rect class="cls-3" x="8" y="13" width="1" height="1"/><rect class="cls-1" x="6" y="13" width="2" height="1"/><rect class="cls-3" x="5" y="13" width="1" height="1"/><rect class="cls-1" x="4" y="13" width="1" height="1"/><rect class="cls-2" x="3" y="10" width="1" height="4"/><rect class="cls-2" x="12" y="10" width="1" height="4"/><rect class="cls-4" x="4" y="12" width="8" height="1"/><rect class="cls-1" x="2" y="10" width="1" height="4"/><rect class="cls-1" x="13" y="10" width="1" height="4"/><rect class="cls-2" x="9" y="9" width="1" height="2"/><rect class="cls-1" x="14" y="9" width="1" height="1"/><rect class="cls-2" x="13" y="9" width="1" height="1"/><rect class="cls-5" x="12" y="9" width="1" height="1"/><rect class="cls-2" x="6" y="9" width="1" height="2"/><rect class="cls-5" x="3" y="9" width="1" height="1"/><rect class="cls-2" x="2" y="9" width="1" height="1"/><rect class="cls-1" x="1" y="9" width="1" height="1"/><rect class="cls-5" x="13" y="8" width="1" height="1"/><rect class="cls-5" x="2" y="8" width="1" height="1"/><rect class="cls-2" x="1" y="4" width="1" height="5"/><rect class="cls-2" x="14" y="4" width="1" height="5"/><rect class="cls-5" x="12" y="7" width="1" height="1"/><rect class="cls-5" x="9" y="7" width="1" height="1"/><rect class="cls-5" x="6" y="7" width="1" height="1"/><polygon class="cls-2" points="4 8 6 8 6 7 7 7 7 5 3 5 3 7 4 7 4 8"/><rect class="cls-5" x="3" y="7" width="1" height="1"/><rect class="cls-1" y="4" width="1" height="5"/><polygon class="cls-2" points="13 7 13 5 9 5 9 7 10 7 10 8 12 8 12 7 13 7"/><rect class="cls-1" x="15" y="4" width="1" height="5"/><rect class="cls-1" x="14" y="3" width="1" height="1"/><rect class="cls-2" x="13" y="3" width="1" height="1"/><path class="cls-1" d="M13,3H12V2H4V3H3V4H2V8H3V5H7V8H3V9H4v3h8V9h1V8H9V5h4V8h1V4H13ZM6,11V9H7v2Zm4-2v2H9V9Z"/><rect class="cls-2" x="2" y="3" width="1" height="1"/><rect class="cls-1" x="1" y="3" width="1" height="1"/><rect class="cls-1" x="13" y="2" width="1" height="1"/><rect class="cls-2" x="12" y="2" width="1" height="1"/><rect class="cls-2" x="3" y="2" width="1" height="1"/><rect class="cls-1" x="2" y="2" width="1" height="1"/><rect class="cls-1" x="12" y="1" width="1" height="1"/><rect class="cls-2" x="4" y="1" width="8" height="1"/><rect class="cls-1" x="3" y="1" width="1" height="1"/><rect class="cls-1" x="4" width="8" height="1"/></svg>