<svg id="Layer_1" data-name="Layer 1" xmlns="http://www.w3.org/2000/svg" viewBox="0 0 16 16"><defs><style>.cls-1{fill:#f7feff;}.cls-2{fill:#231e2b;}.cls-3{fill:#36313b;}.cls-4{fill:#998b8c;}.cls-5{fill:#47414d;}</style></defs><title>sunglasses</title><rect class="cls-1" x="7" y="10" width="4" height="1"/><rect class="cls-1" x="2" y="10" width="4" height="1"/><rect class="cls-1" x="13" y="9" width="1" height="1"/><rect class="cls-1" x="11" y="9" width="1" height="1"/><rect class="cls-2" x="7" y="9" width="4" height="1"/><rect class="cls-1" x="6" y="9" width="1" height="1"/><rect class="cls-2" x="2" y="9" width="4" height="1"/><rect class="cls-1" x="1" y="9" width="1" height="1"/><rect class="cls-1" x="14" y="8" width="1" height="1"/><rect class="cls-2" x="13" y="8" width="1" height="1"/><rect class="cls-1" x="12" y="8" width="1" height="1"/><rect class="cls-3" x="10" y="8" width="1" height="1"/><polygon class="cls-4" points="9 8 9 7 8 7 8 6 7 6 7 8 8 8 8 9 10 9 10 8 9 8"/><rect class="cls-3" x="7" y="8" width="1" height="1"/><rect class="cls-3" x="5" y="8" width="1" height="1"/><polygon class="cls-4" points="4 8 4 7 3 7 3 6 2 6 2 8 3 8 3 9 5 9 5 8 4 8"/><rect class="cls-3" x="2" y="8" width="1" height="1"/><polygon class="cls-2" points="2 6 14 6 14 5 1 5 1 9 2 9 2 6"/><polygon class="cls-2" points="13 8 13 7 11 7 11 9 12 9 12 8 13 8"/><rect class="cls-4" x="10" y="7" width="1" height="1"/><rect class="cls-3" x="9" y="7" width="1" height="1"/><rect class="cls-2" x="6" y="7" width="1" height="2"/><rect class="cls-4" x="5" y="7" width="1" height="1"/><rect class="cls-3" x="4" y="7" width="1" height="1"/><rect class="cls-1" y="5" width="1" height="4"/><rect class="cls-1" x="15" y="6" width="1" height="2"/><rect class="cls-2" x="14" y="6" width="1" height="2"/><polygon class="cls-5" points="11 6 11 7 13 7 13 8 14 8 14 6 11 6"/><rect class="cls-3" x="10" y="6" width="1" height="1"/><rect class="cls-4" x="9" y="6" width="1" height="1"/><rect class="cls-3" x="8" y="6" width="1" height="1"/><rect class="cls-3" x="5" y="6" width="2" height="1"/><rect class="cls-4" x="4" y="6" width="1" height="1"/><rect class="cls-3" x="3" y="6" width="1" height="1"/><rect class="cls-1" x="14" y="5" width="1" height="1"/><rect class="cls-1" x="1" y="4" width="13" height="1"/></svg>