<svg id="Layer_1" data-name="Layer 1" xmlns="http://www.w3.org/2000/svg" viewBox="0 0 16 16"><defs><style>.cls-1{fill:#f7feff;}.cls-2{fill:#231e2b;}.cls-3{fill:#cf8934;}.cls-4{fill:#e2b436;}.cls-5{fill:#522b29;}.cls-6{fill:#784028;}.cls-7{fill:#f5f38e;}.cls-8{fill:#356e69;}.cls-9{fill:#66151b;}.cls-10{fill:#484085;}.cls-11{fill:#5eb0db;}.cls-12{fill:#4fab59;}.cls-13{fill:#892727;}.cls-14{fill:#4891d5;}.cls-15{fill:#6f59ab;}.cls-16{fill:#b0392e;}.cls-17{fill:#85c7f2;}.cls-18{fill:#acc756;}.cls-19{fill:#927bb3;}.cls-20{fill:#c2751d;}</style></defs><title>treasure_chest</title><rect class="cls-1" x="1" y="15" width="14" height="1"/><polygon class="cls-2" points="15 2 14 2 14 14 2 14 2 2 1 2 1 15 15 15 15 2"/><rect class="cls-3" x="2" y="13" width="12" height="1"/><rect class="cls-1" y="2" width="1" height="13"/><rect class="cls-4" x="2" y="9" width="2" height="4"/><rect class="cls-5" x="7" y="11" width="2" height="1"/><polygon class="cls-6" points="9 10 9 12 7 12 7 10 4 10 4 13 12 13 12 10 9 10"/><rect class="cls-4" x="7" y="10" width="2" height="1"/><rect class="cls-4" x="12" y="9" width="2" height="4"/><rect class="cls-5" x="4" y="9" width="8" height="1"/><rect class="cls-7" x="2" y="8" width="12" height="1"/><rect class="cls-8" x="12" y="7" width="1" height="1"/><rect class="cls-9" x="10" y="7" width="2" height="1"/><rect class="cls-10" x="7" y="7" width="2" height="1"/><rect class="cls-8" x="6" y="7" width="1" height="1"/><rect class="cls-9" x="4" y="7" width="2" height="1"/><rect class="cls-11" x="3" y="7" width="1" height="1"/><polygon class="cls-3" points="3 5 4 5 4 4 2 4 2 8 3 8 3 5"/><rect class="cls-12" x="12" y="6" width="1" height="1"/><rect class="cls-13" x="11" y="5" width="1" height="2"/><rect class="cls-11" x="10" y="6" width="1" height="1"/><rect class="cls-14" x="9" y="6" width="1" height="2"/><polygon class="cls-15" points="7 6 7 7 9 7 9 6 10 6 10 5 8 5 8 6 7 6"/><rect class="cls-12" x="6" y="6" width="1" height="1"/><rect class="cls-13" x="5" y="6" width="1" height="1"/><rect class="cls-16" x="4" y="6" width="1" height="1"/><rect class="cls-17" x="3" y="6" width="1" height="1"/><rect class="cls-18" x="12" y="5" width="1" height="1"/><rect class="cls-17" x="10" y="5" width="1" height="1"/><rect class="cls-19" x="7" y="5" width="1" height="1"/><rect class="cls-18" x="6" y="5" width="1" height="1"/><rect class="cls-16" x="5" y="5" width="1" height="1"/><rect class="cls-15" x="3" y="5" width="2" height="1"/><rect class="cls-3" x="13" y="4" width="1" height="4"/><rect class="cls-19" x="12" y="4" width="1" height="1"/><rect class="cls-15" x="10" y="4" width="2" height="1"/><rect class="cls-12" x="8" y="4" width="2" height="1"/><rect class="cls-11" x="6" y="4" width="2" height="1"/><rect class="cls-12" x="4" y="4" width="2" height="1"/><rect class="cls-20" x="12" y="3" width="2" height="1"/><rect class="cls-19" x="11" y="3" width="1" height="1"/><rect class="cls-11" x="10" y="3" width="1" height="1"/><rect class="cls-18" x="4" y="3" width="2" height="1"/><rect class="cls-20" x="2" y="3" width="2" height="1"/><rect class="cls-1" x="15" y="2" width="1" height="13"/><polygon class="cls-7" points="9 2 9 3 7 3 7 2 2 2 2 3 6 3 6 4 10 4 10 3 14 3 14 2 9 2"/><rect class="cls-4" x="7" y="2" width="2" height="1"/><rect class="cls-1" x="14" y="1" width="1" height="1"/><rect class="cls-2" x="2" y="1" width="12" height="1"/><rect class="cls-1" x="1" y="1" width="1" height="1"/><rect class="cls-1" x="2" width="12" height="1"/></svg>