<svg id="Layer_1" data-name="Layer 1" xmlns="http://www.w3.org/2000/svg" viewBox="0 0 16 16"><defs><style>.cls-1{fill:#f7feff;}.cls-2{fill:#231e2b;}.cls-3{fill:#356e69;}.cls-4{fill:#acc756;}.cls-5{fill:#4fab59;}.cls-6{fill:#784028;}</style></defs><title>apple</title><rect class="cls-1" x="4" y="15" width="8" height="1"/><rect class="cls-1" x="12" y="14" width="1" height="1"/><rect class="cls-2" x="4" y="14" width="8" height="1"/><rect class="cls-1" x="3" y="14" width="1" height="1"/><rect class="cls-1" x="13" y="13" width="1" height="1"/><rect class="cls-2" x="12" y="13" width="1" height="1"/><rect class="cls-3" x="10" y="13" width="2" height="1"/><rect class="cls-3" x="4" y="13" width="2" height="1"/><rect class="cls-2" x="3" y="13" width="1" height="1"/><rect class="cls-1" x="2" y="13" width="1" height="1"/><rect class="cls-1" x="14" y="12" width="1" height="1"/><rect class="cls-2" x="13" y="12" width="1" height="1"/><rect class="cls-3" x="12" y="12" width="1" height="1"/><rect class="cls-3" x="3" y="12" width="1" height="1"/><rect class="cls-2" x="2" y="12" width="1" height="1"/><rect class="cls-1" x="1" y="12" width="1" height="1"/><rect class="cls-3" x="13" y="11" width="1" height="1"/><rect class="cls-3" x="2" y="11" width="1" height="1"/><rect class="cls-2" x="1" y="7" width="1" height="5"/><rect class="cls-2" x="14" y="7" width="1" height="5"/><rect class="cls-1" y="7" width="1" height="5"/><rect class="cls-4" x="3" y="7" width="1" height="3"/><rect class="cls-1" x="15" y="7" width="1" height="5"/><polygon class="cls-5" points="13 10 12 10 12 7 11 7 11 6 12 6 12 5 9 5 9 7 8 7 8 8 7 8 7 7 6 7 6 5 4 5 4 6 5 6 5 7 4 7 4 10 3 10 3 7 2 7 2 11 3 11 3 12 4 12 4 13 6 13 6 14 10 14 10 13 12 13 12 12 13 12 13 11 14 11 14 7 13 7 13 10"/><rect class="cls-4" x="12" y="7" width="1" height="3"/><rect class="cls-4" x="7" y="7" width="1" height="1"/><rect class="cls-1" x="14" y="6" width="1" height="1"/><rect class="cls-2" x="13" y="6" width="1" height="1"/><rect class="cls-5" x="12" y="6" width="1" height="1"/><rect class="cls-4" x="11" y="6" width="1" height="1"/><rect class="cls-4" x="8" y="6" width="1" height="1"/><rect class="cls-3" x="7" y="6" width="1" height="1"/><rect class="cls-4" x="6" y="6" width="1" height="1"/><rect class="cls-4" x="4" y="6" width="1" height="1"/><rect class="cls-5" x="3" y="6" width="1" height="1"/><rect class="cls-2" x="2" y="6" width="1" height="1"/><rect class="cls-1" x="1" y="6" width="1" height="1"/><rect class="cls-1" x="13" y="5" width="1" height="1"/><rect class="cls-2" x="12" y="5" width="1" height="1"/><rect class="cls-3" x="8" y="5" width="1" height="1"/><rect class="cls-6" x="7" y="3" width="1" height="3"/><rect class="cls-3" x="6" y="5" width="1" height="1"/><rect class="cls-2" x="3" y="5" width="1" height="1"/><rect class="cls-1" x="2" y="5" width="1" height="1"/><rect class="cls-1" x="12" y="4" width="1" height="1"/><polygon class="cls-2" points="7 5 7 3 6 3 6 4 4 4 4 5 7 5"/><rect class="cls-1" x="3" y="4" width="1" height="1"/><rect class="cls-1" x="9" y="3" width="3" height="1"/><polygon class="cls-2" points="8 5 12 5 12 4 9 4 9 3 8 3 8 5"/><polygon class="cls-1" points="6 4 6 3 5 3 5 1 4 1 4 4 6 4"/><rect class="cls-1" x="8" y="2" width="1" height="1"/><rect class="cls-2" x="7" y="2" width="1" height="1"/><rect class="cls-6" x="6" y="2" width="1" height="1"/><polygon class="cls-2" points="5 3 6 3 6 2 7 2 7 1 5 1 5 3"/><rect class="cls-1" x="7" y="1" width="1" height="1"/><rect class="cls-1" x="5" width="2" height="1"/></svg>