<svg id="Layer_1" data-name="Layer 1" xmlns="http://www.w3.org/2000/svg" viewBox="0 0 16 16"><defs><style>.cls-1{fill:#f7feff;}.cls-2{fill:#231e2b;}.cls-3{fill:#b0392e;}.cls-4{fill:#892727;}.cls-5{fill:#cf6b55;}</style></defs><title>arrow_5</title><rect class="cls-1" x="9" y="15" width="2" height="1"/><rect class="cls-1" x="6" y="15" width="2" height="1"/><rect class="cls-1" x="3" y="15" width="2" height="1"/><rect class="cls-1" x="11" y="14" width="1" height="1"/><rect class="cls-2" x="9" y="14" width="2" height="1"/><rect class="cls-1" x="8" y="14" width="1" height="1"/><rect class="cls-2" x="6" y="14" width="2" height="1"/><rect class="cls-1" x="5" y="14" width="1" height="1"/><rect class="cls-2" x="3" y="14" width="2" height="1"/><rect class="cls-1" x="2" y="14" width="1" height="1"/><rect class="cls-2" x="2" y="12" width="1" height="2"/><rect class="cls-1" x="12" y="12" width="1" height="2"/><rect class="cls-2" x="11" y="12" width="1" height="2"/><rect class="cls-3" x="10" y="12" width="1" height="2"/><rect class="cls-4" x="9" y="12" width="1" height="2"/><rect class="cls-2" x="8" y="12" width="1" height="2"/><rect class="cls-3" x="7" y="12" width="1" height="2"/><rect class="cls-4" x="6" y="12" width="1" height="2"/><rect class="cls-2" x="5" y="12" width="1" height="2"/><rect class="cls-3" x="4" y="12" width="1" height="2"/><rect class="cls-4" x="3" y="12" width="1" height="2"/><rect class="cls-1" x="1" y="12" width="1" height="2"/><rect class="cls-3" x="5" y="10" width="1" height="2"/><rect class="cls-4" x="4" y="10" width="1" height="2"/><rect class="cls-2" x="3" y="10" width="1" height="2"/><rect class="cls-1" x="2" y="10" width="1" height="2"/><rect class="cls-1" x="13" y="10" width="1" height="2"/><rect class="cls-2" x="12" y="10" width="1" height="2"/><rect class="cls-3" x="11" y="10" width="1" height="2"/><rect class="cls-4" x="10" y="10" width="1" height="2"/><rect class="cls-2" x="9" y="10" width="1" height="2"/><rect class="cls-3" x="8" y="10" width="1" height="2"/><rect class="cls-4" x="7" y="10" width="1" height="2"/><rect class="cls-2" x="6" y="10" width="1" height="2"/><rect class="cls-4" x="11" y="9" width="1" height="1"/><rect class="cls-4" x="8" y="9" width="1" height="1"/><rect class="cls-2" x="7" y="6" width="1" height="4"/><polygon class="cls-3" points="6 10 7 10 7 8 6 8 6 6 5 6 5 9 6 9 6 10"/><rect class="cls-4" x="5" y="9" width="1" height="1"/><rect class="cls-2" x="4" y="6" width="1" height="4"/><polygon class="cls-3" points="10 8 9 8 9 6 8 6 8 9 9 9 9 10 10 10 10 8"/><rect class="cls-1" x="14" y="6" width="1" height="4"/><rect class="cls-5" x="12" y="6" width="1" height="2"/><rect class="cls-2" x="10" y="6" width="1" height="4"/><rect class="cls-1" x="3" y="6" width="1" height="4"/><rect class="cls-2" x="13" y="6" width="1" height="4"/><polygon class="cls-3" points="11 9 12 9 12 10 13 10 13 8 12 8 12 6 11 6 11 9"/><rect class="cls-5" x="9" y="6" width="1" height="2"/><rect class="cls-5" x="6" y="6" width="1" height="2"/><rect class="cls-1" x="13" y="4" width="1" height="2"/><rect class="cls-5" x="11" y="4" width="1" height="2"/><rect class="cls-2" x="9" y="4" width="1" height="2"/><rect class="cls-5" x="8" y="4" width="1" height="2"/><rect class="cls-3" x="7" y="4" width="1" height="2"/><rect class="cls-2" x="6" y="4" width="1" height="2"/><rect class="cls-5" x="5" y="4" width="1" height="2"/><rect class="cls-3" x="4" y="4" width="1" height="2"/><rect class="cls-2" x="3" y="4" width="1" height="2"/><rect class="cls-2" x="12" y="4" width="1" height="2"/><rect class="cls-3" x="10" y="4" width="1" height="2"/><rect class="cls-1" x="2" y="4" width="1" height="2"/><rect class="cls-1" x="12" y="2" width="1" height="2"/><rect class="cls-5" x="10" y="2" width="1" height="2"/><rect class="cls-3" x="9" y="2" width="1" height="2"/><rect class="cls-2" x="8" y="2" width="1" height="2"/><rect class="cls-5" x="7" y="2" width="1" height="2"/><rect class="cls-3" x="6" y="2" width="1" height="2"/><rect class="cls-2" x="5" y="2" width="1" height="2"/><rect class="cls-5" x="4" y="2" width="1" height="2"/><rect class="cls-2" x="2" y="2" width="1" height="2"/><rect class="cls-2" x="11" y="2" width="1" height="2"/><rect class="cls-3" x="3" y="2" width="1" height="2"/><rect class="cls-1" x="1" y="2" width="1" height="2"/><rect class="cls-1" x="11" y="1" width="1" height="1"/><rect class="cls-2" x="9" y="1" width="2" height="1"/><rect class="cls-1" x="8" y="1" width="1" height="1"/><rect class="cls-2" x="6" y="1" width="2" height="1"/><rect class="cls-1" x="5" y="1" width="1" height="1"/><rect class="cls-2" x="3" y="1" width="2" height="1"/><rect class="cls-1" x="2" y="1" width="1" height="1"/><rect class="cls-1" x="9" width="2" height="1"/><rect class="cls-1" x="6" width="2" height="1"/><rect class="cls-1" x="3" width="2" height="1"/></svg>