<svg id="Layer_1" data-name="Layer 1" xmlns="http://www.w3.org/2000/svg" viewBox="0 0 16 16"><defs><style>.cls-1{fill:#f7feff;}.cls-2{fill:#231e2b;}.cls-3{fill:#518bcf;}.cls-4{fill:#85c7f2;}.cls-5{fill:#5eb0db;}.cls-6{fill:#b6b7b8;}.cls-7{fill:#47414d;}</style></defs><title>blue_liquid</title><rect class="cls-1" x="7" y="15" width="2" height="1"/><rect class="cls-1" x="9" y="14" width="1" height="1"/><rect class="cls-2" x="7" y="14" width="2" height="1"/><rect class="cls-1" x="6" y="14" width="1" height="1"/><rect class="cls-1" x="10" y="13" width="1" height="1"/><rect class="cls-2" x="9" y="13" width="1" height="1"/><rect class="cls-2" x="6" y="13" width="1" height="1"/><rect class="cls-1" x="5" y="13" width="1" height="1"/><rect class="cls-1" x="11" y="12" width="1" height="1"/><rect class="cls-2" x="10" y="12" width="1" height="1"/><polygon class="cls-3" points="6 12 6 13 7 13 7 14 9 14 9 13 10 13 10 12 6 12"/><rect class="cls-2" x="5" y="12" width="1" height="1"/><rect class="cls-1" x="4" y="12" width="1" height="1"/><rect class="cls-1" x="12" y="11" width="1" height="1"/><rect class="cls-2" x="11" y="11" width="1" height="1"/><rect class="cls-3" x="10" y="11" width="1" height="1"/><rect class="cls-4" x="8" y="11" width="1" height="1"/><rect class="cls-3" x="5" y="11" width="1" height="1"/><rect class="cls-2" x="4" y="11" width="1" height="1"/><rect class="cls-1" x="3" y="11" width="1" height="1"/><rect class="cls-1" x="13" y="9" width="1" height="2"/><rect class="cls-3" x="11" y="10" width="1" height="1"/><rect class="cls-4" x="6" y="10" width="1" height="1"/><rect class="cls-3" x="4" y="10" width="1" height="1"/><rect class="cls-2" x="3" y="9" width="1" height="2"/><rect class="cls-2" x="12" y="9" width="1" height="2"/><rect class="cls-4" x="11" y="9" width="1" height="1"/><rect class="cls-4" x="4" y="9" width="1" height="1"/><rect class="cls-1" x="2" y="9" width="1" height="2"/><rect class="cls-1" x="12" y="8" width="1" height="1"/><rect class="cls-2" x="11" y="8" width="1" height="1"/><rect class="cls-4" x="10" y="8" width="1" height="1"/><polygon class="cls-5" points="6 8 6 9 5 9 5 11 6 11 6 10 7 10 7 11 6 11 6 12 8 12 8 11 9 11 9 12 10 12 10 11 11 11 11 9 10 9 10 8 6 8"/><rect class="cls-4" x="5" y="8" width="1" height="1"/><rect class="cls-2" x="4" y="8" width="1" height="1"/><rect class="cls-1" x="3" y="8" width="1" height="1"/><rect class="cls-1" x="11" y="7" width="1" height="1"/><rect class="cls-2" x="10" y="7" width="1" height="1"/><polygon class="cls-1" points="10 8 10 7 9 7 9 5 7 5 7 7 6 7 6 8 10 8"/><rect class="cls-2" x="5" y="7" width="1" height="1"/><rect class="cls-1" x="4" y="7" width="1" height="1"/><rect class="cls-2" x="6" y="3" width="1" height="4"/><rect class="cls-6" x="7" y="4" width="2" height="1"/><rect class="cls-1" x="5" y="3" width="1" height="4"/><rect class="cls-1" x="10" y="3" width="1" height="4"/><rect class="cls-2" x="9" y="3" width="1" height="4"/><rect class="cls-7" x="7" y="3" width="2" height="1"/><rect class="cls-1" x="11" y="1" width="1" height="2"/><rect class="cls-1" x="6" y="2" width="4" height="1"/><polygon class="cls-2" points="6 2 10 2 10 3 11 3 11 1 5 1 5 3 6 3 6 2"/><rect class="cls-1" x="4" y="1" width="1" height="2"/><rect class="cls-1" x="5" width="6" height="1"/></svg>