<svg id="Layer_1" data-name="Layer 1" xmlns="http://www.w3.org/2000/svg" viewBox="0 0 16 16"><defs><style>.cls-1{fill:#f7feff;}.cls-2{fill:#231e2b;}.cls-3{fill:#4fab59;}.cls-4{fill:#acc756;}</style></defs><title>buck</title><rect class="cls-1" x="1" y="12" width="14" height="1"/><path class="cls-2" d="M15,4H1v8H15ZM2,11V5H14v6Z"/><polygon class="cls-3" points="6 10 6 6 7 6 7 5 4 5 4 6 3 6 3 7 2 7 2 9 3 9 3 10 4 10 4 11 7 11 7 10 6 10"/><polygon class="cls-4" points="3 10 3 9 2 9 2 11 4 11 4 10 3 10"/><rect class="cls-1" y="4" width="1" height="8"/><polygon class="cls-4" points="14 9 13 9 13 10 12 10 12 11 14 11 14 9"/><polygon class="cls-3" points="13 10 13 9 14 9 14 7 13 7 13 6 12 6 12 5 9 5 9 6 10 6 10 10 9 10 9 11 12 11 12 10 13 10"/><polygon class="cls-4" points="10 10 10 6 9 6 9 5 7 5 7 6 6 6 6 10 7 10 7 11 9 11 9 10 10 10"/><polygon class="cls-4" points="3 6 4 6 4 5 2 5 2 7 3 7 3 6"/><polygon class="cls-4" points="13 6 13 7 14 7 14 5 12 5 12 6 13 6"/><rect class="cls-1" x="15" y="4" width="1" height="8"/><rect class="cls-1" x="1" y="3" width="14" height="1"/></svg>