<svg id="Layer_1" data-name="Layer 1" xmlns="http://www.w3.org/2000/svg" viewBox="0 0 16 16"><defs><style>.cls-1{fill:#f7feff;}.cls-2{fill:#231e2b;}.cls-3{fill:#cf8934;}.cls-4{fill:#892727;}.cls-5{fill:#b0392e;}.cls-6{fill:#f5f38e;}.cls-7{fill:#e2b436;}.cls-8{fill:#4fab59;}.cls-9{fill:#acc756;}</style></defs><title>burger</title><rect class="cls-1" x="2" y="15" width="12" height="1"/><rect class="cls-1" x="14" y="14" width="1" height="1"/><rect class="cls-2" x="2" y="14" width="12" height="1"/><rect class="cls-1" x="1" y="14" width="1" height="1"/><rect class="cls-1" x="15" y="12" width="1" height="2"/><rect class="cls-2" x="1" y="12" width="1" height="2"/><rect class="cls-2" x="14" y="12" width="1" height="2"/><rect class="cls-3" x="2" y="12" width="12" height="2"/><rect class="cls-1" y="12" width="1" height="2"/><rect class="cls-1" x="14" y="11" width="1" height="1"/><rect class="cls-2" x="13" y="11" width="1" height="1"/><rect class="cls-4" x="3" y="11" width="10" height="1"/><rect class="cls-2" x="2" y="11" width="1" height="1"/><rect class="cls-1" x="1" y="11" width="1" height="1"/><polygon class="cls-5" points="11 10 11 9 8 9 8 10 6 10 6 9 4 9 4 10 2 10 2 11 14 11 14 10 11 10"/><rect class="cls-2" x="1" y="7" width="1" height="4"/><rect class="cls-4" x="13" y="9" width="1" height="1"/><rect class="cls-6" x="12" y="9" width="1" height="1"/><rect class="cls-4" x="11" y="9" width="1" height="1"/><rect class="cls-6" x="7" y="9" width="1" height="1"/><rect class="cls-4" x="3" y="9" width="1" height="1"/><rect class="cls-6" x="2" y="9" width="1" height="1"/><rect class="cls-1" y="7" width="1" height="4"/><rect class="cls-1" x="15" y="7" width="1" height="4"/><rect class="cls-6" x="13" y="8" width="1" height="1"/><rect class="cls-7" x="9" y="8" width="4" height="1"/><rect class="cls-4" x="8" y="8" width="1" height="1"/><polygon class="cls-7" points="6 8 6 10 7 10 7 9 8 9 8 8 6 8"/><rect class="cls-6" x="5" y="8" width="1" height="1"/><rect class="cls-7" x="2" y="8" width="3" height="1"/><rect class="cls-2" x="14" y="7" width="1" height="4"/><rect class="cls-8" x="13" y="7" width="1" height="1"/><rect class="cls-3" x="12" y="7" width="1" height="1"/><rect class="cls-8" x="11" y="7" width="1" height="1"/><rect class="cls-9" x="10" y="7" width="1" height="1"/><rect class="cls-3" x="9" y="7" width="1" height="1"/><rect class="cls-7" x="8" y="7" width="1" height="1"/><rect class="cls-9" x="6" y="7" width="1" height="1"/><rect class="cls-3" x="3" y="7" width="3" height="1"/><rect class="cls-9" x="2" y="7" width="1" height="1"/><rect class="cls-1" x="14" y="6" width="1" height="1"/><rect class="cls-2" x="13" y="6" width="1" height="1"/><rect class="cls-9" x="11" y="6" width="2" height="1"/><polygon class="cls-8" points="7 7 7 8 8 8 8 7 11 7 11 6 6 6 6 7 7 7"/><rect class="cls-9" x="5" y="6" width="1" height="1"/><rect class="cls-8" x="3" y="6" width="2" height="1"/><rect class="cls-2" x="2" y="6" width="1" height="1"/><rect class="cls-1" x="1" y="6" width="1" height="1"/><rect class="cls-2" x="1" y="3" width="1" height="3"/><rect class="cls-2" x="14" y="3" width="1" height="3"/><rect class="cls-1" y="3" width="1" height="3"/><rect class="cls-1" x="15" y="3" width="1" height="3"/><path class="cls-3" d="M13,4H12V3h1V2H11V3H10V2H7V3H6V4H5V3H4V2H3V3H2V6H14V3H13ZM9,3V4H8V3Z"/><rect class="cls-7" x="12" y="3" width="1" height="1"/><rect class="cls-7" x="8" y="3" width="1" height="1"/><rect class="cls-7" x="5" y="3" width="1" height="1"/><rect class="cls-1" x="14" y="2" width="1" height="1"/><rect class="cls-2" x="13" y="2" width="1" height="1"/><rect class="cls-7" x="10" y="2" width="1" height="1"/><rect class="cls-7" x="6" y="2" width="1" height="1"/><rect class="cls-3" x="5" y="2" width="1" height="1"/><rect class="cls-7" x="4" y="2" width="1" height="1"/><rect class="cls-2" x="2" y="2" width="1" height="1"/><rect class="cls-1" x="1" y="2" width="1" height="1"/><rect class="cls-1" x="13" y="1" width="1" height="1"/><rect class="cls-2" x="3" y="1" width="10" height="1"/><rect class="cls-1" x="2" y="1" width="1" height="1"/><rect class="cls-1" x="3" width="10" height="1"/></svg>