<svg id="Layer_1" data-name="Layer 1" xmlns="http://www.w3.org/2000/svg" viewBox="0 0 16 16"><defs><style>.cls-1{fill:#f7feff;}.cls-2{fill:#231e2b;}.cls-3{fill:#e2b436;}.cls-4{fill:#522b29;}.cls-5{fill:#cf8934;}.cls-6{fill:#b0392e;}.cls-7{fill:#784028;}.cls-8{fill:#4fab59;}</style></defs><title>burrito</title><rect class="cls-1" x="8" y="15" width="4" height="1"/><rect class="cls-1" x="12" y="14" width="1" height="1"/><rect class="cls-2" x="8" y="14" width="4" height="1"/><rect class="cls-1" x="7" y="14" width="1" height="1"/><rect class="cls-1" x="13" y="13" width="1" height="1"/><rect class="cls-2" x="12" y="13" width="1" height="1"/><rect class="cls-3" x="8" y="13" width="4" height="1"/><rect class="cls-2" x="7" y="13" width="1" height="1"/><rect class="cls-1" x="6" y="13" width="1" height="1"/><rect class="cls-1" x="14" y="12" width="1" height="1"/><rect class="cls-2" x="13" y="12" width="1" height="1"/><rect class="cls-3" x="12" y="12" width="1" height="1"/><rect class="cls-4" x="10" y="12" width="2" height="1"/><rect class="cls-5" x="8" y="12" width="1" height="1"/><rect class="cls-2" x="6" y="12" width="1" height="1"/><rect class="cls-1" x="5" y="12" width="1" height="1"/><rect class="cls-4" x="12" y="11" width="1" height="1"/><rect class="cls-6" x="8" y="11" width="1" height="1"/><polygon class="cls-3" points="8 9 7 9 7 10 5 10 5 11 6 11 6 12 7 12 7 13 8 13 8 9"/><rect class="cls-2" x="5" y="11" width="1" height="1"/><rect class="cls-1" x="4" y="11" width="1" height="1"/><rect class="cls-2" x="14" y="9" width="1" height="3"/><polygon class="cls-7" points="10 10 10 11 9 11 9 13 10 13 10 12 12 12 12 11 13 11 13 10 10 10"/><rect class="cls-5" x="9" y="10" width="1" height="1"/><rect class="cls-8" x="8" y="9" width="1" height="2"/><rect class="cls-2" x="4" y="10" width="1" height="1"/><rect class="cls-1" x="3" y="10" width="1" height="1"/><rect class="cls-1" x="15" y="9" width="1" height="3"/><rect class="cls-3" x="13" y="9" width="1" height="3"/><rect class="cls-5" x="12" y="9" width="1" height="1"/><rect class="cls-6" x="11" y="9" width="1" height="1"/><rect class="cls-5" x="10" y="9" width="1" height="1"/><rect class="cls-6" x="9" y="9" width="1" height="1"/><rect class="cls-5" x="4" y="9" width="3" height="1"/><rect class="cls-2" x="3" y="9" width="1" height="1"/><rect class="cls-1" x="2" y="9" width="1" height="1"/><rect class="cls-1" x="14" y="8" width="1" height="1"/><rect class="cls-2" x="13" y="8" width="1" height="1"/><rect class="cls-3" x="12" y="8" width="1" height="1"/><rect class="cls-8" x="9" y="8" width="3" height="1"/><rect class="cls-5" x="7" y="8" width="2" height="1"/><polygon class="cls-3" points="7 9 7 8 9 8 9 7 11 7 11 6 10 6 10 5 9 5 9 4 8 4 8 3 7 3 7 2 3 2 3 3 2 3 2 7 3 7 3 8 4 8 4 9 7 9"/><rect class="cls-5" x="3" y="8" width="1" height="1"/><rect class="cls-2" x="2" y="8" width="1" height="1"/><rect class="cls-1" x="1" y="8" width="1" height="1"/><rect class="cls-1" x="13" y="7" width="1" height="1"/><rect class="cls-2" x="12" y="7" width="1" height="1"/><rect class="cls-5" x="9" y="7" width="3" height="1"/><rect class="cls-5" x="2" y="7" width="1" height="1"/><rect class="cls-2" x="1" y="3" width="1" height="5"/><rect class="cls-1" x="12" y="6" width="1" height="1"/><rect class="cls-2" x="11" y="6" width="1" height="1"/><rect class="cls-1" y="3" width="1" height="5"/><rect class="cls-1" x="11" y="5" width="1" height="1"/><rect class="cls-2" x="10" y="5" width="1" height="1"/><rect class="cls-1" x="10" y="4" width="1" height="1"/><rect class="cls-2" x="9" y="4" width="1" height="1"/><rect class="cls-1" x="9" y="3" width="1" height="1"/><rect class="cls-2" x="8" y="3" width="1" height="1"/><rect class="cls-1" x="8" y="2" width="1" height="1"/><rect class="cls-2" x="7" y="2" width="1" height="1"/><rect class="cls-2" x="2" y="2" width="1" height="1"/><rect class="cls-1" x="1" y="2" width="1" height="1"/><rect class="cls-1" x="7" y="1" width="1" height="1"/><rect class="cls-2" x="3" y="1" width="4" height="1"/><rect class="cls-1" x="2" y="1" width="1" height="1"/><rect class="cls-1" x="3" width="4" height="1"/></svg>