<svg id="Layer_1" data-name="Layer 1" xmlns="http://www.w3.org/2000/svg" viewBox="0 0 16 16"><defs><style>.cls-1{fill:#f7feff;}.cls-2{fill:#231e2b;}.cls-3{fill:#784028;}.cls-4{fill:#522b29;}.cls-5{fill:#c7936b;}.cls-6{fill:#e8be9b;}.cls-7{fill:#a6644b;}</style></defs><title>cake</title><rect class="cls-1" x="1" y="15" width="14" height="1"/><polygon class="cls-2" points="15 5 14 5 14 14 2 14 2 5 1 5 1 15 15 15 15 5"/><rect class="cls-3" x="2" y="13" width="12" height="1"/><rect class="cls-1" y="5" width="1" height="10"/><rect class="cls-4" x="2" y="12" width="12" height="1"/><rect class="cls-5" x="2" y="10" width="12" height="2"/><rect class="cls-6" x="2" y="9" width="12" height="1"/><rect class="cls-7" x="2" y="6" width="12" height="3"/><rect class="cls-1" x="15" y="5" width="1" height="10"/><rect class="cls-1" x="14" y="4" width="1" height="1"/><rect class="cls-2" x="13" y="4" width="1" height="1"/><polygon class="cls-3" points="13 4 12 4 12 3 11 3 11 2 8 2 8 3 6 3 6 4 4 4 4 5 2 5 2 6 14 6 14 5 13 5 13 4"/><rect class="cls-2" x="2" y="4" width="2" height="1"/><rect class="cls-1" x="1" y="4" width="1" height="1"/><rect class="cls-1" x="13" y="3" width="1" height="1"/><rect class="cls-2" x="12" y="3" width="1" height="1"/><rect class="cls-2" x="4" y="3" width="2" height="1"/><rect class="cls-1" x="2" y="3" width="2" height="1"/><rect class="cls-1" x="12" y="2" width="1" height="1"/><rect class="cls-2" x="11" y="2" width="1" height="1"/><rect class="cls-2" x="6" y="2" width="2" height="1"/><rect class="cls-1" x="4" y="2" width="2" height="1"/><rect class="cls-1" x="11" y="1" width="1" height="1"/><rect class="cls-2" x="8" y="1" width="3" height="1"/><rect class="cls-1" x="6" y="1" width="2" height="1"/><rect class="cls-1" x="8" width="3" height="1"/></svg>