<svg id="Layer_1" data-name="Layer 1" xmlns="http://www.w3.org/2000/svg" viewBox="0 0 16 16"><defs><style>.cls-1{fill:#f7feff;}.cls-2{fill:#231e2b;}.cls-3{fill:#696168;}.cls-4{fill:#cf6b55;}.cls-5{fill:#892727;}.cls-6{fill:#b0392e;}.cls-7{fill:#36313b;}.cls-8{fill:#47414d;}</style></defs><title>car</title><rect class="cls-1" x="11" y="13" width="2" height="1"/><rect class="cls-1" x="3" y="13" width="2" height="1"/><rect class="cls-1" x="13" y="12" width="2" height="1"/><rect class="cls-2" x="11" y="12" width="2" height="1"/><rect class="cls-1" x="5" y="12" width="6" height="1"/><rect class="cls-2" x="3" y="12" width="2" height="1"/><rect class="cls-1" x="1" y="12" width="2" height="1"/><rect class="cls-3" x="11" y="11" width="2" height="1"/><rect class="cls-2" x="5" y="11" width="6" height="1"/><rect class="cls-3" x="3" y="11" width="2" height="1"/><polygon class="cls-2" points="3 12 3 11 2 11 2 8 1 8 1 12 3 12"/><polygon class="cls-2" points="15 8 14 8 14 11 13 11 13 12 15 12 15 8"/><rect class="cls-4" x="13" y="10" width="1" height="1"/><rect class="cls-2" x="11" y="10" width="2" height="1"/><rect class="cls-4" x="10" y="10" width="1" height="1"/><rect class="cls-5" x="6" y="10" width="4" height="1"/><rect class="cls-4" x="5" y="10" width="1" height="1"/><rect class="cls-2" x="3" y="10" width="2" height="1"/><rect class="cls-4" x="2" y="10" width="1" height="1"/><rect class="cls-1" y="8" width="1" height="4"/><rect class="cls-4" x="11" y="9" width="2" height="1"/><rect class="cls-4" x="3" y="9" width="2" height="1"/><rect class="cls-1" x="15" y="8" width="1" height="4"/><polygon class="cls-6" points="2 8 2 10 3 10 3 9 5 9 5 10 11 10 11 9 13 9 13 10 14 10 14 8 2 8"/><rect class="cls-1" x="14" y="7" width="1" height="1"/><rect class="cls-2" x="11" y="7" width="3" height="1"/><rect class="cls-4" x="10" y="7" width="1" height="1"/><rect class="cls-7" x="8" y="7" width="2" height="1"/><rect class="cls-7" x="5" y="7" width="2" height="1"/><rect class="cls-4" x="4" y="7" width="1" height="1"/><rect class="cls-2" x="2" y="7" width="2" height="1"/><rect class="cls-1" x="1" y="7" width="1" height="1"/><rect class="cls-1" x="11" y="6" width="3" height="1"/><rect class="cls-2" x="10" y="6" width="1" height="1"/><rect class="cls-4" x="9" y="6" width="1" height="1"/><rect class="cls-8" x="8" y="6" width="1" height="1"/><polygon class="cls-4" points="7 8 8 8 8 6 9 6 9 5 6 5 6 6 7 6 7 8"/><rect class="cls-8" x="6" y="6" width="1" height="1"/><rect class="cls-4" x="5" y="6" width="1" height="1"/><rect class="cls-2" x="4" y="6" width="1" height="1"/><rect class="cls-1" x="2" y="6" width="2" height="1"/><rect class="cls-1" x="10" y="5" width="1" height="1"/><rect class="cls-2" x="9" y="5" width="1" height="1"/><rect class="cls-2" x="5" y="5" width="1" height="1"/><rect class="cls-1" x="4" y="5" width="1" height="1"/><rect class="cls-1" x="9" y="4" width="1" height="1"/><rect class="cls-2" x="6" y="4" width="3" height="1"/><rect class="cls-1" x="5" y="4" width="1" height="1"/><rect class="cls-1" x="6" y="3" width="3" height="1"/></svg>