<svg id="Layer_1" data-name="Layer 1" xmlns="http://www.w3.org/2000/svg" viewBox="0 0 16 16"><defs><style>.cls-1{fill:#f7feff;}.cls-2{fill:#231e2b;}.cls-3{fill:#356e69;}.cls-4{fill:#acc756;}.cls-5{fill:#4fab59;}</style></defs><title>check_mark</title><rect class="cls-1" x="6" y="14" width="2" height="1"/><rect class="cls-1" x="8" y="13" width="1" height="1"/><rect class="cls-2" x="6" y="13" width="2" height="1"/><rect class="cls-1" x="5" y="13" width="1" height="1"/><rect class="cls-1" x="9" y="12" width="1" height="1"/><rect class="cls-2" x="8" y="12" width="1" height="1"/><rect class="cls-3" x="6" y="12" width="2" height="1"/><rect class="cls-2" x="5" y="12" width="1" height="1"/><rect class="cls-1" x="4" y="12" width="1" height="1"/><rect class="cls-1" x="10" y="11" width="1" height="1"/><rect class="cls-2" x="9" y="11" width="1" height="1"/><rect class="cls-3" x="8" y="11" width="1" height="1"/><rect class="cls-3" x="5" y="11" width="1" height="1"/><rect class="cls-2" x="4" y="11" width="1" height="1"/><rect class="cls-1" x="3" y="11" width="1" height="1"/><rect class="cls-1" x="11" y="10" width="1" height="1"/><rect class="cls-2" x="10" y="10" width="1" height="1"/><rect class="cls-3" x="9" y="10" width="1" height="1"/><rect class="cls-3" x="4" y="10" width="1" height="1"/><rect class="cls-2" x="3" y="10" width="1" height="1"/><rect class="cls-1" x="2" y="10" width="1" height="1"/><rect class="cls-1" x="12" y="9" width="1" height="1"/><rect class="cls-2" x="11" y="9" width="1" height="1"/><rect class="cls-3" x="10" y="9" width="1" height="1"/><rect class="cls-3" x="3" y="9" width="1" height="1"/><rect class="cls-2" x="2" y="9" width="1" height="1"/><rect class="cls-1" x="1" y="9" width="1" height="1"/><rect class="cls-1" x="13" y="8" width="1" height="1"/><rect class="cls-2" x="12" y="8" width="1" height="1"/><rect class="cls-3" x="11" y="8" width="1" height="1"/><rect class="cls-4" x="6" y="8" width="2" height="1"/><rect class="cls-3" x="2" y="8" width="1" height="1"/><rect class="cls-2" x="1" y="7" width="1" height="2"/><rect class="cls-1" x="14" y="7" width="1" height="1"/><rect class="cls-2" x="13" y="7" width="1" height="1"/><rect class="cls-3" x="12" y="7" width="1" height="1"/><rect class="cls-4" x="8" y="7" width="1" height="1"/><rect class="cls-2" x="6" y="7" width="2" height="1"/><rect class="cls-4" x="5" y="7" width="1" height="1"/><rect class="cls-1" y="7" width="1" height="2"/><rect class="cls-3" x="13" y="6" width="1" height="1"/><rect class="cls-4" x="9" y="6" width="1" height="1"/><rect class="cls-2" x="8" y="6" width="1" height="1"/><rect class="cls-1" x="6" y="6" width="2" height="1"/><rect class="cls-2" x="5" y="6" width="1" height="1"/><rect class="cls-4" x="3" y="6" width="2" height="1"/><rect class="cls-2" x="2" y="6" width="1" height="1"/><rect class="cls-1" x="1" y="6" width="1" height="1"/><rect class="cls-1" x="15" y="5" width="1" height="2"/><rect class="cls-2" x="14" y="5" width="1" height="2"/><rect class="cls-4" x="13" y="5" width="1" height="1"/><polygon class="cls-5" points="13 5 11 5 11 6 10 6 10 7 9 7 9 8 8 8 8 9 6 9 6 8 5 8 5 7 2 7 2 8 3 8 3 9 4 9 4 10 5 10 5 11 6 11 6 12 8 12 8 11 9 11 9 10 10 10 10 9 11 9 11 8 12 8 12 7 13 7 13 5"/><rect class="cls-4" x="10" y="5" width="1" height="1"/><rect class="cls-2" x="9" y="5" width="1" height="1"/><rect class="cls-1" x="8" y="5" width="1" height="1"/><rect class="cls-1" x="5" y="5" width="1" height="1"/><rect class="cls-2" x="3" y="5" width="2" height="1"/><rect class="cls-1" x="2" y="5" width="1" height="1"/><rect class="cls-1" x="14" y="4" width="1" height="1"/><rect class="cls-2" x="13" y="4" width="1" height="1"/><rect class="cls-4" x="11" y="4" width="2" height="1"/><rect class="cls-2" x="10" y="4" width="1" height="1"/><rect class="cls-1" x="9" y="4" width="1" height="1"/><rect class="cls-1" x="3" y="4" width="2" height="1"/><rect class="cls-1" x="13" y="3" width="1" height="1"/><rect class="cls-2" x="11" y="3" width="2" height="1"/><rect class="cls-1" x="10" y="3" width="1" height="1"/><rect class="cls-1" x="11" y="2" width="2" height="1"/></svg>