<svg id="Layer_1" data-name="Layer 1" xmlns="http://www.w3.org/2000/svg" viewBox="0 0 16 16"><defs><style>.cls-1{fill:#f7feff;}.cls-2{fill:#231e2b;}.cls-3{fill:#cf8934;}.cls-4{fill:#e2b436;}.cls-5{fill:#522b29;}.cls-6{fill:#784028;}.cls-7{fill:#c2751d;}.cls-8{fill:#f5f38e;}.cls-9{fill:#a6644b;}</style></defs><title>chest</title><rect class="cls-1" x="1" y="15" width="14" height="1"/><polygon class="cls-2" points="15 2 14 2 14 14 2 14 2 2 1 2 1 15 15 15 15 2"/><rect class="cls-3" x="2" y="13" width="12" height="1"/><rect class="cls-1" y="2" width="1" height="13"/><rect class="cls-4" x="2" y="10" width="2" height="3"/><rect class="cls-5" x="6" y="11" width="4" height="1"/><rect class="cls-4" x="12" y="10" width="2" height="3"/><polygon class="cls-6" points="10 10 10 12 6 12 6 10 4 10 4 13 12 13 12 10 10 10"/><rect class="cls-7" x="12" y="9" width="2" height="1"/><rect class="cls-5" x="10" y="9" width="2" height="1"/><rect class="cls-5" x="7" y="8" width="2" height="2"/><rect class="cls-5" x="4" y="9" width="2" height="1"/><rect class="cls-7" x="2" y="9" width="2" height="1"/><rect class="cls-8" x="10" y="8" width="4" height="1"/><polygon class="cls-4" points="9 10 7 10 7 8 6 8 6 11 10 11 10 8 9 8 9 10"/><rect class="cls-8" x="2" y="8" width="4" height="1"/><rect class="cls-5" x="10" y="7" width="2" height="1"/><rect class="cls-8" x="6" y="7" width="4" height="1"/><rect class="cls-5" x="4" y="7" width="2" height="1"/><rect class="cls-4" x="2" y="2" width="2" height="6"/><rect class="cls-9" x="10" y="6" width="2" height="1"/><rect class="cls-5" x="6" y="6" width="4" height="1"/><rect class="cls-9" x="4" y="6" width="2" height="1"/><rect class="cls-6" x="4" y="5" width="8" height="1"/><rect class="cls-9" x="4" y="4" width="8" height="1"/><rect class="cls-6" x="4" y="3" width="8" height="1"/><rect class="cls-1" x="15" y="2" width="1" height="13"/><rect class="cls-4" x="12" y="2" width="2" height="6"/><rect class="cls-9" x="4" y="2" width="8" height="1"/><rect class="cls-1" x="14" y="1" width="1" height="1"/><rect class="cls-2" x="2" y="1" width="12" height="1"/><rect class="cls-1" x="1" y="1" width="1" height="1"/><rect class="cls-1" x="2" width="12" height="1"/></svg>