<svg id="Layer_1" data-name="Layer 1" xmlns="http://www.w3.org/2000/svg" viewBox="0 0 16 16"><defs><style>.cls-1{fill:#f7feff;}.cls-2{fill:#231e2b;}.cls-3{fill:#c7936b;}.cls-4{fill:#e8be9b;}.cls-5{fill:#522b29;}.cls-6{fill:#85523c;}.cls-7{fill:#784028;}</style></defs><title>chicken</title><rect class="cls-1" x="3" y="15" width="2" height="1"/><rect class="cls-1" x="2" y="14" width="1" height="1"/><polygon class="cls-2" points="5 12 4 12 4 14 3 14 3 15 5 15 5 12"/><rect class="cls-3" x="3" y="13" width="1" height="1"/><rect class="cls-2" x="2" y="13" width="1" height="1"/><rect class="cls-1" x="1" y="13" width="1" height="1"/><rect class="cls-1" x="5" y="12" width="1" height="3"/><rect class="cls-4" x="3" y="12" width="1" height="1"/><rect class="cls-3" x="2" y="12" width="1" height="1"/><polygon class="cls-2" points="2 12 4 12 4 11 1 11 1 13 2 13 2 12"/><rect class="cls-1" x="6" y="11" width="1" height="1"/><rect class="cls-2" x="5" y="11" width="1" height="1"/><rect class="cls-4" x="4" y="11" width="1" height="1"/><rect class="cls-1" y="11" width="1" height="2"/><rect class="cls-1" x="7" y="10" width="4" height="1"/><rect class="cls-2" x="6" y="10" width="1" height="1"/><rect class="cls-4" x="5" y="10" width="1" height="1"/><rect class="cls-2" x="4" y="10" width="1" height="1"/><rect class="cls-1" x="1" y="10" width="3" height="1"/><rect class="cls-1" x="11" y="9" width="2" height="1"/><rect class="cls-2" x="7" y="9" width="4" height="1"/><rect class="cls-3" x="6" y="9" width="1" height="1"/><rect class="cls-2" x="5" y="9" width="1" height="1"/><rect class="cls-1" x="4" y="9" width="1" height="1"/><rect class="cls-1" x="13" y="8" width="1" height="1"/><rect class="cls-2" x="11" y="8" width="2" height="1"/><polygon class="cls-5" points="8 8 8 7 7 7 7 9 11 9 11 8 8 8"/><rect class="cls-1" x="5" y="5" width="1" height="4"/><rect class="cls-1" x="14" y="7" width="1" height="1"/><rect class="cls-2" x="13" y="7" width="1" height="1"/><rect class="cls-2" x="6" y="5" width="1" height="4"/><rect class="cls-2" x="14" y="3" width="1" height="4"/><rect class="cls-2" x="7" y="3" width="1" height="2"/><rect class="cls-1" x="6" y="3" width="1" height="2"/><rect class="cls-1" x="15" y="3" width="1" height="4"/><rect class="cls-6" x="13" y="3" width="1" height="1"/><polygon class="cls-7" points="13 3 8 3 8 5 7 5 7 7 8 7 8 8 13 8 13 7 14 7 14 4 13 4 13 3"/><rect class="cls-1" x="14" y="2" width="1" height="1"/><rect class="cls-2" x="13" y="2" width="1" height="1"/><rect class="cls-6" x="9" y="2" width="4" height="1"/><rect class="cls-2" x="8" y="2" width="1" height="1"/><rect class="cls-1" x="7" y="2" width="1" height="1"/><rect class="cls-1" x="13" y="1" width="1" height="1"/><rect class="cls-2" x="9" y="1" width="4" height="1"/><rect class="cls-1" x="8" y="1" width="1" height="1"/><rect class="cls-1" x="9" width="4" height="1"/></svg>