<svg id="Layer_1" data-name="Layer 1" xmlns="http://www.w3.org/2000/svg" viewBox="0 0 16 16"><defs><style>.cls-1{fill:#f7feff;}.cls-2{fill:#231e2b;}.cls-3{fill:#b0392e;}.cls-4{fill:#cf6b55;}.cls-5{fill:#d68271;}.cls-6{fill:#522b29;}.cls-7{fill:#b6b7b8;}.cls-8{fill:#a6644b;}.cls-9{fill:#c7936b;}.cls-10{fill:#696168;}</style></defs><title>cow</title><rect class="cls-1" x="4" y="15" width="8" height="1"/><rect class="cls-1" x="12" y="14" width="1" height="1"/><rect class="cls-2" x="4" y="14" width="8" height="1"/><rect class="cls-1" x="3" y="14" width="1" height="1"/><rect class="cls-1" x="13" y="13" width="1" height="1"/><rect class="cls-2" x="12" y="13" width="1" height="1"/><rect class="cls-3" x="4" y="13" width="8" height="1"/><rect class="cls-2" x="3" y="13" width="1" height="1"/><rect class="cls-1" x="2" y="13" width="1" height="1"/><rect class="cls-3" x="12" y="12" width="1" height="1"/><rect class="cls-3" x="3" y="12" width="1" height="1"/><rect class="cls-2" x="2" y="9" width="1" height="4"/><rect class="cls-1" x="1" y="9" width="1" height="4"/><rect class="cls-1" x="14" y="9" width="1" height="4"/><rect class="cls-3" x="12" y="9" width="1" height="2"/><rect class="cls-3" x="3" y="9" width="1" height="2"/><rect class="cls-2" x="13" y="9" width="1" height="4"/><polygon class="cls-4" points="4 9 4 11 3 11 3 12 4 12 4 13 12 13 12 12 13 12 13 11 12 11 12 9 4 9"/><rect class="cls-1" x="13" y="8" width="1" height="1"/><rect class="cls-2" x="12" y="8" width="1" height="1"/><rect class="cls-5" x="4" y="8" width="8" height="1"/><rect class="cls-2" x="3" y="8" width="1" height="1"/><rect class="cls-1" x="2" y="8" width="1" height="1"/><rect class="cls-6" x="5" y="7" width="6" height="1"/><polygon class="cls-1" points="4 6 2 6 2 7 3 7 3 8 4 8 4 6"/><polygon class="cls-1" points="12 6 12 8 13 8 13 7 14 7 14 6 12 6"/><rect class="cls-7" x="10" y="6" width="1" height="1"/><rect class="cls-7" x="7" y="6" width="2" height="1"/><rect class="cls-7" x="5" y="6" width="1" height="1"/><rect class="cls-1" x="14" y="5" width="1" height="1"/><polygon class="cls-2" points="11 5 11 8 12 8 12 6 14 6 14 5 11 5"/><rect class="cls-1" x="10" y="5" width="1" height="1"/><rect class="cls-2" x="9" y="5" width="1" height="2"/><rect class="cls-2" x="6" y="5" width="1" height="2"/><rect class="cls-1" x="5" y="5" width="1" height="1"/><polygon class="cls-2" points="4 6 4 8 5 8 5 5 2 5 2 6 4 6"/><rect class="cls-1" x="1" y="5" width="1" height="1"/><rect class="cls-7" x="10" y="4" width="1" height="1"/><polygon class="cls-1" points="6 5 7 5 7 6 9 6 9 5 10 5 10 3 6 3 6 5"/><rect class="cls-7" x="5" y="4" width="1" height="1"/><polygon class="cls-8" points="3 4 3 3 2 3 2 5 5 5 5 4 3 4"/><polygon class="cls-2" points="2 2 3 2 3 1 1 1 1 5 2 5 2 2"/><polygon class="cls-2" points="15 1 13 1 13 2 14 2 14 5 15 5 15 1"/><polygon class="cls-8" points="13 4 11 4 11 5 14 5 14 3 13 3 13 4"/><rect class="cls-9" x="11" y="3" width="2" height="1"/><rect class="cls-10" x="10" y="3" width="1" height="1"/><rect class="cls-10" x="5" y="3" width="1" height="1"/><rect class="cls-9" x="3" y="3" width="2" height="1"/><rect class="cls-1" y="1" width="1" height="4"/><rect class="cls-9" x="13" y="2" width="1" height="1"/><rect class="cls-2" x="3" y="2" width="10" height="1"/><rect class="cls-9" x="2" y="2" width="1" height="1"/><rect class="cls-1" x="15" y="1" width="1" height="4"/><rect class="cls-1" x="3" y="1" width="10" height="1"/><rect class="cls-1" x="13" width="2" height="1"/><rect class="cls-1" x="1" width="2" height="1"/></svg>