<svg id="Layer_1" data-name="Layer 1" xmlns="http://www.w3.org/2000/svg" viewBox="0 0 16 16"><defs><style>.cls-1{fill:#f7feff;}.cls-2{fill:#231e2b;}.cls-3{fill:#b0392e;}.cls-4{fill:#892727;}.cls-5{fill:#cf6b55;}</style></defs><title>crab</title><rect class="cls-1" x="11" y="15" width="1" height="1"/><rect class="cls-1" x="4" y="15" width="1" height="1"/><rect class="cls-1" x="12" y="14" width="1" height="1"/><rect class="cls-2" x="11" y="14" width="1" height="1"/><rect class="cls-1" x="10" y="14" width="1" height="1"/><rect class="cls-1" x="5" y="14" width="1" height="1"/><rect class="cls-2" x="4" y="14" width="1" height="1"/><rect class="cls-1" x="3" y="14" width="1" height="1"/><rect class="cls-3" x="11" y="13" width="1" height="1"/><rect class="cls-2" x="10" y="13" width="1" height="1"/><rect class="cls-1" x="6" y="13" width="4" height="1"/><rect class="cls-2" x="5" y="13" width="1" height="1"/><rect class="cls-3" x="4" y="13" width="1" height="1"/><polygon class="cls-2" points="4 13 5 13 5 12 6 12 6 11 4 11 4 12 3 12 3 14 4 14 4 13"/><rect class="cls-1" x="13" y="12" width="1" height="2"/><polygon class="cls-2" points="13 12 12 12 12 11 10 11 10 12 11 12 11 13 12 13 12 14 13 14 13 12"/><rect class="cls-3" x="10" y="12" width="1" height="1"/><rect class="cls-2" x="6" y="12" width="4" height="1"/><rect class="cls-3" x="5" y="12" width="1" height="1"/><rect class="cls-1" x="2" y="12" width="1" height="2"/><rect class="cls-1" x="14" y="11" width="1" height="1"/><rect class="cls-2" x="13" y="11" width="1" height="1"/><rect class="cls-3" x="12" y="11" width="1" height="1"/><rect class="cls-4" x="6" y="11" width="4" height="1"/><rect class="cls-3" x="3" y="11" width="1" height="1"/><rect class="cls-2" x="2" y="11" width="1" height="1"/><rect class="cls-1" x="1" y="11" width="1" height="1"/><rect class="cls-1" x="13" y="10" width="1" height="1"/><rect class="cls-2" x="12" y="10" width="1" height="1"/><rect class="cls-3" x="11" y="10" width="1" height="1"/><rect class="cls-4" x="10" y="10" width="1" height="1"/><rect class="cls-3" x="6" y="10" width="4" height="1"/><rect class="cls-4" x="5" y="10" width="1" height="1"/><rect class="cls-3" x="4" y="10" width="1" height="1"/><rect class="cls-2" x="3" y="10" width="1" height="1"/><rect class="cls-1" x="2" y="10" width="1" height="1"/><rect class="cls-1" x="12" y="9" width="1" height="1"/><rect class="cls-2" x="10" y="9" width="2" height="1"/><rect class="cls-4" x="6" y="9" width="4" height="1"/><rect class="cls-2" x="4" y="9" width="2" height="1"/><rect class="cls-1" x="3" y="9" width="1" height="1"/><rect class="cls-1" x="13" y="8" width="1" height="1"/><rect class="cls-2" x="12" y="8" width="1" height="1"/><rect class="cls-3" x="4" y="8" width="8" height="1"/><rect class="cls-2" x="3" y="8" width="1" height="1"/><rect class="cls-1" x="2" y="8" width="1" height="1"/><rect class="cls-5" x="9" y="7" width="1" height="1"/><rect class="cls-2" x="7" y="7" width="2" height="1"/><rect class="cls-5" x="6" y="7" width="1" height="1"/><polygon class="cls-2" points="6 8 6 7 5 7 5 6 4 6 4 8 6 8"/><rect class="cls-2" x="2" y="6" width="1" height="2"/><rect class="cls-1" x="14" y="6" width="1" height="2"/><rect class="cls-2" x="13" y="6" width="1" height="2"/><rect class="cls-3" x="12" y="6" width="1" height="2"/><polygon class="cls-2" points="12 6 11 6 11 7 10 7 10 8 12 8 12 6"/><rect class="cls-1" x="10" y="6" width="1" height="1"/><rect class="cls-2" x="9" y="6" width="1" height="1"/><rect class="cls-1" x="7" y="6" width="2" height="1"/><rect class="cls-2" x="6" y="6" width="1" height="1"/><rect class="cls-1" x="5" y="6" width="1" height="1"/><rect class="cls-3" x="3" y="6" width="1" height="2"/><rect class="cls-1" x="1" y="6" width="1" height="2"/><rect class="cls-4" x="12" y="5" width="1" height="1"/><rect class="cls-3" x="11" y="4" width="1" height="2"/><rect class="cls-2" x="10" y="4" width="1" height="2"/><rect class="cls-1" x="9" y="4" width="1" height="2"/><rect class="cls-1" x="6" y="4" width="1" height="2"/><rect class="cls-3" x="4" y="4" width="1" height="2"/><rect class="cls-4" x="3" y="5" width="1" height="1"/><rect class="cls-2" x="1" y="3" width="1" height="3"/><rect class="cls-2" x="14" y="3" width="1" height="3"/><rect class="cls-2" x="5" y="4" width="1" height="2"/><rect class="cls-3" x="2" y="3" width="1" height="3"/><rect class="cls-1" y="3" width="1" height="3"/><rect class="cls-1" x="15" y="3" width="1" height="3"/><rect class="cls-3" x="13" y="3" width="1" height="3"/><polygon class="cls-2" points="11 4 12 4 12 5 13 5 13 3 12 3 12 2 11 2 11 4"/><rect class="cls-1" x="10" y="2" width="1" height="2"/><rect class="cls-1" x="5" y="2" width="1" height="2"/><rect class="cls-1" x="14" y="2" width="1" height="1"/><rect class="cls-2" x="13" y="2" width="1" height="1"/><rect class="cls-3" x="12" y="2" width="1" height="1"/><polygon class="cls-2" points="4 3 3 3 3 5 4 5 4 4 5 4 5 2 4 2 4 3"/><rect class="cls-3" x="3" y="2" width="1" height="1"/><rect class="cls-2" x="2" y="2" width="1" height="1"/><rect class="cls-1" x="1" y="2" width="1" height="1"/><rect class="cls-1" x="13" y="1" width="1" height="1"/><rect class="cls-2" x="12" y="1" width="1" height="1"/><rect class="cls-1" x="11" y="1" width="1" height="1"/><rect class="cls-1" x="4" y="1" width="1" height="1"/><rect class="cls-2" x="3" y="1" width="1" height="1"/><rect class="cls-1" x="2" y="1" width="1" height="1"/><rect class="cls-1" x="12" width="1" height="1"/><rect class="cls-1" x="3" width="1" height="1"/></svg>