<svg id="Layer_1" data-name="Layer 1" xmlns="http://www.w3.org/2000/svg" viewBox="0 0 16 16"><defs><style>.cls-1{fill:#f7feff;}.cls-2{fill:#231e2b;}.cls-3{fill:#b6b7b8;}.cls-4{fill:#8f8f8f;}.cls-5{fill:#47414d;}</style></defs><title>display</title><rect class="cls-1" x="5" y="15" width="6" height="1"/><polygon class="cls-2" points="11 13 10 13 10 14 6 14 6 13 5 13 5 15 11 15 11 13"/><rect class="cls-3" x="6" y="13" width="4" height="1"/><polygon class="cls-1" points="5 13 6 13 6 12 2 12 2 13 4 13 4 15 5 15 5 13"/><polygon class="cls-1" points="10 12 10 13 11 13 11 15 12 15 12 13 14 13 14 12 10 12"/><rect class="cls-4" x="7" y="12" width="2" height="1"/><rect class="cls-1" x="14" y="11" width="1" height="1"/><polygon class="cls-2" points="2 11 2 12 6 12 6 13 7 13 7 12 9 12 9 13 10 13 10 12 14 12 14 11 2 11"/><rect class="cls-1" x="1" y="11" width="1" height="1"/><rect class="cls-2" x="1" y="2" width="1" height="9"/><rect class="cls-2" x="14" y="2" width="1" height="9"/><rect class="cls-3" x="2" y="9" width="12" height="2"/><rect class="cls-1" y="2" width="1" height="9"/><rect class="cls-1" x="15" y="2" width="1" height="9"/><rect class="cls-5" x="2" y="2" width="12" height="7"/><rect class="cls-1" x="14" y="1" width="1" height="1"/><rect class="cls-2" x="2" y="1" width="12" height="1"/><rect class="cls-1" x="1" y="1" width="1" height="1"/><rect class="cls-1" x="2" width="12" height="1"/></svg>