<svg id="Layer_1" data-name="Layer 1" xmlns="http://www.w3.org/2000/svg" viewBox="0 0 16 16"><defs><style>.cls-1{fill:#f7feff;}.cls-2{fill:#231e2b;}.cls-3{fill:#acc756;}.cls-4{fill:#356e69;}.cls-5{fill:#4fab59;}</style></defs><title>emerald</title><rect class="cls-1" x="5" y="15" width="6" height="1"/><rect class="cls-1" x="11" y="14" width="1" height="1"/><rect class="cls-2" x="5" y="14" width="6" height="1"/><rect class="cls-1" x="4" y="14" width="1" height="1"/><rect class="cls-1" x="12" y="13" width="1" height="1"/><rect class="cls-2" x="11" y="13" width="1" height="1"/><rect class="cls-3" x="5" y="13" width="2" height="1"/><rect class="cls-2" x="4" y="13" width="1" height="1"/><rect class="cls-1" x="3" y="13" width="1" height="1"/><rect class="cls-1" x="13" y="12" width="1" height="1"/><rect class="cls-2" x="12" y="12" width="1" height="1"/><rect class="cls-3" x="4" y="12" width="1" height="1"/><rect class="cls-2" x="3" y="12" width="1" height="1"/><rect class="cls-1" x="2" y="12" width="1" height="1"/><rect class="cls-1" x="14" y="11" width="1" height="1"/><rect class="cls-2" x="13" y="11" width="1" height="1"/><rect class="cls-4" x="6" y="11" width="4" height="1"/><rect class="cls-3" x="3" y="11" width="1" height="1"/><rect class="cls-2" x="2" y="11" width="1" height="1"/><rect class="cls-1" x="1" y="11" width="1" height="1"/><rect class="cls-4" x="10" y="10" width="1" height="1"/><polygon class="cls-5" points="10 11 10 10 11 10 11 7 10 7 10 6 8 6 8 5 6 5 6 6 5 6 5 10 6 10 6 11 10 11"/><rect class="cls-4" x="5" y="10" width="1" height="1"/><rect class="cls-3" x="2" y="10" width="1" height="1"/><rect class="cls-2" x="1" y="5" width="1" height="6"/><rect class="cls-2" x="14" y="5" width="1" height="6"/><rect class="cls-1" y="5" width="1" height="6"/><rect class="cls-4" x="4" y="6" width="1" height="4"/><rect class="cls-4" x="11" y="6" width="1" height="4"/><rect class="cls-3" x="10" y="6" width="1" height="1"/><rect class="cls-1" x="15" y="5" width="1" height="6"/><path class="cls-5" d="M12,5V4H11V3H8V2H5V3H4V4H3V5H2v5H3v1H4v1H5v1H7v1h4V13h1V12h1V11h1V5ZM6,12V11H5V10H4V6H5V5H6V4h4V5h1V6h1v4H11v1H10v1Z"/><rect class="cls-4" x="10" y="5" width="1" height="1"/><rect class="cls-3" x="8" y="5" width="2" height="1"/><rect class="cls-4" x="5" y="5" width="1" height="1"/><rect class="cls-1" x="14" y="4" width="1" height="1"/><rect class="cls-2" x="13" y="4" width="1" height="1"/><rect class="cls-3" x="12" y="4" width="1" height="1"/><rect class="cls-4" x="6" y="4" width="4" height="1"/><rect class="cls-2" x="2" y="4" width="1" height="1"/><rect class="cls-1" x="1" y="4" width="1" height="1"/><rect class="cls-1" x="13" y="3" width="1" height="1"/><rect class="cls-2" x="12" y="3" width="1" height="1"/><rect class="cls-3" x="11" y="3" width="1" height="1"/><rect class="cls-2" x="3" y="3" width="1" height="1"/><rect class="cls-1" x="2" y="3" width="1" height="1"/><rect class="cls-1" x="12" y="2" width="1" height="1"/><rect class="cls-2" x="11" y="2" width="1" height="1"/><rect class="cls-3" x="8" y="2" width="3" height="1"/><rect class="cls-2" x="4" y="2" width="1" height="1"/><rect class="cls-1" x="3" y="2" width="1" height="1"/><rect class="cls-1" x="11" y="1" width="1" height="1"/><rect class="cls-2" x="5" y="1" width="6" height="1"/><rect class="cls-1" x="4" y="1" width="1" height="1"/><rect class="cls-1" x="5" width="6" height="1"/></svg>