<svg id="Layer_1" data-name="Layer 1" xmlns="http://www.w3.org/2000/svg" viewBox="0 0 16 16"><defs><style>.cls-1{fill:#f7feff;}.cls-2{fill:#231e2b;}.cls-3{fill:#f5f38e;}.cls-4{fill:#e2b436;}.cls-5{fill:#c2751d;}.cls-6{fill:#cf8934;}.cls-7{fill:#b0392e;}.cls-8{fill:#892727;}</style></defs><title>fire</title><rect class="cls-1" x="5" y="15" width="6" height="1"/><rect class="cls-1" x="11" y="14" width="2" height="1"/><rect class="cls-2" x="5" y="14" width="6" height="1"/><rect class="cls-1" x="3" y="14" width="2" height="1"/><rect class="cls-1" x="13" y="13" width="1" height="1"/><rect class="cls-2" x="11" y="13" width="2" height="1"/><rect class="cls-2" x="3" y="13" width="2" height="1"/><rect class="cls-1" x="2" y="13" width="1" height="1"/><rect class="cls-1" x="14" y="12" width="1" height="1"/><rect class="cls-2" x="13" y="12" width="1" height="1"/><polygon class="cls-3" points="10 12 10 13 9 13 9 11 8 11 8 10 7 10 7 12 6 12 6 11 5 11 5 12 4 12 4 13 5 13 5 14 11 14 11 12 10 12"/><rect class="cls-4" x="3" y="12" width="1" height="1"/><rect class="cls-2" x="2" y="12" width="1" height="1"/><rect class="cls-1" x="1" y="12" width="1" height="1"/><rect class="cls-5" x="13" y="11" width="1" height="1"/><rect class="cls-6" x="12" y="11" width="1" height="1"/><polygon class="cls-4" points="12 10 11 10 11 11 10 11 10 10 9 10 9 9 8 9 8 7 7 7 7 10 8 10 8 11 9 11 9 13 10 13 10 12 11 12 11 13 13 13 13 12 12 12 12 10"/><rect class="cls-6" x="3" y="11" width="1" height="1"/><rect class="cls-5" x="2" y="11" width="1" height="1"/><rect class="cls-2" x="1" y="8" width="1" height="4"/><rect class="cls-2" x="14" y="8" width="1" height="4"/><rect class="cls-7" x="13" y="10" width="1" height="1"/><rect class="cls-6" x="10" y="10" width="1" height="1"/><polygon class="cls-4" points="4 10 4 9 3 9 3 11 4 11 4 12 5 12 5 11 6 11 6 12 7 12 7 10 4 10"/><rect class="cls-7" x="2" y="9" width="1" height="2"/><rect class="cls-1" y="8" width="1" height="4"/><rect class="cls-5" x="12" y="9" width="1" height="2"/><rect class="cls-6" x="11" y="9" width="1" height="1"/><rect class="cls-5" x="10" y="9" width="1" height="1"/><rect class="cls-6" x="9" y="9" width="1" height="1"/><rect class="cls-3" x="6" y="9" width="1" height="1"/><rect class="cls-6" x="5" y="9" width="1" height="1"/><rect class="cls-5" x="4" y="9" width="1" height="1"/><rect class="cls-1" x="15" y="8" width="1" height="4"/><rect class="cls-8" x="13" y="8" width="1" height="2"/><rect class="cls-4" x="11" y="8" width="1" height="1"/><rect class="cls-7" x="10" y="7" width="1" height="2"/><polygon class="cls-5" points="10 6 9 6 9 7 8 7 8 8 9 8 9 9 10 9 10 6"/><rect class="cls-3" x="8" y="8" width="1" height="1"/><rect class="cls-6" x="6" y="8" width="1" height="1"/><rect class="cls-5" x="5" y="8" width="1" height="1"/><rect class="cls-7" x="4" y="8" width="1" height="1"/><rect class="cls-5" x="3" y="8" width="1" height="1"/><rect class="cls-8" x="2" y="8" width="1" height="1"/><rect class="cls-7" x="12" y="7" width="1" height="2"/><rect class="cls-8" x="11" y="7" width="1" height="1"/><rect class="cls-5" x="6" y="7" width="1" height="1"/><rect class="cls-7" x="5" y="7" width="1" height="1"/><rect class="cls-7" x="3" y="7" width="1" height="1"/><rect class="cls-2" x="2" y="6" width="1" height="2"/><rect class="cls-1" x="1" y="6" width="1" height="2"/><rect class="cls-1" x="14" y="5" width="1" height="3"/><rect class="cls-8" x="12" y="5" width="1" height="2"/><rect class="cls-2" x="11" y="5" width="1" height="2"/><rect class="cls-8" x="10" y="5" width="1" height="2"/><rect class="cls-6" x="8" y="6" width="1" height="1"/><rect class="cls-7" x="6" y="6" width="1" height="1"/><rect class="cls-8" x="3" y="6" width="1" height="1"/><rect class="cls-2" x="13" y="5" width="1" height="3"/><rect class="cls-7" x="9" y="5" width="1" height="1"/><rect class="cls-4" x="8" y="5" width="1" height="1"/><rect class="cls-5" x="7" y="5" width="1" height="2"/><rect class="cls-8" x="6" y="4" width="1" height="2"/><polygon class="cls-2" points="5 6 4 6 4 8 5 8 5 7 6 7 6 4 5 4 5 6"/><polygon class="cls-1" points="4 6 5 6 5 4 3 4 3 5 4 5 4 6"/><rect class="cls-2" x="3" y="5" width="1" height="1"/><rect class="cls-1" x="2" y="5" width="1" height="1"/><rect class="cls-1" x="13" y="4" width="1" height="1"/><rect class="cls-2" x="12" y="4" width="1" height="1"/><rect class="cls-1" x="11" y="4" width="1" height="1"/><rect class="cls-2" x="10" y="4" width="1" height="1"/><rect class="cls-8" x="9" y="4" width="1" height="1"/><rect class="cls-5" x="8" y="4" width="1" height="1"/><rect class="cls-7" x="7" y="3" width="1" height="2"/><rect class="cls-1" x="12" y="3" width="1" height="1"/><rect class="cls-1" x="10" y="3" width="1" height="1"/><rect class="cls-2" x="9" y="3" width="1" height="1"/><rect class="cls-8" x="8" y="3" width="1" height="1"/><rect class="cls-2" x="6" y="2" width="1" height="2"/><rect class="cls-1" x="5" y="2" width="1" height="2"/><rect class="cls-1" x="9" y="2" width="1" height="1"/><rect class="cls-2" x="8" y="2" width="1" height="1"/><rect class="cls-8" x="7" y="2" width="1" height="1"/><rect class="cls-1" x="8" y="1" width="1" height="1"/><rect class="cls-2" x="7" y="1" width="1" height="1"/><rect class="cls-1" x="6" y="1" width="1" height="1"/><rect class="cls-1" x="7" width="1" height="1"/></svg>