<svg id="Layer_1" data-name="Layer 1" xmlns="http://www.w3.org/2000/svg" viewBox="0 0 16 16"><defs><style>.cls-1{fill:#f7feff;}.cls-2{fill:#231e2b;}.cls-3{fill:#998b8c;}.cls-4{fill:#b6b7b8;}.cls-5{fill:#d9dadb;}</style></defs><title>fish</title><rect class="cls-1" x="6" y="14" width="3" height="1"/><rect class="cls-1" x="9" y="13" width="3" height="1"/><polygon class="cls-2" points="7 13 7 12 6 12 6 14 9 14 9 13 7 13"/><rect class="cls-1" x="12" y="12" width="1" height="1"/><rect class="cls-2" x="9" y="12" width="3" height="1"/><rect class="cls-1" x="5" y="12" width="1" height="2"/><rect class="cls-1" x="1" y="12" width="2" height="1"/><rect class="cls-1" x="13" y="11" width="1" height="1"/><rect class="cls-2" x="12" y="11" width="1" height="1"/><polygon class="cls-3" points="9 11 9 6 8 6 8 8 7 8 7 9 8 9 8 11 7 11 7 9 6 9 6 10 5 10 5 11 6 11 6 12 7 12 7 13 9 13 9 12 12 12 12 11 9 11"/><rect class="cls-2" x="5" y="11" width="1" height="1"/><rect class="cls-1" x="3" y="11" width="2" height="1"/><polygon class="cls-2" points="2 11 2 6 3 6 3 5 1 5 1 12 3 12 3 11 2 11"/><rect class="cls-1" x="14" y="10" width="1" height="1"/><rect class="cls-2" x="13" y="10" width="1" height="1"/><rect class="cls-3" x="12" y="10" width="1" height="1"/><rect class="cls-4" x="7" y="9" width="1" height="2"/><rect class="cls-2" x="3" y="10" width="2" height="1"/><rect class="cls-3" x="2" y="10" width="1" height="1"/><rect class="cls-1" y="5" width="1" height="7"/><rect class="cls-3" x="13" y="9" width="1" height="1"/><rect class="cls-4" x="5" y="9" width="1" height="1"/><rect class="cls-3" x="3" y="9" width="2" height="1"/><rect class="cls-4" x="2" y="9" width="1" height="1"/><rect class="cls-2" x="14" y="7" width="1" height="3"/><rect class="cls-4" x="6" y="8" width="1" height="1"/><rect class="cls-3" x="5" y="8" width="1" height="1"/><rect class="cls-4" x="3" y="8" width="2" height="1"/><rect class="cls-3" x="2" y="8" width="1" height="1"/><rect class="cls-1" x="15" y="7" width="1" height="3"/><rect class="cls-5" x="13" y="7" width="1" height="1"/><path class="cls-4" d="M13,7H12V6H9v5h3V10h1V9h1V8H13ZM10,7h1V8H10Z"/><rect class="cls-2" x="10" y="7" width="1" height="1"/><rect class="cls-3" x="6" y="6" width="1" height="2"/><rect class="cls-4" x="5" y="7" width="1" height="1"/><rect class="cls-3" x="4" y="7" width="1" height="1"/><rect class="cls-5" x="3" y="7" width="1" height="1"/><rect class="cls-4" x="2" y="7" width="1" height="1"/><rect class="cls-1" x="14" y="6" width="1" height="1"/><rect class="cls-2" x="13" y="6" width="1" height="1"/><rect class="cls-5" x="12" y="6" width="1" height="1"/><rect class="cls-4" x="7" y="6" width="1" height="2"/><rect class="cls-5" x="5" y="6" width="1" height="1"/><rect class="cls-2" x="3" y="6" width="2" height="1"/><rect class="cls-5" x="2" y="6" width="1" height="1"/><rect class="cls-1" x="13" y="5" width="1" height="1"/><rect class="cls-2" x="12" y="5" width="1" height="1"/><rect class="cls-5" x="10" y="5" width="2" height="1"/><rect class="cls-3" x="9" y="5" width="1" height="1"/><rect class="cls-5" x="8" y="5" width="1" height="1"/><rect class="cls-3" x="7" y="5" width="1" height="1"/><rect class="cls-5" x="6" y="5" width="1" height="1"/><rect class="cls-2" x="5" y="5" width="1" height="1"/><rect class="cls-1" x="3" y="5" width="2" height="1"/><rect class="cls-1" x="12" y="4" width="1" height="1"/><rect class="cls-4" x="7" y="4" width="2" height="1"/><rect class="cls-1" x="5" y="2" width="1" height="3"/><rect class="cls-1" x="1" y="4" width="2" height="1"/><rect class="cls-1" x="10" y="3" width="2" height="1"/><polygon class="cls-2" points="9 5 12 5 12 4 10 4 10 3 9 3 9 5"/><rect class="cls-5" x="7" y="3" width="2" height="1"/><polygon class="cls-2" points="6 5 7 5 7 3 9 3 9 2 6 2 6 5"/><rect class="cls-1" x="9" y="2" width="1" height="1"/><rect class="cls-1" x="6" y="1" width="3" height="1"/></svg>