<svg id="Layer_1" data-name="Layer 1" xmlns="http://www.w3.org/2000/svg" viewBox="0 0 16 16"><defs><style>.cls-1{fill:#f7feff;}.cls-2{fill:#231e2b;}.cls-3{fill:#e2b436;}.cls-4{fill:#892727;}.cls-5{fill:#cf8934;}.cls-6{fill:#9a2d2d;}.cls-7{fill:#cf6b55;}.cls-8{fill:#b0392e;}</style></defs><title>flag</title><rect class="cls-1" x="2" y="15" width="3" height="1"/><polygon class="cls-2" points="5 9 4 9 4 14 3 14 3 3 5 3 5 2 2 2 2 15 5 15 5 9"/><rect class="cls-1" x="1" y="2" width="1" height="13"/><rect class="cls-1" x="8" y="11" width="2" height="1"/><rect class="cls-1" x="10" y="10" width="1" height="1"/><rect class="cls-2" x="8" y="10" width="2" height="1"/><rect class="cls-1" x="7" y="10" width="1" height="1"/><rect class="cls-3" x="3" y="10" width="1" height="4"/><rect class="cls-1" x="11" y="9" width="3" height="1"/><rect class="cls-2" x="10" y="9" width="1" height="1"/><rect class="cls-4" x="8" y="9" width="2" height="1"/><rect class="cls-2" x="7" y="9" width="1" height="1"/><polygon class="cls-1" points="5 9 5 15 6 15 6 10 7 10 7 9 5 9"/><rect class="cls-5" x="3" y="9" width="1" height="1"/><rect class="cls-4" x="10" y="8" width="1" height="1"/><rect class="cls-4" x="7" y="8" width="1" height="1"/><rect class="cls-2" x="5" y="8" width="2" height="1"/><rect class="cls-4" x="4" y="8" width="1" height="1"/><rect class="cls-1" x="14" y="6" width="1" height="3"/><polygon class="cls-6" points="11 7 11 4 10 4 10 5 8 5 8 4 7 4 7 7 5 7 5 4 4 4 4 8 8 8 8 9 10 9 10 8 13 8 13 7 11 7"/><rect class="cls-7" x="3" y="3" width="1" height="6"/><polygon class="cls-2" points="13 8 11 8 11 9 14 9 14 6 13 6 13 8"/><rect class="cls-1" x="13" y="4" width="1" height="2"/><rect class="cls-2" x="12" y="4" width="1" height="2"/><rect class="cls-8" x="8" y="4" width="2" height="1"/><polygon class="cls-8" points="11 4 11 7 13 7 13 6 12 6 12 4 13 4 13 3 10 3 10 4 11 4"/><rect class="cls-2" x="8" y="3" width="2" height="1"/><polygon class="cls-8" points="4 3 4 4 5 4 5 7 7 7 7 4 8 4 8 3 4 3"/><rect class="cls-1" x="14" y="1" width="1" height="3"/><rect class="cls-7" x="11" y="2" width="2" height="1"/><rect class="cls-2" x="10" y="2" width="1" height="1"/><rect class="cls-1" x="8" y="2" width="2" height="1"/><rect class="cls-2" x="7" y="2" width="1" height="1"/><rect class="cls-7" x="5" y="2" width="2" height="1"/><polygon class="cls-2" points="13 2 13 4 14 4 14 1 11 1 11 2 13 2"/><rect class="cls-1" x="10" y="1" width="1" height="1"/><rect class="cls-1" x="7" y="1" width="1" height="1"/><rect class="cls-2" x="5" y="1" width="2" height="1"/><rect class="cls-1" x="2" y="1" width="3" height="1"/><rect class="cls-1" x="11" width="3" height="1"/><rect class="cls-1" x="5" width="2" height="1"/></svg>