<svg id="Layer_1" data-name="Layer 1" xmlns="http://www.w3.org/2000/svg" viewBox="0 0 16 16"><defs><style>.cls-1{fill:#f7feff;}.cls-2{fill:#231e2b;}.cls-3{fill:#b0392e;}.cls-4{fill:#892727;}.cls-5{fill:#e2b436;}.cls-6{fill:#cf8934;}</style></defs><title>french_fries</title><rect class="cls-1" x="3" y="15" width="10" height="1"/><rect class="cls-1" x="13" y="14" width="1" height="1"/><rect class="cls-2" x="3" y="14" width="10" height="1"/><rect class="cls-1" x="2" y="14" width="1" height="1"/><rect class="cls-2" x="2" y="4" width="1" height="10"/><rect class="cls-2" x="13" y="6" width="1" height="8"/><rect class="cls-1" x="1" y="4" width="1" height="10"/><rect class="cls-1" x="4" y="10" width="1" height="3"/><path class="cls-3" d="M12,9H4V8H3v6H13V8H12ZM4,13V10H5v3Z"/><rect class="cls-4" x="4" y="8" width="8" height="1"/><rect class="cls-4" x="12" y="7" width="1" height="1"/><rect class="cls-5" x="10" y="6" width="1" height="2"/><rect class="cls-6" x="9" y="6" width="1" height="2"/><rect class="cls-6" x="7" y="5" width="1" height="3"/><rect class="cls-6" x="5" y="6" width="1" height="2"/><rect class="cls-5" x="4" y="6" width="1" height="2"/><rect class="cls-4" x="3" y="7" width="1" height="1"/><rect class="cls-1" x="14" y="6" width="1" height="8"/><rect class="cls-5" x="12" y="6" width="1" height="1"/><rect class="cls-6" x="11" y="6" width="1" height="2"/><rect class="cls-6" x="3" y="6" width="1" height="1"/><rect class="cls-6" x="10" y="3" width="1" height="3"/><rect class="cls-6" x="4" y="4" width="1" height="2"/><rect class="cls-5" x="3" y="4" width="1" height="2"/><rect class="cls-2" x="14" y="3" width="1" height="3"/><rect class="cls-6" x="12" y="4" width="1" height="2"/><rect class="cls-6" x="8" y="3" width="1" height="2"/><rect class="cls-5" x="7" y="3" width="1" height="2"/><rect class="cls-1" x="15" y="3" width="1" height="3"/><rect class="cls-5" x="13" y="3" width="1" height="3"/><rect class="cls-5" x="11" y="2" width="1" height="4"/><polygon class="cls-5" points="9 5 8 5 8 8 9 8 9 6 10 6 10 2 9 2 9 5"/><rect class="cls-6" x="6" y="3" width="1" height="2"/><polygon class="cls-5" points="4 3 4 4 5 4 5 6 6 6 6 8 7 8 7 5 6 5 6 2 5 2 5 3 4 3"/><rect class="cls-6" x="3" y="3" width="1" height="1"/><rect class="cls-5" x="2" y="3" width="1" height="1"/><rect class="cls-2" x="1" y="2" width="1" height="2"/><rect class="cls-1" x="14" y="2" width="1" height="1"/><polygon class="cls-2" points="12 2 12 4 13 4 13 3 14 3 14 2 12 2"/><rect class="cls-2" x="10" y="2" width="1" height="1"/><rect class="cls-2" x="6" y="2" width="3" height="1"/><rect class="cls-2" x="4" y="2" width="1" height="1"/><rect class="cls-5" x="3" y="2" width="1" height="1"/><rect class="cls-6" x="2" y="2" width="1" height="1"/><rect class="cls-1" y="2" width="1" height="2"/><rect class="cls-1" x="12" y="1" width="2" height="1"/><rect class="cls-2" x="11" y="1" width="1" height="1"/><rect class="cls-1" x="10" y="1" width="1" height="1"/><rect class="cls-2" x="9" y="1" width="1" height="1"/><rect class="cls-1" x="6" y="1" width="3" height="1"/><rect class="cls-2" x="5" y="1" width="1" height="1"/><rect class="cls-1" x="4" y="1" width="1" height="1"/><rect class="cls-2" x="2" y="1" width="2" height="1"/><rect class="cls-1" x="1" y="1" width="1" height="1"/><rect class="cls-1" x="11" width="1" height="1"/><rect class="cls-1" x="9" width="1" height="1"/><rect class="cls-1" x="5" width="1" height="1"/><rect class="cls-1" x="2" width="2" height="1"/></svg>