<svg id="Layer_1" data-name="Layer 1" xmlns="http://www.w3.org/2000/svg" viewBox="0 0 16 16"><defs><style>.cls-1{fill:#f7feff;}.cls-2{fill:#231e2b;}.cls-3{fill:#356e69;}.cls-4{fill:#4fab59;}.cls-5{fill:#acc756;}</style></defs><title>green_sprout</title><rect class="cls-1" x="7" y="15" width="1" height="1"/><rect class="cls-1" x="8" y="14" width="1" height="1"/><rect class="cls-2" x="7" y="14" width="1" height="1"/><rect class="cls-1" x="6" y="14" width="1" height="1"/><rect class="cls-2" x="6" y="11" width="1" height="3"/><rect class="cls-2" x="8" y="11" width="1" height="3"/><rect class="cls-3" x="7" y="12" width="1" height="2"/><rect class="cls-1" x="5" y="11" width="1" height="3"/><rect class="cls-1" x="9" y="11" width="1" height="3"/><rect class="cls-4" x="7" y="11" width="1" height="1"/><rect class="cls-3" x="8" y="10" width="1" height="1"/><rect class="cls-3" x="6" y="10" width="1" height="1"/><polygon class="cls-2" points="6 7 3 7 3 8 5 8 5 11 6 11 6 7"/><rect class="cls-2" x="9" y="7" width="1" height="4"/><rect class="cls-4" x="6" y="8" width="1" height="2"/><polygon class="cls-1" points="5 8 3 8 3 9 4 9 4 11 5 11 5 8"/><rect class="cls-1" x="2" y="9" width="1" height="1"/><rect class="cls-4" x="8" y="8" width="1" height="2"/><rect class="cls-2" x="2" y="8" width="1" height="1"/><rect class="cls-1" x="1" y="8" width="1" height="1"/><rect class="cls-1" x="13" y="7" width="1" height="1"/><rect class="cls-1" x="10" y="7" width="1" height="4"/><rect class="cls-5" x="8" y="7" width="1" height="1"/><rect class="cls-3" x="6" y="7" width="1" height="1"/><rect class="cls-4" x="2" y="7" width="1" height="1"/><rect class="cls-2" x="1" y="5" width="1" height="3"/><rect class="cls-1" x="14" y="6" width="1" height="1"/><rect class="cls-2" x="13" y="6" width="1" height="1"/><rect class="cls-1" x="11" y="6" width="2" height="1"/><rect class="cls-2" x="10" y="6" width="1" height="1"/><rect class="cls-3" x="9" y="6" width="1" height="1"/><rect class="cls-4" x="6" y="6" width="1" height="1"/><rect class="cls-3" x="4" y="6" width="2" height="1"/><rect class="cls-4" x="3" y="6" width="1" height="1"/><rect class="cls-1" y="5" width="1" height="3"/><rect class="cls-4" x="13" y="5" width="1" height="1"/><rect class="cls-2" x="11" y="5" width="2" height="1"/><rect class="cls-3" x="10" y="5" width="1" height="1"/><rect class="cls-5" x="6" y="5" width="1" height="1"/><rect class="cls-4" x="4" y="5" width="2" height="1"/><polygon class="cls-5" points="4 6 4 5 6 5 6 4 3 4 3 5 2 5 2 7 3 7 3 6 4 6"/><rect class="cls-2" x="14" y="3" width="1" height="3"/><polygon class="cls-4" points="13 5 13 4 11 4 11 3 10 3 10 4 9 4 9 6 10 6 10 5 13 5"/><polygon class="cls-2" points="8 5 7 5 7 11 8 11 8 7 9 7 9 3 8 3 8 5"/><rect class="cls-2" x="6" y="4" width="1" height="1"/><rect class="cls-2" x="2" y="4" width="1" height="1"/><rect class="cls-1" x="1" y="4" width="1" height="1"/><rect class="cls-1" x="15" y="3" width="1" height="3"/><rect class="cls-5" x="9" y="3" width="1" height="1"/><polygon class="cls-1" points="7 4 7 5 8 5 8 3 6 3 6 4 7 4"/><rect class="cls-2" x="3" y="3" width="3" height="1"/><rect class="cls-1" x="2" y="3" width="1" height="1"/><rect class="cls-1" x="14" y="2" width="1" height="1"/><rect class="cls-2" x="13" y="2" width="1" height="1"/><polygon class="cls-5" points="13 2 10 2 10 3 11 3 11 4 13 4 13 5 14 5 14 3 13 3 13 2"/><rect class="cls-2" x="9" y="2" width="1" height="1"/><rect class="cls-1" x="8" y="2" width="1" height="1"/><rect class="cls-1" x="3" y="2" width="3" height="1"/><rect class="cls-1" x="13" y="1" width="1" height="1"/><rect class="cls-2" x="10" y="1" width="3" height="1"/><rect class="cls-1" x="9" y="1" width="1" height="1"/><rect class="cls-1" x="10" width="3" height="1"/></svg>