<svg id="Layer_1" data-name="Layer 1" xmlns="http://www.w3.org/2000/svg" viewBox="0 0 16 16"><defs><style>.cls-1{fill:#f7feff;}.cls-2{fill:#231e2b;}.cls-3{fill:#cf8934;}.cls-4{fill:#f5f38e;}.cls-5{fill:#e2b436;}</style></defs><title>honey</title><rect class="cls-1" x="9" y="14" width="3" height="1"/><rect class="cls-1" x="12" y="13" width="1" height="1"/><rect class="cls-2" x="9" y="13" width="3" height="1"/><rect class="cls-1" x="8" y="13" width="1" height="1"/><rect class="cls-1" x="13" y="12" width="1" height="1"/><rect class="cls-2" x="12" y="12" width="1" height="1"/><rect class="cls-3" x="9" y="12" width="3" height="1"/><rect class="cls-2" x="8" y="12" width="1" height="1"/><rect class="cls-1" x="7" y="12" width="1" height="1"/><rect class="cls-1" x="14" y="11" width="1" height="1"/><rect class="cls-2" x="13" y="11" width="1" height="1"/><rect class="cls-3" x="8" y="11" width="1" height="1"/><rect class="cls-2" x="7" y="11" width="1" height="1"/><rect class="cls-1" x="4" y="11" width="3" height="1"/><rect class="cls-1" x="15" y="10" width="1" height="1"/><rect class="cls-2" x="14" y="10" width="1" height="1"/><rect class="cls-4" x="13" y="10" width="1" height="1"/><rect class="cls-3" x="7" y="10" width="1" height="1"/><rect class="cls-2" x="4" y="10" width="3" height="1"/><rect class="cls-1" x="3" y="10" width="1" height="1"/><rect class="cls-1" x="14" y="9" width="1" height="1"/><rect class="cls-2" x="13" y="9" width="1" height="1"/><rect class="cls-4" x="12" y="9" width="1" height="1"/><polygon class="cls-5" points="8 9 8 11 9 11 9 12 13 12 13 10 12 10 12 9 8 9"/><rect class="cls-2" x="7" y="9" width="1" height="1"/><rect class="cls-3" x="4" y="9" width="3" height="1"/><rect class="cls-2" x="3" y="9" width="1" height="1"/><rect class="cls-1" x="2" y="9" width="1" height="1"/><rect class="cls-1" x="13" y="8" width="1" height="1"/><rect class="cls-2" x="12" y="8" width="1" height="1"/><rect class="cls-4" x="9" y="8" width="3" height="1"/><rect class="cls-2" x="8" y="8" width="1" height="1"/><polygon class="cls-5" points="8 9 8 7 7 7 7 6 3 6 3 7 2 7 2 8 4 8 4 9 8 9"/><rect class="cls-3" x="3" y="8" width="1" height="1"/><rect class="cls-2" x="2" y="8" width="1" height="1"/><rect class="cls-1" x="1" y="8" width="1" height="1"/><rect class="cls-1" x="12" y="7" width="1" height="1"/><rect class="cls-2" x="9" y="7" width="3" height="1"/><rect class="cls-4" x="8" y="7" width="1" height="1"/><rect class="cls-2" x="1" y="7" width="1" height="1"/><rect class="cls-1" y="7" width="1" height="1"/><rect class="cls-1" x="13" y="6" width="1" height="1"/><rect class="cls-2" x="12" y="6" width="1" height="1"/><rect class="cls-3" x="9" y="6" width="3" height="1"/><rect class="cls-2" x="8" y="6" width="1" height="1"/><rect class="cls-4" x="7" y="6" width="1" height="1"/><rect class="cls-2" x="2" y="6" width="1" height="1"/><rect class="cls-1" x="1" y="6" width="1" height="1"/><rect class="cls-1" x="14" y="5" width="1" height="1"/><rect class="cls-2" x="13" y="5" width="1" height="1"/><rect class="cls-3" x="8" y="5" width="1" height="1"/><rect class="cls-2" x="7" y="5" width="1" height="1"/><rect class="cls-4" x="4" y="5" width="3" height="1"/><rect class="cls-2" x="3" y="5" width="1" height="1"/><rect class="cls-1" x="2" y="5" width="1" height="1"/><rect class="cls-1" x="15" y="4" width="1" height="1"/><rect class="cls-2" x="14" y="4" width="1" height="1"/><rect class="cls-4" x="13" y="4" width="1" height="1"/><polygon class="cls-5" points="12 4 12 3 8 3 8 4 7 4 7 5 9 5 9 6 13 6 13 4 12 4"/><rect class="cls-2" x="4" y="4" width="3" height="1"/><rect class="cls-1" x="3" y="4" width="1" height="1"/><rect class="cls-1" x="14" y="3" width="1" height="1"/><rect class="cls-2" x="13" y="3" width="1" height="1"/><rect class="cls-4" x="12" y="3" width="1" height="1"/><rect class="cls-2" x="7" y="3" width="1" height="1"/><rect class="cls-1" x="4" y="3" width="3" height="1"/><rect class="cls-1" x="13" y="2" width="1" height="1"/><rect class="cls-2" x="12" y="2" width="1" height="1"/><rect class="cls-4" x="9" y="2" width="3" height="1"/><rect class="cls-2" x="8" y="2" width="1" height="1"/><rect class="cls-1" x="7" y="2" width="1" height="1"/><rect class="cls-1" x="12" y="1" width="1" height="1"/><rect class="cls-2" x="9" y="1" width="3" height="1"/><rect class="cls-1" x="8" y="1" width="1" height="1"/><rect class="cls-1" x="9" width="3" height="1"/></svg>