<svg id="Layer_1" data-name="Layer 1" xmlns="http://www.w3.org/2000/svg" viewBox="0 0 16 16"><defs><style>.cls-1{fill:#f7feff;}.cls-2{fill:#231e2b;}.cls-3{fill:#e2b436;}.cls-4{fill:#cf8934;}.cls-5{fill:#f5f38e;}.cls-6{fill:#4fab59;}.cls-7{fill:#b0392e;}.cls-8{fill:#cf6b55;}.cls-9{fill:#acc756;}</style></defs><title>ice_cream</title><rect class="cls-1" x="7" y="15" width="2" height="1"/><rect class="cls-1" x="9" y="14" width="1" height="1"/><rect class="cls-2" x="7" y="14" width="2" height="1"/><rect class="cls-1" x="6" y="14" width="1" height="1"/><rect class="cls-3" x="8" y="13" width="1" height="1"/><rect class="cls-2" x="6" y="12" width="1" height="2"/><rect class="cls-1" x="10" y="12" width="1" height="2"/><rect class="cls-2" x="9" y="12" width="1" height="2"/><polygon class="cls-4" points="7 12 7 14 8 14 8 13 9 13 9 12 7 12"/><rect class="cls-1" x="5" y="12" width="1" height="2"/><rect class="cls-4" x="9" y="11" width="1" height="1"/><rect class="cls-3" x="7" y="11" width="2" height="1"/><rect class="cls-2" x="5" y="10" width="1" height="2"/><rect class="cls-1" x="11" y="10" width="1" height="2"/><rect class="cls-2" x="10" y="10" width="1" height="2"/><polygon class="cls-4" points="9 11 9 10 6 10 6 12 7 12 7 11 9 11"/><rect class="cls-1" x="4" y="10" width="1" height="2"/><polygon class="cls-3" points="6 9 6 10 9 10 9 11 10 11 10 10 11 10 11 9 6 9"/><rect class="cls-2" x="4" y="7" width="1" height="3"/><rect class="cls-1" x="12" y="8" width="1" height="2"/><rect class="cls-2" x="11" y="8" width="1" height="2"/><polygon class="cls-4" points="5 8 5 10 6 10 6 9 11 9 11 8 5 8"/><rect class="cls-1" x="3" y="7" width="1" height="3"/><rect class="cls-5" x="5" y="7" width="7" height="1"/><rect class="cls-2" x="12" y="5" width="1" height="3"/><polygon class="cls-6" points="8 7 8 6 7 6 7 5 4 5 4 7 8 7"/><rect class="cls-2" x="3" y="5" width="1" height="2"/><rect class="cls-1" x="13" y="5" width="1" height="3"/><polygon class="cls-7" points="9 5 9 6 8 6 8 7 12 7 12 5 9 5"/><rect class="cls-8" x="8" y="5" width="1" height="1"/><rect class="cls-9" x="7" y="5" width="1" height="1"/><rect class="cls-1" x="2" y="5" width="1" height="2"/><rect class="cls-1" x="12" y="4" width="1" height="1"/><rect class="cls-2" x="11" y="4" width="1" height="1"/><rect class="cls-8" x="9" y="4" width="2" height="1"/><polygon class="cls-1" points="7 5 9 5 9 4 10 4 10 3 9 3 9 2 7 2 7 3 6 3 6 4 7 4 7 5"/><rect class="cls-9" x="5" y="4" width="2" height="1"/><rect class="cls-2" x="4" y="4" width="1" height="1"/><rect class="cls-1" x="3" y="4" width="1" height="1"/><rect class="cls-1" x="11" y="3" width="1" height="1"/><rect class="cls-2" x="10" y="3" width="1" height="1"/><rect class="cls-2" x="5" y="3" width="1" height="1"/><rect class="cls-1" x="4" y="3" width="1" height="1"/><rect class="cls-1" x="10" y="2" width="1" height="1"/><rect class="cls-2" x="9" y="2" width="1" height="1"/><rect class="cls-2" x="6" y="2" width="1" height="1"/><rect class="cls-1" x="5" y="2" width="1" height="1"/><rect class="cls-1" x="9" y="1" width="1" height="1"/><rect class="cls-2" x="7" y="1" width="2" height="1"/><rect class="cls-1" x="6" y="1" width="1" height="1"/><rect class="cls-1" x="7" width="2" height="1"/></svg>