<svg id="Layer_1" data-name="Layer 1" xmlns="http://www.w3.org/2000/svg" viewBox="0 0 16 16"><defs><style>.cls-1{fill:#f7feff;}.cls-2{fill:#231e2b;}.cls-3{fill:#cf8934;}.cls-4{fill:#f5f38e;}.cls-5{fill:#e2b436;}</style></defs><title>key</title><rect class="cls-1" x="7" y="15" width="2" height="1"/><rect class="cls-1" x="9" y="14" width="2" height="1"/><rect class="cls-2" x="7" y="14" width="2" height="1"/><rect class="cls-1" x="6" y="14" width="1" height="1"/><rect class="cls-1" x="11" y="13" width="1" height="1"/><rect class="cls-2" x="9" y="13" width="2" height="1"/><rect class="cls-3" x="8" y="13" width="1" height="1"/><polygon class="cls-2" points="7 7 4 7 4 8 6 8 6 14 7 14 7 7"/><rect class="cls-1" x="12" y="12" width="1" height="1"/><rect class="cls-2" x="11" y="12" width="1" height="1"/><rect class="cls-4" x="10" y="12" width="1" height="1"/><polygon class="cls-1" points="6 8 4 8 4 9 5 9 5 14 6 14 6 8"/><rect class="cls-1" x="11" y="11" width="1" height="1"/><rect class="cls-2" x="10" y="11" width="1" height="1"/><rect class="cls-3" x="9" y="11" width="1" height="1"/><rect class="cls-1" x="12" y="10" width="1" height="1"/><rect class="cls-2" x="11" y="10" width="1" height="1"/><rect class="cls-4" x="9" y="10" width="2" height="1"/><polygon class="cls-1" points="10 8 10 9 11 9 11 10 12 10 12 8 10 8"/><rect class="cls-4" x="8" y="8" width="1" height="2"/><rect class="cls-1" x="12" y="7" width="1" height="1"/><polygon class="cls-2" points="9 7 9 10 11 10 11 9 10 9 10 8 12 8 12 7 9 7"/><rect class="cls-1" x="3" y="7" width="1" height="1"/><rect class="cls-1" x="13" y="6" width="1" height="1"/><rect class="cls-2" x="12" y="6" width="1" height="1"/><rect class="cls-3" x="9" y="6" width="3" height="1"/><rect class="cls-3" x="4" y="6" width="3" height="1"/><rect class="cls-2" x="3" y="6" width="1" height="1"/><rect class="cls-1" x="2" y="6" width="1" height="1"/><rect class="cls-3" x="12" y="5" width="1" height="1"/><rect class="cls-4" x="5" y="5" width="3" height="1"/><rect class="cls-3" x="3" y="5" width="1" height="1"/><rect class="cls-2" x="2" y="3" width="1" height="3"/><rect class="cls-1" x="14" y="3" width="1" height="3"/><rect class="cls-2" x="5" y="4" width="6" height="1"/><rect class="cls-1" x="1" y="3" width="1" height="3"/><rect class="cls-2" x="13" y="3" width="1" height="3"/><rect class="cls-4" x="12" y="3" width="1" height="1"/><polygon class="cls-5" points="11 5 8 5 8 6 7 6 7 14 8 14 8 13 10 13 10 12 9 12 9 10 8 10 8 8 9 8 9 6 12 6 12 5 13 5 13 4 12 4 12 3 11 3 11 5"/><rect class="cls-3" x="5" y="3" width="6" height="1"/><polygon class="cls-5" points="3 3 3 5 4 5 4 6 5 6 5 3 9 3 9 2 4 2 4 3 3 3"/><rect class="cls-1" x="13" y="2" width="1" height="1"/><rect class="cls-2" x="12" y="2" width="1" height="1"/><rect class="cls-4" x="9" y="2" width="3" height="1"/><rect class="cls-2" x="3" y="2" width="1" height="1"/><rect class="cls-1" x="2" y="2" width="1" height="1"/><rect class="cls-1" x="12" y="1" width="1" height="1"/><rect class="cls-2" x="4" y="1" width="8" height="1"/><rect class="cls-1" x="3" y="1" width="1" height="1"/><rect class="cls-1" x="4" width="8" height="1"/></svg>