<svg id="Layer_1" data-name="Layer 1" xmlns="http://www.w3.org/2000/svg" viewBox="0 0 16 16"><defs><style>.cls-1{fill:#f7feff;}.cls-2{fill:#231e2b;}.cls-3{fill:#47414d;}.cls-4{fill:#cf8934;}.cls-5{fill:#892727;}.cls-6{fill:#f5f38e;}.cls-7{fill:#e2b436;}.cls-8{fill:#b0392e;}.cls-9{fill:#cf6b55;}</style></defs><title>kings_hat</title><rect class="cls-1" x="3" y="15" width="10" height="1"/><polygon class="cls-2" points="13 11 12 11 12 14 4 14 4 11 3 11 3 15 13 15 13 11"/><rect class="cls-3" x="7" y="13" width="1" height="1"/><rect class="cls-1" x="2" y="11" width="1" height="4"/><polygon class="cls-1" points="11 13 10 13 10 12 6 12 6 13 5 13 5 12 4 12 4 14 7 14 7 13 8 13 8 14 12 14 12 12 11 12 11 13"/><rect class="cls-3" x="10" y="12" width="1" height="1"/><rect class="cls-3" x="5" y="12" width="1" height="1"/><rect class="cls-1" x="13" y="11" width="1" height="4"/><rect class="cls-4" x="9" y="11" width="3" height="1"/><rect class="cls-4" x="4" y="11" width="3" height="1"/><polygon class="cls-5" points="6 11 6 10 5 10 5 8 4 8 4 9 3 9 3 11 6 11"/><rect class="cls-2" x="2" y="9" width="1" height="2"/><rect class="cls-1" x="14" y="9" width="1" height="2"/><rect class="cls-2" x="13" y="9" width="1" height="2"/><rect class="cls-1" x="1" y="9" width="1" height="2"/><rect class="cls-5" x="13" y="8" width="1" height="1"/><polygon class="cls-5" points="12 8 11 8 11 10 10 10 10 11 13 11 13 9 12 9 12 8"/><rect class="cls-6" x="10" y="8" width="1" height="1"/><polygon class="cls-7" points="10 8 8 8 8 7 6 7 6 8 5 8 5 10 6 10 6 11 7 11 7 12 9 12 9 11 10 11 10 10 11 10 11 9 10 9 10 8"/><polygon class="cls-8" points="4 8 5 8 5 7 6 7 6 6 7 6 7 5 6 5 6 4 5 4 5 5 3 5 3 6 2 6 2 8 3 8 3 9 4 9 4 8"/><rect class="cls-5" x="2" y="8" width="1" height="1"/><rect class="cls-2" x="1" y="5" width="1" height="4"/><rect class="cls-2" x="14" y="5" width="1" height="4"/><rect class="cls-5" x="10" y="7" width="1" height="1"/><rect class="cls-6" x="8" y="7" width="2" height="1"/><rect class="cls-5" x="5" y="7" width="1" height="1"/><rect class="cls-1" y="5" width="1" height="4"/><rect class="cls-5" x="9" y="6" width="1" height="1"/><rect class="cls-5" x="6" y="6" width="1" height="1"/><rect class="cls-1" x="15" y="5" width="1" height="4"/><rect class="cls-9" x="13" y="5" width="1" height="1"/><polygon class="cls-8" points="13 5 11 5 11 4 10 4 10 5 9 5 9 6 10 6 10 7 11 7 11 8 12 8 12 9 13 9 13 8 14 8 14 6 13 6 13 5"/><rect class="cls-9" x="2" y="5" width="1" height="1"/><rect class="cls-1" x="14" y="4" width="1" height="1"/><rect class="cls-2" x="13" y="4" width="1" height="1"/><rect class="cls-9" x="11" y="4" width="2" height="1"/><rect class="cls-5" x="9" y="4" width="1" height="1"/><rect class="cls-4" x="7" y="4" width="2" height="3"/><rect class="cls-5" x="6" y="4" width="1" height="1"/><rect class="cls-9" x="3" y="4" width="2" height="1"/><rect class="cls-2" x="2" y="4" width="1" height="1"/><rect class="cls-1" x="1" y="4" width="1" height="1"/><rect class="cls-1" x="13" y="3" width="1" height="1"/><rect class="cls-2" x="10" y="3" width="3" height="1"/><rect class="cls-6" x="9" y="3" width="1" height="1"/><polygon class="cls-7" points="9 4 9 3 8 3 8 2 7 2 7 3 6 3 6 4 9 4"/><rect class="cls-2" x="3" y="3" width="3" height="1"/><rect class="cls-1" x="2" y="3" width="1" height="1"/><rect class="cls-1" x="10" y="2" width="3" height="1"/><rect class="cls-2" x="9" y="2" width="1" height="1"/><rect class="cls-6" x="8" y="2" width="1" height="1"/><rect class="cls-2" x="6" y="2" width="1" height="1"/><rect class="cls-1" x="3" y="2" width="3" height="1"/><rect class="cls-1" x="9" y="1" width="1" height="1"/><rect class="cls-2" x="7" y="1" width="2" height="1"/><rect class="cls-1" x="6" y="1" width="1" height="1"/><rect class="cls-1" x="7" width="2" height="1"/></svg>