<svg id="Layer_1" data-name="Layer 1" xmlns="http://www.w3.org/2000/svg" viewBox="0 0 16 16"><defs><style>.cls-1{fill:#f7feff;}.cls-2{fill:#231e2b;}.cls-3{fill:#cf8934;}.cls-4{fill:#e2b436;}.cls-5{fill:#f5f38e;}.cls-6{fill:#998b8c;}.cls-7{fill:#b6b7b8;}</style></defs><title>lock</title><rect class="cls-1" x="3" y="15" width="10" height="1"/><rect class="cls-1" x="13" y="14" width="1" height="1"/><rect class="cls-2" x="3" y="14" width="10" height="1"/><rect class="cls-1" x="2" y="14" width="1" height="1"/><rect class="cls-1" x="14" y="13" width="1" height="1"/><rect class="cls-2" x="13" y="13" width="1" height="1"/><rect class="cls-2" x="2" y="13" width="1" height="1"/><rect class="cls-1" x="1" y="13" width="1" height="1"/><polygon class="cls-2" points="2 9 3 9 3 3 2 3 2 8 1 8 1 13 2 13 2 9"/><polygon class="cls-2" points="15 8 14 8 14 3 13 3 13 9 14 9 14 13 15 13 15 8"/><polygon class="cls-3" points="12 11 12 12 3 12 3 11 2 11 2 13 3 13 3 14 13 14 13 13 14 13 14 11 12 11"/><rect class="cls-1" y="8" width="1" height="5"/><polygon class="cls-4" points="2 10 2 11 3 11 3 12 12 12 12 11 14 11 14 10 2 10"/><rect class="cls-5" x="2" y="9" width="12" height="1"/><rect class="cls-1" x="15" y="8" width="1" height="5"/><rect class="cls-6" x="12" y="8" width="1" height="1"/><rect class="cls-6" x="3" y="8" width="1" height="1"/><rect class="cls-7" x="3" y="3" width="1" height="5"/><rect class="cls-1" x="1" y="3" width="1" height="5"/><rect class="cls-1" x="5" y="4" width="6" height="4"/><rect class="cls-1" x="14" y="3" width="1" height="5"/><polygon class="cls-2" points="11 8 5 8 5 4 4 4 4 9 12 9 12 4 11 4 11 8"/><rect class="cls-7" x="12" y="3" width="1" height="5"/><rect class="cls-6" x="11" y="3" width="1" height="1"/><rect class="cls-2" x="5" y="3" width="6" height="1"/><rect class="cls-6" x="4" y="3" width="1" height="1"/><rect class="cls-1" x="13" y="2" width="1" height="1"/><rect class="cls-2" x="12" y="2" width="1" height="1"/><rect class="cls-7" x="4" y="2" width="8" height="1"/><rect class="cls-2" x="3" y="2" width="1" height="1"/><rect class="cls-1" x="2" y="2" width="1" height="1"/><rect class="cls-1" x="12" y="1" width="1" height="1"/><rect class="cls-2" x="4" y="1" width="8" height="1"/><rect class="cls-1" x="3" y="1" width="1" height="1"/><rect class="cls-1" x="4" width="8" height="1"/></svg>