<svg id="Layer_1" data-name="Layer 1" xmlns="http://www.w3.org/2000/svg" viewBox="0 0 16 16"><defs><style>.cls-1{fill:#f7feff;}.cls-2{fill:#231e2b;}.cls-3{fill:#522b29;}.cls-4{fill:#784028;}.cls-5{fill:#cf8934;}.cls-6{fill:#e2b436;}.cls-7{fill:#b0392e;}.cls-8{fill:#cf6b55;}</style></defs><title>muffin</title><rect class="cls-1" x="3" y="15" width="10" height="1"/><polygon class="cls-2" points="13 12 12 12 12 14 4 14 4 12 3 12 3 15 13 15 13 12"/><rect class="cls-3" x="11" y="13" width="1" height="1"/><rect class="cls-4" x="10" y="13" width="1" height="1"/><rect class="cls-3" x="9" y="13" width="1" height="1"/><rect class="cls-4" x="8" y="13" width="1" height="1"/><rect class="cls-3" x="7" y="13" width="1" height="1"/><rect class="cls-4" x="6" y="13" width="1" height="1"/><rect class="cls-3" x="5" y="13" width="1" height="1"/><rect class="cls-4" x="4" y="13" width="1" height="1"/><rect class="cls-1" x="2" y="12" width="1" height="3"/><rect class="cls-1" x="13" y="12" width="1" height="3"/><rect class="cls-4" x="11" y="12" width="1" height="1"/><rect class="cls-4" x="9" y="12" width="1" height="1"/><rect class="cls-4" x="7" y="12" width="1" height="1"/><rect class="cls-4" x="5" y="12" width="1" height="1"/><rect class="cls-4" x="12" y="11" width="1" height="1"/><rect class="cls-4" x="3" y="11" width="1" height="1"/><rect class="cls-2" x="2" y="9" width="1" height="3"/><rect class="cls-2" x="13" y="9" width="1" height="3"/><rect class="cls-1" x="1" y="9" width="1" height="3"/><rect class="cls-1" x="14" y="9" width="1" height="3"/><polygon class="cls-3" points="12 10 4 10 4 9 3 9 3 11 4 11 4 13 5 13 5 12 6 12 6 13 7 13 7 12 8 12 8 13 9 13 9 12 10 12 10 13 11 13 11 12 12 12 12 11 13 11 13 9 12 9 12 10"/><rect class="cls-2" x="1" y="5" width="1" height="4"/><rect class="cls-2" x="14" y="5" width="1" height="4"/><polygon class="cls-5" points="13 8 11 8 11 9 9 9 9 8 8 8 8 9 5 9 5 8 3 8 3 7 2 7 2 9 4 9 4 10 12 10 12 9 14 9 14 7 13 7 13 8"/><rect class="cls-1" y="5" width="1" height="4"/><rect class="cls-5" x="10" y="6" width="1" height="1"/><rect class="cls-5" x="6" y="6" width="1" height="1"/><rect class="cls-5" x="3" y="6" width="1" height="1"/><rect class="cls-6" x="2" y="6" width="1" height="1"/><rect class="cls-1" x="15" y="5" width="1" height="4"/><path class="cls-6" d="M13,6H12V5H11V4H10V5H9V6H7V7H6V6H7V5H6V4H5V5H4V4H3V6H4V7H3V8H5V9H8V8H9V9h2V8h2V7h1V5H13ZM10,7V6h1V7Z"/><rect class="cls-5" x="12" y="5" width="1" height="1"/><rect class="cls-5" x="7" y="5" width="2" height="1"/><rect class="cls-5" x="2" y="5" width="1" height="1"/><rect class="cls-1" x="14" y="4" width="1" height="1"/><rect class="cls-2" x="13" y="4" width="1" height="1"/><rect class="cls-6" x="12" y="4" width="1" height="1"/><rect class="cls-5" x="11" y="4" width="1" height="1"/><rect class="cls-5" x="9" y="4" width="1" height="1"/><rect class="cls-5" x="6" y="4" width="1" height="1"/><rect class="cls-5" x="4" y="4" width="1" height="1"/><rect class="cls-2" x="2" y="4" width="1" height="1"/><rect class="cls-1" x="1" y="4" width="1" height="1"/><rect class="cls-1" x="13" y="3" width="1" height="1"/><rect class="cls-2" x="12" y="3" width="1" height="1"/><rect class="cls-6" x="11" y="3" width="1" height="1"/><rect class="cls-5" x="10" y="3" width="1" height="1"/><polygon class="cls-7" points="7 4 7 5 9 5 9 4 10 4 10 3 8 3 8 2 7 2 7 3 6 3 6 4 7 4"/><rect class="cls-5" x="5" y="3" width="1" height="1"/><rect class="cls-6" x="4" y="3" width="1" height="1"/><rect class="cls-2" x="3" y="3" width="1" height="1"/><rect class="cls-1" x="2" y="3" width="1" height="1"/><rect class="cls-1" x="12" y="2" width="1" height="1"/><rect class="cls-2" x="9" y="2" width="3" height="1"/><rect class="cls-8" x="8" y="2" width="1" height="1"/><rect class="cls-2" x="4" y="2" width="3" height="1"/><rect class="cls-1" x="3" y="2" width="1" height="1"/><rect class="cls-1" x="9" y="1" width="3" height="1"/><rect class="cls-2" x="7" y="1" width="2" height="1"/><rect class="cls-1" x="4" y="1" width="3" height="1"/><rect class="cls-1" x="7" width="2" height="1"/></svg>