<svg id="Layer_1" data-name="Layer 1" xmlns="http://www.w3.org/2000/svg" viewBox="0 0 16 16"><defs><style>.cls-1{fill:#f7feff;}.cls-2{fill:#231e2b;}.cls-3{fill:#b0392e;}.cls-4{fill:#e2b436;}.cls-5{fill:#f5f38e;}.cls-6{fill:#e8be9b;}</style></defs><title>noodle</title><rect class="cls-1" x="3" y="15" width="7" height="1"/><rect class="cls-1" x="10" y="14" width="1" height="1"/><rect class="cls-2" x="3" y="14" width="7" height="1"/><rect class="cls-1" x="2" y="14" width="1" height="1"/><rect class="cls-1" x="11" y="13" width="1" height="1"/><rect class="cls-2" x="10" y="13" width="1" height="1"/><rect class="cls-2" x="2" y="13" width="1" height="1"/><rect class="cls-1" x="1" y="13" width="1" height="1"/><polygon class="cls-2" points="2 8 5 8 5 4 4 4 4 7 1 7 1 13 2 13 2 8"/><rect class="cls-1" y="7" width="1" height="6"/><polygon class="cls-1" points="2 10 2 13 3 13 3 14 10 14 10 13 11 13 11 10 2 10"/><rect class="cls-3" x="2" y="9" width="9" height="1"/><rect class="cls-1" x="12" y="7" width="1" height="6"/><rect class="cls-1" x="2" y="8" width="9" height="1"/><polygon class="cls-2" points="8 7 8 6 11 6 11 5 6 5 6 6 7 6 7 8 11 8 11 13 12 13 12 7 8 7"/><rect class="cls-4" x="6" y="6" width="1" height="2"/><rect class="cls-5" x="5" y="6" width="1" height="2"/><polygon class="cls-1" points="4 7 4 4 3 4 3 6 1 6 1 7 4 7"/><polygon class="cls-1" points="11 5 11 6 8 6 8 7 12 7 12 6 14 6 14 5 11 5"/><rect class="cls-1" x="14" y="4" width="1" height="1"/><rect class="cls-2" x="11" y="4" width="3" height="1"/><rect class="cls-6" x="8" y="4" width="3" height="1"/><polygon class="cls-4" points="5 4 5 6 6 6 6 5 8 5 8 4 5 4"/><rect class="cls-1" x="15" y="3" width="1" height="1"/><rect class="cls-2" x="14" y="3" width="1" height="1"/><rect class="cls-6" x="11" y="3" width="3" height="1"/><rect class="cls-4" x="8" y="3" width="3" height="1"/><rect class="cls-2" x="5" y="3" width="3" height="1"/><rect class="cls-1" x="4" y="3" width="1" height="1"/><rect class="cls-1" x="14" y="2" width="1" height="1"/><rect class="cls-2" x="13" y="2" width="1" height="1"/><rect class="cls-4" x="11" y="2" width="2" height="1"/><rect class="cls-2" x="8" y="2" width="3" height="1"/><rect class="cls-1" x="5" y="2" width="3" height="1"/><rect class="cls-1" x="13" y="1" width="1" height="1"/><rect class="cls-2" x="11" y="1" width="2" height="1"/><rect class="cls-1" x="8" y="1" width="3" height="1"/><rect class="cls-1" x="11" width="2" height="1"/></svg>