<svg id="Layer_1" data-name="Layer 1" xmlns="http://www.w3.org/2000/svg" viewBox="0 0 16 16"><defs><style>.cls-1{fill:#f7feff;}.cls-2{fill:#231e2b;}.cls-3{fill:#47414d;}.cls-4{fill:#36313b;}.cls-5{fill:#696168;}.cls-6{fill:#998b8c;}</style></defs><title>safe</title><rect class="cls-1" x="11" y="14" width="2" height="1"/><rect class="cls-1" x="3" y="14" width="2" height="1"/><rect class="cls-1" x="13" y="13" width="2" height="1"/><rect class="cls-1" x="5" y="13" width="6" height="1"/><rect class="cls-1" x="1" y="13" width="2" height="1"/><path class="cls-2" d="M15,2H1V13H3v1H5V13h6v1h2V13h2ZM2,12V3H14v9Z"/><rect class="cls-1" y="2" width="1" height="11"/><path class="cls-3" d="M14,3H2v9H14ZM3,11V4H13v7Z"/><path class="cls-4" d="M13,4H3v7H13ZM8,10V9H7V6H8V5h3V6h1V9H11v1Z"/><rect class="cls-5" x="10" y="9" width="1" height="1"/><rect class="cls-6" x="8" y="9" width="2" height="1"/><rect class="cls-3" x="10" y="8" width="1" height="1"/><rect class="cls-4" x="9" y="8" width="1" height="1"/><rect class="cls-3" x="8" y="8" width="1" height="1"/><rect class="cls-6" x="7" y="8" width="1" height="1"/><rect class="cls-5" x="11" y="7" width="1" height="2"/><rect class="cls-4" x="10" y="7" width="1" height="1"/><rect class="cls-5" x="9" y="7" width="1" height="1"/><rect class="cls-4" x="8" y="7" width="1" height="1"/><rect class="cls-5" x="7" y="6" width="1" height="2"/><rect class="cls-6" x="11" y="6" width="1" height="1"/><rect class="cls-3" x="10" y="6" width="1" height="1"/><rect class="cls-4" x="9" y="6" width="1" height="1"/><rect class="cls-3" x="8" y="6" width="1" height="1"/><rect class="cls-6" x="8" y="5" width="3" height="1"/><rect class="cls-1" x="15" y="2" width="1" height="11"/><rect class="cls-1" x="1" y="1" width="14" height="1"/></svg>