<svg id="Layer_1" data-name="Layer 1" xmlns="http://www.w3.org/2000/svg" viewBox="0 0 16 16"><defs><style>.cls-1{fill:#f7feff;}.cls-2{fill:#231e2b;}.cls-3{fill:#e2b436;}.cls-4{fill:#cf8934;}.cls-5{fill:#f5f38e;}</style></defs><title>star</title><rect class="cls-1" x="12" y="15" width="1" height="1"/><rect class="cls-1" x="3" y="15" width="1" height="1"/><rect class="cls-1" x="13" y="14" width="1" height="1"/><rect class="cls-2" x="12" y="14" width="1" height="1"/><rect class="cls-1" x="10" y="14" width="2" height="1"/><rect class="cls-1" x="4" y="14" width="2" height="1"/><rect class="cls-2" x="3" y="14" width="1" height="1"/><rect class="cls-1" x="2" y="14" width="1" height="1"/><rect class="cls-1" x="14" y="12" width="1" height="2"/><rect class="cls-3" x="12" y="13" width="1" height="1"/><rect class="cls-2" x="10" y="13" width="2" height="1"/><rect class="cls-1" x="6" y="13" width="4" height="1"/><rect class="cls-2" x="4" y="13" width="2" height="1"/><rect class="cls-4" x="3" y="13" width="1" height="1"/><rect class="cls-2" x="2" y="12" width="1" height="2"/><rect class="cls-2" x="13" y="12" width="1" height="2"/><rect class="cls-5" x="12" y="12" width="1" height="1"/><rect class="cls-3" x="11" y="12" width="1" height="1"/><rect class="cls-4" x="10" y="12" width="1" height="1"/><rect class="cls-2" x="6" y="12" width="4" height="1"/><rect class="cls-4" x="5" y="12" width="1" height="1"/><rect class="cls-3" x="4" y="12" width="1" height="1"/><rect class="cls-5" x="3" y="12" width="1" height="1"/><rect class="cls-1" x="1" y="12" width="1" height="2"/><rect class="cls-4" x="6" y="11" width="3" height="1"/><rect class="cls-2" x="3" y="8" width="1" height="4"/><rect class="cls-1" x="2" y="8" width="1" height="4"/><rect class="cls-5" x="11" y="10" width="1" height="2"/><rect class="cls-5" x="4" y="10" width="1" height="2"/><polygon class="cls-4" points="6 10 6 9 5 9 5 8 4 8 4 10 6 10"/><rect class="cls-1" x="13" y="8" width="1" height="4"/><rect class="cls-2" x="12" y="8" width="1" height="4"/><polygon class="cls-4" points="11 9 10 9 10 10 12 10 12 8 11 8 11 9"/><rect class="cls-1" x="14" y="7" width="1" height="1"/><rect class="cls-2" x="13" y="7" width="1" height="1"/><rect class="cls-4" x="12" y="7" width="1" height="1"/><polygon class="cls-3" points="4 7 4 8 5 8 5 9 6 9 6 10 5 10 5 12 6 12 6 11 9 11 9 12 11 12 11 10 10 10 10 9 11 9 11 8 12 8 12 7 11 7 11 6 10 6 10 5 9 5 9 4 7 4 7 5 6 5 6 6 5 6 5 7 4 7"/><rect class="cls-4" x="3" y="7" width="1" height="1"/><rect class="cls-2" x="2" y="7" width="1" height="1"/><rect class="cls-1" x="1" y="7" width="1" height="1"/><rect class="cls-1" x="15" y="6" width="1" height="1"/><rect class="cls-2" x="14" y="6" width="1" height="1"/><rect class="cls-5" x="11" y="6" width="3" height="1"/><rect class="cls-5" x="2" y="6" width="3" height="1"/><rect class="cls-2" x="1" y="6" width="1" height="1"/><rect class="cls-1" y="6" width="1" height="1"/><rect class="cls-1" x="14" y="5" width="1" height="1"/><rect class="cls-2" x="11" y="5" width="3" height="1"/><rect class="cls-5" x="10" y="5" width="1" height="1"/><rect class="cls-4" x="5" y="5" width="1" height="1"/><rect class="cls-2" x="2" y="5" width="3" height="1"/><rect class="cls-1" x="1" y="5" width="1" height="1"/><rect class="cls-1" x="11" y="4" width="3" height="1"/><rect class="cls-2" x="10" y="4" width="1" height="1"/><rect class="cls-5" x="9" y="4" width="1" height="1"/><rect class="cls-4" x="6" y="4" width="1" height="1"/><rect class="cls-2" x="5" y="4" width="1" height="1"/><rect class="cls-1" x="2" y="4" width="3" height="1"/><rect class="cls-1" x="10" y="2" width="1" height="2"/><polygon class="cls-5" points="9 4 9 2 8 2 8 3 7 3 7 4 9 4"/><rect class="cls-2" x="6" y="3" width="1" height="1"/><rect class="cls-1" x="5" y="3" width="1" height="1"/><rect class="cls-2" x="9" y="2" width="1" height="2"/><rect class="cls-2" x="7" y="2" width="1" height="1"/><rect class="cls-1" x="6" y="2" width="1" height="1"/><rect class="cls-1" x="9" y="1" width="1" height="1"/><rect class="cls-2" x="8" y="1" width="1" height="1"/><rect class="cls-1" x="7" y="1" width="1" height="1"/><rect class="cls-1" x="8" width="1" height="1"/></svg>