<svg id="Layer_1" data-name="Layer 1" xmlns="http://www.w3.org/2000/svg" viewBox="0 0 16 16"><defs><style>.cls-1{fill:#f7feff;}.cls-2{fill:#231e2b;}.cls-3{fill:#e2b436;}.cls-4{fill:#f5f38e;}</style></defs><title>stars</title><rect class="cls-1" x="10" y="15" width="1" height="1"/><rect class="cls-1" x="11" y="14" width="1" height="1"/><rect class="cls-2" x="10" y="14" width="1" height="1"/><rect class="cls-1" x="9" y="14" width="1" height="1"/><rect class="cls-1" x="4" y="14" width="1" height="1"/><rect class="cls-1" x="12" y="13" width="1" height="1"/><rect class="cls-2" x="11" y="13" width="1" height="1"/><rect class="cls-3" x="10" y="13" width="1" height="1"/><rect class="cls-2" x="9" y="13" width="1" height="1"/><rect class="cls-1" x="8" y="13" width="1" height="1"/><rect class="cls-1" x="5" y="13" width="1" height="1"/><rect class="cls-2" x="4" y="13" width="1" height="1"/><rect class="cls-1" x="3" y="13" width="1" height="1"/><rect class="cls-1" x="13" y="12" width="1" height="1"/><rect class="cls-2" x="12" y="12" width="1" height="1"/><rect class="cls-3" x="11" y="12" width="1" height="1"/><rect class="cls-1" x="10" y="12" width="1" height="1"/><rect class="cls-3" x="9" y="12" width="1" height="1"/><rect class="cls-2" x="8" y="12" width="1" height="1"/><polygon class="cls-1" points="7 12 7 9 6 9 6 13 8 13 8 12 7 12"/><rect class="cls-2" x="3" y="9" width="1" height="4"/><rect class="cls-2" x="11" y="11" width="1" height="1"/><rect class="cls-3" x="10" y="11" width="1" height="1"/><rect class="cls-2" x="9" y="11" width="1" height="1"/><rect class="cls-1" x="8" y="11" width="1" height="1"/><rect class="cls-2" x="5" y="9" width="1" height="4"/><rect class="cls-3" x="4" y="11" width="1" height="2"/><rect class="cls-1" x="2" y="9" width="1" height="4"/><rect class="cls-2" x="10" y="10" width="1" height="1"/><rect class="cls-1" x="9" y="10" width="1" height="1"/><rect class="cls-1" x="13" y="9" width="1" height="1"/><rect class="cls-2" x="12" y="9" width="1" height="1"/><polygon class="cls-1" points="12 9 11 9 11 6 10 6 10 10 11 10 11 11 12 11 12 12 13 12 13 10 12 10 12 9"/><rect class="cls-4" x="4" y="9" width="1" height="2"/><rect class="cls-3" x="12" y="8" width="1" height="1"/><rect class="cls-1" x="7" y="8" width="1" height="1"/><rect class="cls-2" x="6" y="8" width="1" height="1"/><rect class="cls-3" x="5" y="8" width="1" height="1"/><rect class="cls-3" x="3" y="8" width="1" height="1"/><rect class="cls-2" x="2" y="8" width="1" height="1"/><rect class="cls-1" x="1" y="8" width="1" height="1"/><rect class="cls-2" x="13" y="6" width="1" height="3"/><rect class="cls-4" x="12" y="7" width="1" height="1"/><rect class="cls-2" x="11" y="6" width="1" height="3"/><rect class="cls-1" x="8" y="7" width="1" height="1"/><rect class="cls-2" x="7" y="7" width="1" height="1"/><rect class="cls-3" x="6" y="7" width="1" height="1"/><rect class="cls-4" x="5" y="7" width="1" height="1"/><rect class="cls-1" x="4" y="6" width="1" height="3"/><rect class="cls-4" x="3" y="7" width="1" height="1"/><rect class="cls-3" x="2" y="7" width="1" height="1"/><rect class="cls-2" x="1" y="7" width="1" height="1"/><rect class="cls-1" y="7" width="1" height="1"/><rect class="cls-1" x="14" y="6" width="1" height="3"/><rect class="cls-1" x="7" y="6" width="1" height="1"/><rect class="cls-2" x="6" y="6" width="1" height="1"/><rect class="cls-3" x="5" y="6" width="1" height="1"/><rect class="cls-3" x="3" y="6" width="1" height="1"/><rect class="cls-2" x="2" y="6" width="1" height="1"/><rect class="cls-1" x="1" y="6" width="1" height="1"/><rect class="cls-1" x="15" y="5" width="1" height="1"/><rect class="cls-2" x="14" y="5" width="1" height="1"/><rect class="cls-3" x="13" y="5" width="1" height="1"/><rect class="cls-3" x="11" y="5" width="1" height="1"/><rect class="cls-2" x="10" y="5" width="1" height="1"/><rect class="cls-1" x="9" y="5" width="1" height="1"/><rect class="cls-4" x="4" y="5" width="1" height="1"/><rect class="cls-1" x="2" y="3" width="1" height="3"/><rect class="cls-1" x="12" y="4" width="1" height="3"/><rect class="cls-1" x="10" y="2" width="1" height="3"/><rect class="cls-1" x="6" y="3" width="1" height="3"/><rect class="cls-3" x="4" y="3" width="1" height="2"/><rect class="cls-2" x="3" y="3" width="1" height="3"/><rect class="cls-1" x="14" y="2" width="1" height="3"/><rect class="cls-4" x="12" y="3" width="1" height="1"/><rect class="cls-2" x="11" y="2" width="1" height="3"/><rect class="cls-2" x="5" y="3" width="1" height="3"/><rect class="cls-2" x="13" y="2" width="1" height="3"/><rect class="cls-3" x="12" y="2" width="1" height="1"/><rect class="cls-1" x="5" y="2" width="1" height="1"/><rect class="cls-2" x="4" y="2" width="1" height="1"/><rect class="cls-1" x="3" y="2" width="1" height="1"/><rect class="cls-1" x="13" y="1" width="1" height="1"/><rect class="cls-2" x="12" y="1" width="1" height="1"/><rect class="cls-1" x="11" y="1" width="1" height="1"/><rect class="cls-1" x="4" y="1" width="1" height="1"/><rect class="cls-1" x="12" width="1" height="1"/></svg>