<svg id="Layer_1" data-name="Layer 1" xmlns="http://www.w3.org/2000/svg" viewBox="0 0 16 16"><defs><style>.cls-1{fill:#f7feff;}.cls-2{fill:#231e2b;}.cls-3{fill:#892727;}.cls-4{fill:#b0392e;}.cls-5{fill:#e2b436;}.cls-6{fill:#f5f38e;}</style></defs><title>tea</title><rect class="cls-1" x="2" y="15" width="8" height="1"/><rect class="cls-1" x="10" y="14" width="1" height="1"/><rect class="cls-2" x="2" y="14" width="8" height="1"/><rect class="cls-1" x="1" y="14" width="1" height="1"/><polygon class="cls-2" points="2 2 5 2 5 4 6 4 6 2 10 2 10 4 14 4 14 3 11 3 11 1 1 1 1 14 2 14 2 2"/><rect class="cls-1" y="1" width="1" height="13"/><polygon class="cls-1" points="11 11 11 14 12 14 12 12 13 12 13 11 11 11"/><rect class="cls-1" x="13" y="10" width="1" height="1"/><polygon class="cls-2" points="10 10 10 14 11 14 11 11 13 11 13 10 10 10"/><rect class="cls-3" x="3" y="10" width="5" height="1"/><rect class="cls-1" x="14" y="9" width="1" height="1"/><rect class="cls-2" x="13" y="9" width="1" height="1"/><rect class="cls-3" x="10" y="9" width="3" height="1"/><rect class="cls-3" x="13" y="8" width="1" height="1"/><rect class="cls-4" x="12" y="8" width="1" height="1"/><polygon class="cls-4" points="10 2 6 2 6 4 7 4 7 5 8 5 8 11 3 11 3 5 4 5 4 4 5 4 5 2 2 2 2 14 10 14 10 2"/><rect class="cls-2" x="14" y="4" width="1" height="5"/><rect class="cls-1" x="11" y="6" width="1" height="2"/><polygon class="cls-2" points="7 9 4 9 4 5 3 5 3 10 8 10 8 5 7 5 7 9"/><polygon class="cls-5" points="4 6 4 9 7 9 7 6 6 6 6 5 5 5 5 6 4 6"/><polygon class="cls-2" points="10 9 12 9 12 8 11 8 11 6 12 6 12 8 13 8 13 5 10 5 10 9"/><rect class="cls-6" x="6" y="5" width="1" height="1"/><rect class="cls-6" x="4" y="5" width="1" height="1"/><rect class="cls-1" x="15" y="4" width="1" height="5"/><polygon class="cls-4" points="11 4 11 5 13 5 13 8 14 8 14 4 11 4"/><rect class="cls-3" x="10" y="4" width="1" height="1"/><rect class="cls-2" x="6" y="4" width="1" height="1"/><rect class="cls-6" x="5" y="4" width="1" height="1"/><rect class="cls-2" x="4" y="4" width="1" height="1"/><rect class="cls-1" x="14" y="3" width="1" height="1"/><polygon class="cls-1" points="11 3 14 3 14 2 12 2 12 1 11 1 11 3"/><rect class="cls-1" x="1" width="10" height="1"/></svg>