<svg id="Layer_1" data-name="Layer 1" xmlns="http://www.w3.org/2000/svg" viewBox="0 0 16 16"><defs><style>.cls-1{fill:#f7feff;}.cls-2{fill:#231e2b;}.cls-3{fill:#c7936b;}.cls-4{fill:#356e69;}.cls-5{fill:#4fab59;}.cls-6{fill:#e8be9b;}.cls-7{fill:#acc756;}</style></defs><title>thumbs_down</title><rect class="cls-1" x="7" y="15" width="2" height="1"/><rect class="cls-1" x="9" y="14" width="1" height="1"/><rect class="cls-2" x="7" y="14" width="2" height="1"/><rect class="cls-1" x="6" y="14" width="1" height="1"/><rect class="cls-1" x="10" y="13" width="4" height="1"/><rect class="cls-3" x="7" y="13" width="1" height="1"/><rect class="cls-2" x="6" y="13" width="1" height="1"/><rect class="cls-1" x="1" y="13" width="5" height="1"/><rect class="cls-1" x="14" y="12" width="1" height="1"/><polygon class="cls-2" points="9 12 9 14 10 14 10 13 14 13 14 12 9 12"/><rect class="cls-3" x="6" y="12" width="1" height="1"/><path class="cls-2" d="M6,13V2h8V1H1V13ZM2,2H5V12H2Z"/><rect class="cls-1" x="15" y="10" width="1" height="2"/><rect class="cls-3" x="8" y="11" width="6" height="1"/><rect class="cls-4" x="2" y="11" width="3" height="1"/><rect class="cls-1" y="1" width="1" height="12"/><rect class="cls-2" x="14" y="10" width="1" height="2"/><path class="cls-5" d="M5,11V3H2v8ZM3,4H4V5H3Z"/><rect class="cls-1" x="14" y="9" width="1" height="1"/><rect class="cls-2" x="13" y="9" width="1" height="1"/><rect class="cls-1" x="15" y="7" width="1" height="2"/><rect class="cls-2" x="14" y="7" width="1" height="2"/><rect class="cls-1" x="14" y="6" width="1" height="1"/><rect class="cls-2" x="13" y="6" width="1" height="1"/><rect class="cls-1" x="15" y="4" width="1" height="2"/><rect class="cls-2" x="14" y="4" width="1" height="2"/><rect class="cls-4" x="3" y="4" width="1" height="1"/><rect class="cls-1" x="14" y="3" width="1" height="1"/><rect class="cls-2" x="13" y="3" width="1" height="1"/><rect class="cls-1" x="15" y="2" width="1" height="1"/><rect class="cls-2" x="14" y="2" width="1" height="1"/><polygon class="cls-6" points="6 2 6 12 7 12 7 13 8 13 8 14 9 14 9 12 8 12 8 11 14 11 14 10 13 10 13 9 14 9 14 7 13 7 13 6 14 6 14 4 13 4 13 3 14 3 14 2 6 2"/><rect class="cls-7" x="2" y="2" width="3" height="1"/><rect class="cls-1" x="14" y="1" width="1" height="1"/><rect class="cls-1" x="1" width="13" height="1"/></svg>