<svg id="Layer_1" data-name="Layer 1" xmlns="http://www.w3.org/2000/svg" viewBox="0 0 16 16"><defs><style>.cls-1{fill:#f7feff;}.cls-2{fill:#231e2b;}.cls-3{fill:#784028;}.cls-4{fill:#522b29;}.cls-5{fill:#356e69;}.cls-6{fill:#4fab59;}.cls-7{fill:#acc756;}</style></defs><title>tree</title><rect class="cls-1" x="6" y="15" width="4" height="1"/><rect class="cls-1" x="5" y="12" width="1" height="3"/><rect class="cls-1" x="10" y="12" width="1" height="3"/><rect class="cls-1" x="11" y="11" width="2" height="1"/><polygon class="cls-2" points="9 11 9 14 7 14 7 11 5 11 5 12 6 12 6 15 10 15 10 12 11 12 11 11 9 11"/><rect class="cls-1" x="3" y="11" width="2" height="1"/><rect class="cls-1" x="13" y="10" width="1" height="1"/><rect class="cls-2" x="11" y="10" width="2" height="1"/><polygon class="cls-3" points="8 10 8 11 7 11 7 14 9 14 9 10 8 10"/><rect class="cls-4" x="7" y="10" width="1" height="1"/><rect class="cls-2" x="3" y="10" width="2" height="1"/><rect class="cls-1" x="2" y="10" width="1" height="1"/><rect class="cls-1" x="14" y="9" width="1" height="1"/><rect class="cls-2" x="13" y="9" width="1" height="1"/><rect class="cls-3" x="9" y="9" width="1" height="1"/><rect class="cls-4" x="8" y="9" width="1" height="1"/><polygon class="cls-5" points="8 10 8 9 6 9 6 8 3 8 3 7 2 7 2 9 3 9 3 10 5 10 5 11 7 11 7 10 8 10"/><rect class="cls-2" x="2" y="9" width="1" height="1"/><rect class="cls-1" x="1" y="9" width="1" height="1"/><rect class="cls-5" x="13" y="8" width="1" height="1"/><rect class="cls-6" x="12" y="8" width="1" height="1"/><polygon class="cls-5" points="12 7 11 7 11 8 9 8 9 7 8 7 8 6 6 6 6 7 7 7 7 8 8 8 8 9 10 9 10 10 9 10 9 11 11 11 11 10 13 10 13 9 12 9 12 7"/><rect class="cls-6" x="6" y="8" width="2" height="1"/><rect class="cls-2" x="1" y="4" width="1" height="5"/><rect class="cls-2" x="14" y="4" width="1" height="5"/><rect class="cls-7" x="12" y="7" width="2" height="1"/><rect class="cls-7" x="6" y="7" width="1" height="1"/><rect class="cls-6" x="4" y="7" width="2" height="1"/><rect class="cls-7" x="3" y="7" width="1" height="1"/><rect class="cls-1" y="4" width="1" height="5"/><rect class="cls-5" x="12" y="6" width="2" height="1"/><rect class="cls-5" x="10" y="6" width="1" height="1"/><polygon class="cls-6" points="10 5 8 5 8 7 9 7 9 8 11 8 11 7 10 7 10 5"/><rect class="cls-7" x="4" y="6" width="2" height="1"/><rect class="cls-5" x="3" y="6" width="1" height="1"/><polygon class="cls-6" points="3 6 4 6 4 5 6 5 6 6 7 6 7 4 8 4 8 3 5 3 5 4 3 4 3 5 2 5 2 7 3 7 3 6"/><rect class="cls-7" x="10" y="5" width="1" height="1"/><rect class="cls-7" x="7" y="5" width="1" height="1"/><rect class="cls-5" x="4" y="5" width="2" height="1"/><rect class="cls-1" x="15" y="4" width="1" height="5"/><rect class="cls-7" x="13" y="4" width="1" height="1"/><polygon class="cls-6" points="13 4 11 4 11 7 12 7 12 6 14 6 14 5 13 5 13 4"/><rect class="cls-5" x="10" y="4" width="1" height="1"/><rect class="cls-7" x="8" y="4" width="2" height="1"/><rect class="cls-5" x="7" y="4" width="1" height="1"/><rect class="cls-7" x="2" y="4" width="1" height="1"/><rect class="cls-1" x="14" y="3" width="1" height="1"/><rect class="cls-2" x="13" y="3" width="1" height="1"/><rect class="cls-7" x="11" y="3" width="2" height="1"/><rect class="cls-6" x="10" y="3" width="1" height="1"/><rect class="cls-5" x="8" y="3" width="2" height="1"/><rect class="cls-7" x="3" y="3" width="2" height="1"/><rect class="cls-2" x="2" y="3" width="1" height="1"/><rect class="cls-1" x="1" y="3" width="1" height="1"/><rect class="cls-1" x="13" y="2" width="1" height="1"/><rect class="cls-2" x="11" y="2" width="2" height="1"/><rect class="cls-7" x="5" y="2" width="6" height="1"/><rect class="cls-2" x="3" y="2" width="2" height="1"/><rect class="cls-1" x="2" y="2" width="1" height="1"/><rect class="cls-1" x="11" y="1" width="2" height="1"/><rect class="cls-2" x="5" y="1" width="6" height="1"/><rect class="cls-1" x="3" y="1" width="2" height="1"/><rect class="cls-1" x="5" width="6" height="1"/></svg>