<svg id="Layer_1" data-name="Layer 1" xmlns="http://www.w3.org/2000/svg" viewBox="0 0 16 16"><defs><style>.cls-1{fill:#f7feff;}.cls-2{fill:#231e2b;}.cls-3{fill:#66151b;}.cls-4{fill:#892727;}.cls-5{fill:#b0392e;}</style></defs><title>wall</title><rect class="cls-1" x="1" y="15" width="14" height="1"/><path class="cls-2" d="M15,1H1V15H15ZM2,14V2H14V14Z"/><path class="cls-3" d="M13,13V11h1V10H12V8h2V7H10V5h4V4H11V2H10V4H6V2H5V4H2V5H4V7H2V8H6v2H2v1H3v2H2v1H14V13ZM5,7V5H9V7ZM7,8h4v2H7ZM4,13V11H8v2Zm5,0V11h3v2Z"/><rect class="cls-1" y="1" width="1" height="14"/><rect class="cls-4" x="13" y="12" width="1" height="1"/><polygon class="cls-4" points="10 12 10 11 9 11 9 13 12 13 12 12 10 12"/><polygon class="cls-4" points="5 12 5 11 4 11 4 13 8 13 8 12 5 12"/><rect class="cls-4" x="2" y="12" width="1" height="1"/><rect class="cls-5" x="13" y="11" width="1" height="1"/><rect class="cls-5" x="10" y="11" width="2" height="1"/><rect class="cls-5" x="5" y="11" width="3" height="1"/><rect class="cls-5" x="2" y="11" width="1" height="1"/><polygon class="cls-4" points="11 10 11 9 8 9 8 8 7 8 7 10 11 10"/><polygon class="cls-4" points="6 10 6 9 3 9 3 8 2 8 2 10 6 10"/><rect class="cls-5" x="13" y="8" width="1" height="1"/><polygon class="cls-4" points="13 8 12 8 12 10 14 10 14 9 13 9 13 8"/><rect class="cls-5" x="8" y="8" width="3" height="1"/><rect class="cls-5" x="3" y="8" width="3" height="1"/><polygon class="cls-4" points="11 6 11 5 10 5 10 7 14 7 14 6 11 6"/><polygon class="cls-4" points="9 7 9 6 6 6 6 5 5 5 5 7 9 7"/><rect class="cls-4" x="2" y="6" width="2" height="1"/><rect class="cls-5" x="11" y="5" width="3" height="1"/><rect class="cls-5" x="6" y="5" width="3" height="1"/><rect class="cls-5" x="2" y="5" width="2" height="1"/><polygon class="cls-4" points="11 4 14 4 14 3 12 3 12 2 11 2 11 4"/><polygon class="cls-4" points="6 4 10 4 10 3 7 3 7 2 6 2 6 4"/><polygon class="cls-4" points="5 4 5 3 3 3 3 2 2 2 2 4 5 4"/><rect class="cls-5" x="12" y="2" width="2" height="1"/><rect class="cls-5" x="7" y="2" width="3" height="1"/><rect class="cls-5" x="3" y="2" width="2" height="1"/><rect class="cls-1" x="15" y="1" width="1" height="14"/><rect class="cls-1" x="1" width="14" height="1"/></svg>