<svg xmlns="http://www.w3.org/2000/svg" viewBox="0 0 176 263">
    <path d="M116 112.396c4.938.063 7.063 2.936 12 3-2.72 14.28-9.799 24.201-15 36-4.987-1.013-7.883-4.117-12-6 6.049-9.953 11.067-20.933 15-33zm-36 64c4.802 1.199 6.061 5.939 11 7-6.584 5.387-26.094 45.929-34 20a142.5 142.5 0 0023-27zm-51 54c4.024 1.976 4.838 7.163 9 9-9.623 8.71-19.388 17.278-31 24-2.323-3.009-4.445-6.222-7-9 8.804-8.865 20.028-15.305 29-24zM175.962 39.188a318.64 318.64 0 00-12.56-24.274c-1.654-2.894-3.795-7.426-6.631-10.741-.056-1.009-.752-1.572-1.756-1.782-1.146-.999-2.396-1.743-3.754-2.114-.079-.024-.146-.063-.229-.075-.012-.003-.021-.001-.034-.004a7.18 7.18 0 00-2.976-.078c-2.262.419-3.903 1.948-4.485 3.435-6.298 6.842-13.089 13.361-20.112 19.445-2.335 2.022-10.076 8.141-4.675 10.92 2.962 1.526 9.725-2.354 8.343-4.973.855-1.05 2.032-1.938 3.046-2.833 1.516-1.338 3.082-2.62 4.534-4.028 3.916-3.8 7.869-7.546 11.72-11.402-3.699 26.771-11.233 52.793-16.911 79.186-.896 4.188 8.961 1.921 9.802-1.987 4.896-22.773 11.18-45.271 15.194-68.216.683 1.224 1.376 2.446 2.048 3.669a318.401 318.401 0 019.873 19.493c1.8 3.879 11.298.108 9.563-3.641z"/>
</svg>